<svg id="Capa_1" data-name="Capa 1" xmlns="http://www.w3.org/2000/svg" xmlns:xlink="http://www.w3.org/1999/xlink" viewBox="0 0 1080 1411"><defs><style>.cls-1{fill:none;}.cls-2{stroke:#000;stroke-miterlimit:10;}.cls-3{opacity:0.43;}.cls-4{clip-path:url(#clip-path);}.cls-5{fill:#666;}</style><clipPath id="clip-path"><rect class="cls-1" y="18" width="1080" height="1393"/></clipPath></defs><title>FlyoutFlyout</title><rect class="cls-2" x="0.5" y="-4.5" width="1080" height="1421"/><g class="cls-3"><g class="cls-4"><path class="cls-5" d="M429.77,1340.21a120.13,120.13,0,0,0-8.68-24,124.11,124.11,0,0,0-20.69-30.59c-1.33-1.44-3.74-3-2.55-5.52,1.47-3.1,3.67-.63,5.13.82,16.93,16.7,29.5,37.79,36.31,64.49.68,2.66.41,5.78.49,8.68.12,4.33.64,8.38,4.32,12.07-2.29-17.88-4.68-34.41-12-49-2.32-4.62-4.48-9.39-6.77-14-.76-1.54-2.11-3.2-.58-4.75,1.38-1.39,2.64.54,3.63,1.69,9.15,10.55,15.18,23.87,18.75,39,1.7,7.24,4.81,14.74,3.29,22.34a77.9,77.9,0,0,0-.65,27.77c.79,5.33.08,11.75,1.68,17.64.78,2.88,1.42,6.89-1.62,8.21s-4.08-2.44-5.08-5.29c-6.83-19.4-16.64-34.76-32.09-42.89-6.95-3.67-14.32-4.39-21.51-6.41-1.32-.37-2.83.39-3.92-1.27,7.93-7.48,34.05-2.33,54.71,25.51-5.42-16-11.77-28.38-20-39.12a97.94,97.94,0,0,0-20.7-20.14c-2-1.42-6.11-2.29-4.41-6.59,1.17-3,4.31-.32,6.47.92,8.32,4.77,15.7,11.53,22.78,18.91C427,1339.74,427.78,1341,429.77,1340.21Z"/><path class="cls-5" d="M465.68,1380.78c0,2.79-.43,5.63-3,5.78-2.86.18-3.36-3.08-3.83-6-1.91-11.89-3.53-23.86-6.42-35.44a208.31,208.31,0,0,0-23.33-56.92c-2.22-3.7-5-6-8.7-6.24-1.49-.11-3.72.39-3.8-2.49s2-3.52,3.83-4.09c3.88-1.18,7,.47,9.85,3.95,8.88,10.75,14.62,24.56,20.16,38.25,7.57,18.71,13.23,38.53,14.86,60C465.4,1378.61,465.56,1379.65,465.68,1380.78Z"/><path class="cls-5" d="M488,1374.91a88.17,88.17,0,0,1-1.49,18.21c-.47,2.48-1.5,4.55-3.6,4.57-2.36,0-2.8-2.64-3.08-5a31,31,0,0,1-.34-7.11c1.91-16.08-.61-31.86-2.78-47.34a141.66,141.66,0,0,0-20.24-56c-.51-.82-1-1.62-1.51-2.49-.78-1.47-2.12-3.12-.57-4.8s3.06-.33,4.08,1.44c3.51,6.1,7.24,12,10.36,18.47C480.61,1319.25,486.69,1346.1,488,1374.91Z"/><path class="cls-5" d="M301.28,261.76q20.1-104,43.25-207c-11.87,69.91-26.16,139-40,208.21Z"/><path class="cls-5" d="M437.3,759.14c0-2.82-.76-5.95,2.37-7,2.69-1,3.75,1.77,5.53,3.33,2,1.7,2.12,9.6,6.74,4.16.41-.48,1.34,1.55,1.41,3,.29,5.59,8.17,18.28,11.85,19,1.67.31,3-1,4.48-1.84q17.38-10.56,34.83-20.88c1.73-1,3.56-2.64,6.1-1-2.41,5.77-7.29,6.06-10.87,8.52-8.29,5.7-17,10.28-25.6,15.3-1.58.93-4.12.75-4.35,3.4-.26,2.86,2.12,4.36,3.66,5.73,8.62,7.68,17.86,13.91,27.21,19.86a18.22,18.22,0,0,1,2.73,1.6c.95.86,2.28,1.94,1.74,3.69s-2,1.21-3.14.76c-6.94-2.83-13.12-7.77-19.25-12.67-12.14-9.71-23.69-20.49-33.93-33.69-3.39-4.36-7.66-7.51-11.53-11.21Z"/><path class="cls-5" d="M675.09,279.17c1,15.68.08,31.86-1.29,47.86-2.58,30.37-5.57,60.72-12.57,90-.44,1.85-.26,5.09-2.47,4.46s-1-3.56-.71-5.36c2.93-18.05,6-36.05,8.9-54.11.82-5.16,1.08-10.47,1.54-15.71,2.87-32.86,5.27-65.75,3.68-98.9-.08-1.74-.87-4.44,1-4.63,2.33-.24,1.85,3,1.87,4.81C675.15,258,675.09,268.31,675.09,279.17Z"/><path class="cls-5" d="M152.83,388c46.26-7.79,90-26.38,132.19-51.79-40.91,30.94-85,48.13-131.46,55.62Z"/><path class="cls-5" d="M451.85,404.87c-19.49-47.7-44.58-89.08-77.67-121.43C391.17,284.64,450.12,376.58,451.85,404.87Z"/><path class="cls-5" d="M333,1281.3c0,1.33,0,2.66,0,4,0,2-.3,4-1.89,4.5-1.8.62-2.24-1.67-2.93-3.2-2.84-6.27-3.42-13.63-4.54-20.44-2.63-16-8.49-29.55-15.31-42.69-.68-1.31-1.36-2.63-2-4-.79-1.59-1.74-3.55-.32-4.94,2.07-2,3.28.69,4.35,2.38a146.12,146.12,0,0,1,15.42,32C329.26,1259.33,332.84,1269.63,333,1281.3Z"/><path class="cls-5" d="M462,527.76c-12.34.32-77.46-87-81.4-105.86A603.33,603.33,0,0,0,462,527.76Z"/><path class="cls-5" d="M722.84,559.71c12.42,21.21,21.07,43.7,27.59,67.74,5.17,19,7.55,38.81,9.19,58.81.14,1.74,1,4.24-1,4.68-2.1.48-2.45-2.34-2.65-4.33-.45-4.46-.49-9-1-13.44q-6.27-57.84-30.76-106.43C723.45,565.07,722.21,563.5,722.84,559.71Z"/><path class="cls-5" d="M246,726c-9-3.37-16.14-11.45-24.05-17.44-20.78-15.73-41.4-31.81-62.5-46.78-2.16-1.53-6.88-3.11-5.29-6.5,1.84-3.89,4.69,1.36,6.95,3,25.53,18,50.43,37.55,75.18,57.38,3.57,2.87,7.37,5.34,10.17,9.65C246.34,725.55,246.18,725.79,246,726Z"/><path class="cls-5" d="M567.46,758c-1.31,6-5.15,9.35-8.09,13.55-11.3,16.16-23.25,31.37-38.29,41.49a12.21,12.21,0,0,1-2.16,1.27c-.3.12-.71-.29-2.17-1,6.18-5.85,11.8-11.25,17.5-16.54,9.72-9,9.78-9.07.4-18.3-5-4.89-10.12-9.45-15.21-14.11-1.65-1.52-3.34-2.94-3.84-6.46,4.5.15,7.11,4.57,10.26,7.2,5.56,4.66,10.88,9.81,16.16,15,2.92,2.88,5.12,2.55,7.93-.56,6.15-6.81,9.95-16.63,16.72-22.58Z"/><path class="cls-5" d="M498.86,1337.39c-1.8,16.19-.4,32.78-3.56,48.8-.33,1.7.07,4.27-1.87,4.25-2.26,0-2.12-2.78-2.08-4.78q.57-28.58,1.29-57.14c.08-3,.85-6.37,3.46-6.46,3.25-.1,2.6,3.87,2.73,6.59C499,1331.55,498.86,1334.48,498.86,1337.39Z"/><path class="cls-5" d="M654.74,521.65c-1.37-3.07-2.82-4-5.18-1.21-15,18-32.59,30.46-51.41,39.63-6.95,3.39-14,7.71-22.23,7.66.9-3.55,2.82-4,4.67-4.55,19.44-5.62,36.68-17.7,53.06-32.12,5.8-5.1,11-11.34,16.62-16.89,1.49-1.48,3.09-4.56,5.13-2.84s-.48,4.18-.48,6.4c0,1.32-.14,2.64-.22,4Z"/><path class="cls-5" d="M1001.78,1282c1.36,9.88-2.11,19.74-2.35,30.07,0,2.3-.71,5.16-3,5.19s-2.78-2.63-2.87-5.13c-.54-14.95,2.84-29.33,3.71-44.08.1-1.65,1-3,2.42-2.83s2,1.8,2,3.42C1001.85,1272.83,1001.78,1277.07,1001.78,1282Z"/><path class="cls-5" d="M1016.69,1295.75c-.24,2-.27,3.07-.51,4-.67,2.73-1.14,6.39-4,5.67-2.44-.61-2.18-4.13-2.08-6.7.39-9.77.91-19.54,1.43-29.31.12-2.16.5-4.5,2.59-4.51,1.83,0,2.24,2.2,2.17,4a23.56,23.56,0,0,0,3.77,14.29c2.14,3.45,1.3,8.67,1.32,13.16,0,2,.15,4.74-2,4.91S1017.54,1298.45,1016.69,1295.75Z"/><path class="cls-5" d="M98.57,1005.54c-4.49-4.5-6.69-10.52-9.63-15.61a133.43,133.43,0,0,0-15-21.45c-2-2.32-3.38-5.78-7.49-3-2.79,1.92-4.41-4.32-6.06-7.27-1.36-2.45-5-5.35-2.69-8.46,2.08-2.78,4.6,1.38,6.63,3.16,13.11,11.5,23.8,26.27,32.76,43.29C98.31,998.57,99.65,1001,98.57,1005.54Z"/><path class="cls-5" d="M123,979.19c.79-1.81,0-4.22,1.53-4.54s1.63,1.88,1.91,3.31c1.52,7.54.88,15.27,1.08,22.92,0,1.49.11,3.6-1.44,3.78-1.79.2-2.06-2-2.45-3.78-1.84-8.34-3.72-16.67-5.52-25-2.08-9.64-4.08-19.32-6.14-29-.4-1.85-.93-4,.81-4.77,2-.93,2.18,1.54,2.56,3.23C117.91,956.42,120.41,967.53,123,979.19Z"/><path class="cls-5" d="M463.41,1339.52c.69-3.24-2.09-8.46,1.58-8.89,2.72-.33,3.15,5.07,3.69,8.73,1.3,8.79,2.91,17.5,4.21,26.29a96.19,96.19,0,0,1,.69,10.23c.08,2.28-.47,4.39-2.46,4.66s-2.92-1.74-3.34-3.77c-.58-2.79-.75-5.72-1.08-8.59C465.59,1358.56,464.49,1348.94,463.41,1339.52Z"/><path class="cls-5" d="M409.11,1227.09c-.82,3.18,1.25,5.12,1.4,7.73.14,2.3-.05,4.44-1.89,5.23s-2.9-.78-3.66-2.93c-2.94-8.3-3.38-17.41-4.74-26.2a5.27,5.27,0,0,1,1.12-3.4,1.46,1.46,0,0,1,2.57.65c1.08,7.25,6.6,9.79,9,15.45,1.09,2.6,4.08,6.46,1.24,8.87C411.66,1234.6,411.07,1228.76,409.11,1227.09Z"/><path class="cls-5" d="M898.57,1292c0-3.71-.06-7.42,0-11.13,0-1.87.31-3.91,2-4.37s2.83,1.52,3.06,3.07c1.45,9.85,3,19.74,2.09,29.88-.18,2.13-1.35,3.21-3,3.15-1.91-.08-2.73-1.83-3.24-4C898.26,1303.17,898.62,1297.57,898.57,1292Z"/><path class="cls-5" d="M426.79,1396c-.05,1.6,0,3.33-1.31,4.12-1.6,1-2.81-.41-3.56-1.91-4.52-9.1-10.2-16.16-18.32-19.24A2.64,2.64,0,0,1,402,1376c.12-1.33,1-1.53,1.73-1.84C410.68,1371.3,427,1386.78,426.79,1396Z"/><path class="cls-5" d="M928.6,1270.78c1.91.08,3.92.71,4.35,3.33q2.24,13.89,3.94,27.92c.29,2.41-.54,5-2.73,5.33s-2.73-2.19-3.41-4.5c-3.09-10.48-2.19-21.35-2.08-32.16Z"/><path class="cls-5" d="M852.09,1346.63c0,4.24,0,8.48,0,12.71,0,1.86-.25,3.9-2,4.25-1.44.29-2.13-1.27-2.58-2.74-3.12-10.2-1.72-20.75-1.22-31.21a2.31,2.31,0,0,1,2.19-2.26c1.71-.05,2.62,1.6,2.79,3.45.48,5.24.71,10.52,1,15.78Z"/><path class="cls-5" d="M981.17,1244.26c.52-4.25-1.09-7.71-2.24-11.37-.44-1.37-1.25-3.1.16-4.2.95-.74,1.84.28,2.67,1.09,6,5.83,7.36,23,2.42,30.36-1.15,1.69-2.44,2.95-4.18,1.79s-1.65-3.52-1.06-5.55C980.09,1252.45,981.79,1248.72,981.17,1244.26Z"/><path class="cls-5" d="M821.56,1348.66a78.34,78.34,0,0,1,8.44,31.21,3.54,3.54,0,0,1-1.86,3.69c-1.62.64-2.95-.63-3.34-2.41C822.53,1370.64,820.45,1360.05,821.56,1348.66Z"/><path class="cls-5" d="M437.28,759.11c0,5.75-3.44,7.28-6.57,9-1.93,1.08-4.2,1.65-1.57,5.16a2.22,2.22,0,0,1-.29,3.3c-1.05.68-1.88-.36-2.65-1.23-8.19-9.27-16.28-18.71-24.6-27.76C391,736,380.06,724.84,369.38,713.32c-3-3.28-5.33-3.43-8.25.44a127.24,127.24,0,0,1-12.63,14.6c-4.19,4.07-5.1,9.18-4.38,15.33s2.08,11.88,2,18.07c-.06,3.75,1.87,4.91,4.37,5,12.2.64,24.07,4.47,36.13,6.5,2.62.45,4.85,1.63,7.25,4.84-5.93,1.48-11.08-.52-15.82-2-9.44-3-19-3.46-28.49-4.65-2.8-.35-3.57.51-3.48,4,.17,6.1.16,12.21.23,18.31s2.3,8.36,6.84,8.25c9-.21,18,0,27,.16,2.28,0,4.81-.64,7,2.83a9.75,9.75,0,0,1-7.92,2.29c-8.38-.79-16.81,0-25.16-1.6-4.71-.92-7,1.27-6.76,8.26.78,23.32-2.21,19.06,14.61,19.67,21.8.79,43.69.08,65.39,2.38,31.35,3.33,62.79,2.21,94.06,5,23.9,2.11,47.88,1.88,71.68,4.71,17.75,2.11,35.54,1.73,53.25,4,5,.64,7.11-1.45,7.15-8.72.09-16.17.75-32.35,1.49-48.5.25-5.39-1.39-7.78-5.06-8.9-24.46-7.45-47.65-19.36-69.63-35.35-3.88-2.82-5.88-2.37-7.85,2.94-1,2.7-3.22,4.61-4.89,6.88l-.8-1c.61-1.94.89-4.28,1.89-5.74,2.75-4,3.62-8,.22-13.2,9.26.51,14.88,8.53,21.7,12.73,18.13,11.17,36.68,20.62,56,27.12,10.12,3.39,9.72,3,10.51-10.84,3.25-56.87,3.48-113.83,4.06-170.8.2-20.13.5-40.27.64-60.41,0-6.7-.69-12.91-7-14.21l0,0c4.37.53,6.35-1.94,5.88-7.89-.23-2.9-.1-5.84-.14-8.76-.17-12.81-3.24-15.51-11.66-8.62-2.9,2.37-5.55,2.36-8.39,3.22-7.19,2.17-14.4,4.27-21.52,6.79-10.59,3.75-21.36,6.28-32.14,8.81-13.79,3.23-27.63,5.47-41.65,5.18-1.15,0-2.42.42-3.6-1.2a257.8,257.8,0,0,1,42.52-18,278.89,278.89,0,0,0,37.55-16.29c8-4.07,15.9-8.64,24-12.47,2.84-1.34,5.31-3,6.47-6.48,4-11.89,10.11-22.24,12.13-35.57,4.32-28.51,9.11-56.84,12.55-85.63,4.13-34.61,7.5-69.16,6.88-104.25,0-1.8-.24-3.75,1.29-5.68,3.4,3,4.53,7.67,4.56,12.63.29,47,1,94-.47,141-.6,18.81-2.34,37.47-2.76,56.27-.16,7.26,2.47,13.35,6.52,17,3.17,2.88,1.48,6.3,1.95,9,2.44,14,10.32,22.94,16.54,33.38,19.43,32.63,40.64,63.37,59,97.11a167.52,167.52,0,0,1,11.09,24.49c.73,2.09,1.7,4.11.64,6.44-.69-.09-1.28.05-1.43-.23-6.19-11.48-14.71-20.12-21.22-31.35-6-10.35-12.3-21.13-19.5-29.48-12.91-15-20.6-35.84-34.46-49.48-9.11-9-17.33-19.5-26-29.34-1.09-1.24-2.27-2.45-3.76-1.48-1.76,1.14-1.61,3.53-1.57,5.6.21,11.14-.54,22.31.71,33.42a53.19,53.19,0,0,1,.34,7.14c-.81,36.12,2.65,72,2.93,108.12.16,19.32,0,38.82,1.29,58.07,2.84,41.81,2.84,83.7,3.5,125.59.1,6.57,1.32,13.1,2,19.66.22,2.19,1.08,3.33,2.7,3.55,1.79.23,3.58.6,5.38.66,19.4.66,38.82.92,58.21,2,39.37,2.13,78.77,3.6,118.13,5.73,20.53,1.12,41.15,1.35,61.68,3.51,2.6.27,6.73,2,6.82-4.44.08-5.63-3.63-5.24-6.52-6-16.19-4.41-32.31-9.33-48.58-13.19-9.2-2.19-18.21-6-27.68-6.29-5.89-.2-9.67-7.51-15.68-8.41-16-2.41-31.87-7-47.76-10.79-26.27-6.21-52.49-12.84-78.74-19.24-6.65-1.62-13.26-3.62-20-4.7-1-.16-1.94-.54-2.24-2.69,7.8-2.27,14.84,2.65,22.18,3.62,16.46,2.19,32.59,7.32,48.89,10.89C782,807,802.38,812,822.76,816.81c19.79,4.68,39.51,9.86,59.34,14.29,4.16.94,8.45,2.26,12.32,6.65,3.26,3.7,8.85,4.37,13.52,5.18,7.75,1.34,15.29,3.8,22.86,6.15,5.16,1.6,7.36-.15,7.29-7.69-.19-21.51-.09-43,.13-64.54.12-11.41.79-22.8,1.06-34.2.07-2.9.79-7.18-3.6-4.95-1.68.86-3-1.13-4.23-2.4q-18.6-19.41-37.13-38.93c-1.2-1.26-3.31-2.46-1.88-4.8,1.21-2,3-.12,4.29,1,11.3,10,22.59,20.05,33.8,30.27,1.81,1.65,4.39,2.85,3.84,7.22-.36,2.75,1.4,1.56,2.46,1.51,4.14-.21,6.44-3.68,8.22-8.1q7.89-19.63,15.8-39.26c.83-2.08,1.7-5.19,3.56-4.62,2.46.74,2,4.55,1.69,6.83-1.59,11.51-5.32,22.17-8,33.24-2.27,9.26-5.78,18.1-7.31,27.54-1.13,7,0,14.59.16,21.93.21,12.2.45,24.41.55,36.62,0,2.17.55,5.69-1.9,5.74s-2.69-3.45-2.8-6.07c-.58-14.79-1.09-29.59-1.88-44.37-1.68,12.72.51,25.28.77,37.92.33,16.14-.89,32.37,1.87,48.42.79,4.58,1.83,6.52,5.42,7.61,11.44,3.48,22.62,8.74,34.16,11.36,9.58,2.18,19.53,2.13,29.32,2.15,42.42.09,84.7,5.9,127.14,5.29a23.1,23.1,0,0,0,5.89-.54c-16.62.2-32.86-4.76-49.4-6-17.69-1.31-35.22-5.95-52.9-8.09-12.92-1.56-25.65-4.85-38.61-6.19s-26-5-39-7.64c-1-.2-2.31-.32-2.18-2,.19-2.43,1.61-1.47,2.78-1.29,17.22,2.62,34.59,4.1,51.61,8.12,12.58,3,25.44,2.36,37.86,6.72,4.39,1.53,9.12,1.49,13.7,1.82,14.94,1.08,29.84,3.56,44.6,6.06,16.41,2.77,33,2,49.31,6.56,7.78,2.16,16,1.52,23.92,1.68,14.64.29,29.09,2.92,43.66,3.88,27.8,1.83,55.62,1.39,83.44,1.93,3.57.07,7.12,1.28,10.69,1.84,2.44.38,5.07,2.16,6.74-2.4.78-2.15,2.68-1,3.72,0,4.09,4,8.74,3.16,13.31,3.18,36.84.17,73.69-.5,110.51.73,43.23,1.43,86.45.34,129.68,1.07a5.34,5.34,0,0,1,1.2,0c2.18.55,6-1.44,6,2.54s-3.85,2.46-6,2.49c-14.41.18-28.84.79-43.23.08-52.14-2.59-104.29-.88-156.43-1.67a6.53,6.53,0,0,0-2.9.44c19.51,2.21,39.31-1.76,58.61,4.42l-.06,2-91.91-2.83c9.17,7.86,18.76,15.87,28.2,24.2a262.65,262.65,0,0,1,23.45,23.39c3,3.41,5.63,5,10.08,2.56,15.5-8.35,31.32-15.69,47-23.42,1.51-.74,3.24-1.83,4.59-.55,2,1.87-.23,3-.89,4.37a3.21,3.21,0,0,0,.8,4.06c1.18,1.18,2.46,2.64,1.44,4.55-1.58,3-.22,9.33-3.46,9-3-.26-1.6-5.75-1.55-8.87.09-5.92-1.72-6.88-5.51-5-10.08,5.07-20.19,10-30.3,15-2.24,1.1-3.45,2.5-1.73,5.83a69.44,69.44,0,0,1,2.71,7.1c2.76-.45,2-3.39,2.26-5.49s-.31-5.72,2.32-5.24c2.31.41,1.64,3.79,1.58,6-.27,10-1.3,12.11-9.89,21.16-1.82-2.44-.26-4.9,0-7.26.5-5.68.45-11.19-2.73-15.73-2.12-3.05-4.51-2.33-6.32.18-2.11,3,1,4.65,1.87,5.35,4.17,3.37,5.4,6.71,1.67,12-.8,1.12-.36,4-2.26,3.89s-2.39-2.49-2.59-4.66c-.25-2.63-.07-5.43-.68-7.88-.85-3.37-2.45-6.27-5.71-5.45s-4.06,3.44-3.52,7.62c.67,5.22,1,10.52,1.33,15.8.13,1.81.32,4.13-1.54,4.51s-2-1.93-2.28-3.72a60.64,60.64,0,0,0-1.57-7.63c-1.14-3.57,1.19-9.33-2.07-10.65-2.36-1-5.61,1.88-8.46,3a5.73,5.73,0,0,0-1.69.76c-4.06,3.51-9.66,3.12-13,7.82-3.94,5.55,1.45,11.4.78,17.37a56.78,56.78,0,0,0,0,8.75c.23,5.35-3.65,2.48-5.32,4.46-1.46,1.71-2.84-1.7-3.08-4.2s-.36-5.29-.46-7.94c-.08-2-1.38-4.75.59-5.7,3-1.45,1.65,3.5,3.13,4.76.38-16.58-.3-17.18-11.46-10.46-5.76,3.47-6,6-2.34,12.8,2.43,4.52,1.26,10.63,2.93,15.8.63,1.94-1.67,2.22-2.94.71-1.81-2.14-1.85-5.14-2.41-8.09-.11,3.44-.16,6.88-.38,10.3-.11,1.84-.41,4-2.22,4s-2.3-2-2.39-3.84c-.14-3.13,0-6.28,0-11.37-1.27,5.18-1.93,8.46-2.89,11.58-.52,1.69-1.57,3.49-3.23,2.39-1.24-.83-1-2.63-.69-4.27s2.71-4.26,0-5c-1.87-.55-4.69,1.4-4.55,4.79.18,4.73-.71,4.84-3.1,2.22-.58-.64-1.49-2.08-1.85-1-2.79,8.58-10.76,3.68-14.52,10-.84,1.42-2.49,2.06-3,4.35-.88,4-2.07,6.72-4.07.67-.63-1.93-2-1-2.13.19-.56,7.2-2.28,5.79-6.55,3.64-3-1.48-7.25,3.35-10.62,6.24-4.16,3.56-6.46,8.25-5.26,15.22a13.89,13.89,0,0,1-.4,5.5c-.69,2.73-.47,7.65-3.76,6.5-3-1-.16-4.43-.13-6.77,0-3.18.32-6.36.31-9.54,0-1.65.66-4.31-1.41-4.39-1.78-.07-2.92,2-2.85,4.32.08,2.89.61,5.76.83,8.66.25,3.42.73,6.92-.17,10.26-.6,2.21-1.32,4.69-3.29,5.31-2.57.81-2.19-3-3.19-4.43-2,1.08-.87,5-3.71,5.41a21.86,21.86,0,0,1-.08-12c.43-1.83,1-3.45.29-5.27-.55-1.32-.67-3.41-2.19-3.3s-1.62,2.06-1.67,3.62c-.09,2.65,0,5.31-.12,8-.06,1.51.15,3.58-1.39,3.87s-1.63-1.81-2.22-3.13c-1.14-2.58,1.47-8.93-3.52-7.51s-1.61,6.19-1.43,9.63c.11,2,1,4.57-1,5.65-1.83,1-2.07-1.87-3-3-1.63-2-1.09-8-5.14-5.46-3.51,2.2-1.16,5.9-.77,9.06a27.89,27.89,0,0,1,0,3.53c-1.19,1-1.68.19-2.26-.55-1.61-2-1.52-8-4.33-6.17-2.61,1.65-3.31,6.87-2.71,11.14.38,2.78,2.16,6.2-.82,7.41-2.79,1.13-3.45-3-4.13-5.55-1.77-6.7-4.37-8.79-9.32-4.62-5.55,4.68-13.32,4.69-16.67,14.07a1.65,1.65,0,0,1-1.56.86c-5.73-1.53-10-1-8.54,9.28a2.54,2.54,0,0,1-1.61,2.92c-1.39.41-2.37-.75-3-2.11-1.68-3.75-3.52-4.07-6.35-1.76-3.65,3-.42,5.26,0,7.89s3.49,5.29.68,7.62c-3.24,2.69-4.51-1.87-5.91-4.46-1.73-3.18-2.78-7.67-6-4.55.71,1.39,1.79,2.75,2.18,4.39.8,3.44,2.31,8.25-.68,10-3.16,1.82-3.17-3.34-4-6.07-.67-2.16-1.11-5.29-3.51-4.12-2.89,1.4-.79,3.9-.11,5.79s2.13,3.58.49,5.63-2.91.93-4.15-.79c-.54-.75-1.18-1.64-1.85-.24-2.91,6.1-4.45,3.11-5.86-1.46-.66-2.13-1.92-1.56-3-.69-2.1,1.73-5.17,2.2-5.21,6.76,0,5-.08,10.09-.15,15.14a72.27,72.27,0,0,1-.31,8.73c-.38,2.78-.94,6.43-3.71,6.13-2.61-.29-2.33-3.83-2.35-6.41-.08-7.35,0-14.71,0-23.14-7.86,4.83-15.22,9.41-22.61,13.88-13.63,8.24-27.29,16.4-40.93,24.62-3.9,2.35-6.61,15.61-4.12,19.78.71,1.18,1.38.17,2.07.21,2.85.17,7.07,6.84,6.39,10.16a3.84,3.84,0,0,1-1.48,2.22c-1.11.73-1.87-.1-4.83-4.82-.12,2-.19,3.42-.29,4.84-.17,2.49-.56,5.11-2.79,5.37-2.7.31-3.09-2.67-3.44-5.34-.71-5.49-1.33-11-2.1-16.47-.41-2.9,1.19-8-3.48-6.79-3.53.94-6.68,2.92-5.5,9.1,1.81,9.48,3.58,19,5.54,28.41.64,3.12,1.88,6.55-.1,9s-5.07.89-7.28.32c-2.49-.64-1.39-4.93-1.59-7.69-.68-9.66,1.73-19.69-2-29a20.61,20.61,0,0,0-1.16-2.16c-2.91,4.14-3.38,9-3.43,14a181.36,181.36,0,0,1-3.6,36.12c-.51,2.4-.82,5.15-3,5-2.44-.11-3-2.88-3.25-5.71-.68-7.85,2.12-15,2.48-22.75.31-6.75.57-13.76,3.16-21.76-6.59,1.82-11.46,5.52-16.17,9.44-1.79,1.49-1,4.2-.43,6.57a78.69,78.69,0,0,1-1.71,41.9,38,38,0,0,1-2.88,6c-.93,1.82-2,3.6-3.91,2.28s-1.82-3.6-1-6.14c3.63-11.93,5.78-24.16,4.79-37.21-.68-8.93-2-10.11-8.24-6.18-.54.34-1,1-1.57,1.15-16.62,3.91-18,20.77-18.61,38.35-.15,4.22.93,11.33-3.29,11.12-4.92-.25-2.77-7.49-2.94-11.8-.25-5.83,2.37-11.1,2.2-17.14-.15-5.2-1.42-6.35-4.63-3.81-6.75,5.34-14.61,7.45-21,14.39-2.64,2.86-8.1,2.51-11.84,5.58-.89,3.72,5,4.3,2.45,8.22-1.28,2-3.22-.9-5.48-2,.62,9,.46,17.53,2,25.53,1.47,7.69,1.25,15.24,1.39,22.88.05,2.93,0,6.55-3,6.61s-3.3-3.58-3.15-6.47c.42-8.36-2-16.23-2.14-24.44-.18-7.89,0-15.79,0-24.61-8.24,11.14-11.06,28.94-7.34,44.56,1.37,5.78,1.21,12.68,6.61,15.91,1.92,1.15,2.17,4.91,2.79,7.71a4.26,4.26,0,0,1-.45,3.71c-1,1.25-9.82-1.23-10.31-3.08-3.77-14.26-7.13-28.6-4.51-44.06a95.92,95.92,0,0,0,1-11c.1-2,1.52-4.72-.22-5.8-1.94-1.2-3.77.85-5.27,2.7a13.14,13.14,0,0,0-2.55,7.85c-.17,3.44-.28,6.89-1.43,10.09l.07-.08c-1.81,10-2.19,20.41-4.57,30.29-.73,3-.76,6.34-1.54,9.32-.93,3.51-1.16,9.48-4.8,8.55-4.55-1.16-2.17-6.33-1.74-10.43,1.56-15,5.1-29.38,8.18-43.9.42-2,1.35-4.38-.19-5.91-1.22-1.21-2.68.34-3.92,1.09-6,3.65-12,7.33-17.92,11.1-7,4.46-5.45,13.94-6.61,21.52-.89,5.89-.23,12.18-.35,18.28a61.42,61.42,0,0,1-.53,8.72c-.47,2.92-.5,7.24-3.8,6.8-2.64-.35-3-4.11-3-7a266.63,266.63,0,0,1,2.09-31.62c.37-2.8,2.14-6.06.2-8.16-1.67-1.81-3.65.89-5.43,2-3.8,2.35-7.62,4.68-11.5,6.83-7.57,4.2-8.12,5.76-5.52,16.21.49,2,.83,4,1.32,6.46,1.11-5,1.31-9.85,3.21-14,.67-1.47,1.06-3.84,3-3,1.43.63,1.39,2.45,1.17,4-1.06,7.77.12,15.85-2.44,23.51a43.86,43.86,0,0,0-1.82,15.61c.11,2.64,0,5.85-2.72,6.06-2.21.18-2.7-2.68-3.25-5a164.28,164.28,0,0,1-3.9-29.66c-.61-10.91-2.2-12.1-9.46-7.5a83.64,83.64,0,0,1-10.4,6.12c-5.14,2.27-6.32,6.3-5.73,13.36,1.56,18.93,5,37.61,4.55,56.78-.09,3.74,1.91,10.32-2.48,10.43-3.91.09-3.58-6.46-4-10.9-1.85-20.49-.61-41.33-4.48-62.48-8,5-16.12,9.84-24,15.29-3.43,2.38-4,16-.83,18.86,2.27,2,2.78,5,3.9,7.71.84,2,2.26,4.51-.14,6.08-2.24,1.48-3.15-1.22-3.94-3.38a38.56,38.56,0,0,1-1-3.82c-1.24,1.62-1.57,5.06-3.9,4.1s-2.61-3.95-2.58-6.59c0-4,.5-7.92.68-11.89.08-1.78.42-4.05-1.33-4.76-1.4-.57-2.75.44-3.82,1.71-2.1,2.51-2.48,5.86-2.6,9.42a194.66,194.66,0,0,1-3.67,29.72c-.47,2.46-1.06,4.92-3.4,4.41-2.09-.45-2.72-2.81-2.83-5.4-.31-7.82,2.75-14.87,2.88-22.63,0-3.1,1.17-6.16.15-9.74-6.8,2.26-12.29,5.61-12.74,16.68-.16,4.09-1.74,8.1-2.81,12.08-.53,2-1.22,4.29-3.22,4s-2.2-2.75-2.29-4.88c-.21-5.07,0-10.07,2.4-15.23-4.63-.72-7.58,2.29-9.8,5.46-2,2.8-2.39,7-6.66,5.68-1.84-.56-1,3.34-1.45,5.2-.66,3-.28,7.41-3,8-3.24.68-3.25-3.81-3.73-6.78-.52-3.18-2.06-4.63-3.71-2.34-5.49,7.66-13.32,8.26-20,12.29-2.73,1.65-3.47,4.14-3.09,7.62.75,6.81,1.41,13.65,2.44,20.38.5,3.28.47,6.26-1.94,7.42-2.78,1.34-2.92-2.38-3.77-4.64-2.74-7.3-2.28-15.49-3.68-23.75-12.27,5.59-23.37,13.68-35.37,21.7,11.27.56,10,11.28,11.09,20.51,1.4,12.07,2.87,24.1,3.44,36.3.3,6.44-1.55,9.13-6.56,9-11.21-.3-22.43-.25-33.64-.07-4.45.08-6.55-2.22-6.93-8.24-.53-8.45-1.34-16.89-2.42-25.25-.45-3.49.14-9.41-4.27-8.66-4,.7-8.43,2.6-8.68,9.92-.14,4,0,8-1.14,11.78-.37,1.22-.7,2.77-1.87,2.79-1.59,0-1.56-1.88-1.92-3.37-.92-3.69,1.92-9.35-2.29-11-2.83-1.11-5.61,2.23-8.33,3.84-3.1,1.83-6.07,4.09-9.24,5.62-1.59.76-4,4-5.1.11-.93-3.29,2.15-3.82,3.8-4.88,5-3.24,10.07-6.49,15.23-9.32,4.22-2.31,6.31-5.8,6-12.12-.32-6.08-.17-12.22,0-18.32.14-4.43-.93-7.67-3.85-9.95-12.65-9.88-21.79-25.44-33.63-36.71-4.63-4.41-8.65-7.25-14.06-2.61-2.76,2.36-3.13,4.34-.67,7.22,5.54,6.48,10.9,13.27,16.64,19.44,10.4,11.19,20.35,23.06,30.11,35.21,1.3,1.61,4.11,3.57,2.3,6.28s-3.44-.82-4.8-2.38c-13.15-15.09-26.33-30.13-39.33-45.44-3.34-3.94-4-2.52-4.57,2.37-.88,7-2.14,14-3.41,20.93-.53,2.86-1.47,6.06-4.34,5.17-2.4-.75-2.74-3.85-2.28-6.52,1.44-8.49,2.88-17,5.68-25,.64-1.82,3.93-2.19,1.94-5.46-1.82-3-4-5.23-7.17-4.8-7.53,1.05-11.62,7.83-10.55,17.8.33,3.11-.25,5.65-2.35,6.43-2.56,1-2.94-2.77-4.24-4.59-1.49-2.08.71-8.18-3-6.8s-8.28,2.63-9.26,9.74c-1.19,8.67-1.42,8.62-6.41,3.42-2.39-2.48-9.86,1.17-11.39,6.16s-2.18,9.89-7.21,4.32c-1.63-1.79-3.36.9-4.86,1.9-13,8.72-26,17.58-39,26.42-1.88,1.28-3.62,3.18-7,2.23,4.91-5.85,10.18-8.75,15.1-12.28,9.84-7.07,19.75-14,29.8-20.51,4.76-3.08,7-7.25,6.44-14.34-.94-11,1.67-21.52,2.4-32.3.12-1.86.44-4.08,2.16-4.17,2-.09,1.64,2.42,1.93,4.13,1.55,9-.31,18,.09,27,.14,3.08-1.67,7.31,1.72,9,2.09,1.06,9.15-6.05,9.45-9.26s.08-6.37.29-9.54c.93-14.42-2.13-29.22,2.38-43.31.77-2.39-.38-3.89-1.69-5.37q-31.8-35.71-63.54-71.48-23.54-26.42-47.18-52.64c-6.26-7-12.63-13.72-18.75-20.36-2.38,1.24-1.72,3.41-1.69,5,.36,17.51,1,35,4.18,52.12,1.06,5.78,2.47,11.75-1.24,17.37-1.08,1.64-.83,5.07-.83,7.68,0,16.2.11,32.4.06,48.6,0,2.69,1,7.29-1.68,7.43s-2.9-4.7-3-7.66c-.29-13.21-.19-26.43-.39-39.64q-.71-46.43-1.56-92.84c-.06-3.4-8.53-16.71-11.23-17.45-3.23-.9-2.43,2.76-2.3,4.63.75,11.4,0,22.78,0,34.17-.22,30.81-.18,61.62-.3,92.43,0,7.67-.34,15.35-.42,23-.06,6,2.11,8.12,6.72,8.17,8.39.08,16,3.83,22.52,11.08a21.54,21.54,0,0,1,4.08,6.81c1,2.64,2.62,5.22.06,7.65-2.26,2.14-3.67-.36-5.05-2.25-6.19-8.5-12.67-16-22.25-17.12-3.93-.47-6.59.16-7.85,5.93l-1.56-.56c-.22-8.4-.6-16.8-.64-25.21-.17-35.7,1.17-71.41-.46-107.1-.58-12.77.27-25.49.88-38.19.37-7.72-1.13-13.45-6.24-17.38-2.88-2.21-4.75-6.39-7.91-7.72-1.37,1.11-1.17,2.54-1.19,3.79-.67,44.9,1.32,89.74,1.45,134.62q.09,33.07,0,66.17c0,2.12.67,5.7-1.94,5.58-2.23-.1-2-3.49-2.13-5.79-.77-13.23.11-26.47-.8-39.77-2.86-41.52-1-83.21-1.72-124.82-.26-14.59-.86-29.17-1.14-43.76a11.94,11.94,0,0,0-3.52-8.65c-30.6-32.82-61-66-92.17-97.85-12.16-12.41-23.87-25.54-36.42-37.34-5.35-5-10.12-11.45-16.68-17.7,0,9.71.07,17.83,0,26,0,2.79.27,7-2.56,7-3.14,0-2.19-4.37-2.19-7,0-7.95-.51-16,1.2-23.77.82-3.76.36-6.58-2.27-8.87s-4.6-5.19-7.15-7.24c-2-1.61-3.55-6.09-5.8-4.69-3,1.84-1.48,6.68-1.53,10.19-.17,10.62,0,21.24-.09,31.87,0,2.72.77,7.29-1.86,7.43-3,.15-1.94-4.47-1.95-7-.07-14.34-.14-28.69.26-43,.13-4.61-.86-7.39-3.59-10-4.23-4-8.71-7.79-12.23-12.74-9.19-13-20.82-9.74-32-9.53-3.06.06-3,2.86-2,5.65,6.1,18.44,12.27,36.85,18.37,55.29,3.76,11.39,7.45,22.83,11.19,34.23.64,2,1.85,4.64.2,5.71-2.21,1.44-2.93-2.11-3.54-4-5.26-16-10.34-32.15-15.49-48.24q-7.14-22.31-14.31-44.59a6.7,6.7,0,0,1-.49-1.45c-.23-3.16-5.65-1.82-3.51-6.61,1.66-3.71,4.76-1.61,7.23-1.67,5.59-.15,11.19,0,16.51,0,.89-1.79.19-2.46-.42-3.08q-17.34-17.68-34.7-35.33c-2.16-2.2-4-3.9-4.91,1.54-.25,1.63-1.43,2.75-2.74,2.4s-1.93-2.49-1.41-3.78c2.64-6.55.25-10.69-5.7-14.61,5.21-1,10.84.53,9.46-6.55-2.21-11.32,2.61-16.16,8.5-21.12,2.29-1.93,1.56-4.52-.26-6.58q-13.41-15.25-26.86-30.47c-1.83-2.06-4.17-1.48-6.35-1.66-22-1.81-44-1.61-66-1.57-2.62,0-5.61.81-8.48-5C26,793,50.2,792.44,75.3,792.58c-10.46-15.29-23-26-32.62-40.87,4.86,1.47,8.22,5.78,11.72,9.8q12.2,14.07,24.37,28.17A9.15,9.15,0,0,0,84.68,793c21.51,3.21,43.11,2.36,64.69,2.56,24.81.23,49.6,2.52,74.42,1.42,1.72-.07,6.68,4.56,5.54-4.18-.22-1.73,2.06-.56,2.77.37,3.18,4.21,7.15,3.95,11.19,4.26,20.16,1.54,40.31,3.3,60.55,3,5.63-.06,7.57-2.46,7.07-9.65-.33-4.74,0-9.56-.11-14.33-.07-2.18.91-5.21-1.43-6.18-.88-.36-2.76.58-3.13,1.59-1,2.77,2.56,2.91,1.88,7.6-10.69-11.92-22.34-6.31-35.15-2.62,2.6-4.72,5-4.75,7.3-5a13.6,13.6,0,0,0,6.85-2.55c3.16-2.35,3.86-4.16.28-7.13C275,752,262.79,741.45,250.51,731c-1.65-1.41-3.71-2.2-4.48-5,.15-.25.31-.49.47-.74,11.26,7,21.22,16.82,31.82,25.24,5.31,4.21,10.54,8.61,15.72,13.09,2.35,2,4.39,2.38,7.22,1.06,9.51-4.45,9.93-4.23,9.51-17.86-2.73-86.78-1.15-173.63-2.5-260.42-.76-49.13-.59-98.25-1.08-147.36-.05-4.9.19-9.28-4.5-11.31-4-1.74-2.3-7.18-2.74-11.15-.3-2.69.95-6.47-1.91-7.55a5.41,5.41,0,0,0-6.64,2.44c-3.57,7.27-8.57,7.4-14.39,8.7-11.15,2.5-22.3,5.36-33.46,7.94-19,4.39-38.15,7.95-57.34,11.09-21,3.43-42,6-63,8.54-5.41.65-10.82.71-15.82-3a5.53,5.53,0,0,0-6.92,0c-3.12,2.19-6.63,1.82-9.91,2.94-1.49.5-3.47,1.13-4.23-1.41-.87-2.91,1.37-3.36,2.64-4.34A79,79,0,0,1,109.54,331c20.73-7.86,41.58-15.22,62.56-21.9a500.61,500.61,0,0,1,48.72-12.91c23.47-4.94,47-9.65,70.78-10.8,4.71-.23,8.82-.84,9.44-8.89.27-3.48,2.7-5.05,5-6.22,5-2.52,7.09-7.21,6.36-14.31-.3-2.87.06-5.85-.15-8.75a30.79,30.79,0,0,1,3.94-18.64c4.43-8.07,6.18-18.76,8.9-28.42,10.13-36,22.09-71,35-105.38,7.09-19,14.78-37.54,19.95-57.69,2.21-8.59,8-12.93,13.1-18C395,17.3,396.2,19,395.59,22c-4.74,23-9.44,45.92-14.32,68.82-3.9,18.31-8.16,36.49-12,54.81a774.11,774.11,0,0,1-27.58,97.27c-2.54,7.2-5.55,14.24-7.23,21.79-1.23,5.52-2.38,11.81-.67,17.64a40.83,40.83,0,0,1,1.09,17.23c-.75,5.27.78,7.75,3.77,10.23,5.82,4.82,11.74,8.89,18.81,9.49,2.35.2,6.31.21,2.28,6-1.59,2.29,1.44,5.06,2.66,7.15,13.37,22.81,27,45.34,40.31,68.21,18.56,31.92,36.4,64.51,50.37,100.49,1.1,2.83,2,5.77,3.07,8.63.61,1.66,1.68,3.66,0,4.86-1.88,1.37-2.8-.82-3.6-2.77-4.69-11.4-9.2-22.93-14.14-34.13-12-27.27-26.21-52.57-40.82-77.47q-21.51-36.66-43-73.35a10.87,10.87,0,0,0-4.2-4.16c-3.82-2.23-7.5-4.87-11.28-7.23-1.55-1-3.29-3.26-4.91-1.27-1.86,2.27.13,4.41,1.1,6.17,3.41,6.21,6.78,12.49,10.49,18.37q46.76,74.1,93.59,148.13c2.28,3.62,7.05,8.86,3.68,12.48s-6.11-4-8.39-7.46c-15.31-23.05-30.36-46.39-45.52-69.61-15.54-23.82-31.14-47.57-46.62-71.47-4.13-6.38-7.91-13.16-12.46-19.56,3.17,17.78.67,35.76,2.22,53.49a54.12,54.12,0,0,1,.49,6.33c-.82,30,2.59,59.79,2.86,89.78.17,17.74,0,35.65,1.4,53.28,2.65,34.37,1.57,68.93,3.74,103.21,1.87,29.56,1.25,59.23,3.72,89.31,5.93-4.62,10.51-10.8,15.34-16.62,3.27-3.93,5.44-11.65,11.05-1.22,4.46,8.29,12.2,13.45,18.41,20.12,8.68,9.32,17.4,18.61,25.91,28.21,3.11,3.51,5.88,6.33,10.07,3.11,1.41-1.09,3.06-.63,4.69-.28,2.82.61,2.84.46,3.12-4.6l4.25,3.73Zm-136.95,314q21.21,23.09,42.41,46.16c1,1.13,2.33,2.77,3.61.85,1-1.53.58-3.61-.32-5.12a22.48,22.48,0,0,0-3-3.85c-8.83-9.45-17.64-18.93-26.54-28.26-4.75-5-9.06-11.48-16.14-9.82-.32-3.67.54-7.07-2.65-10.34-17-17.43-33.75-35.43-50.47-53.39-2.72-2.93-5.33-3.9-9.9-2Zm348.6,145.53c-25.48-24.17-49.86-47.26-74.19-70.41-2.22-2.12-4.51-3.53-7.25-2.8-12.51,3.37-25,6.81-37.52,10.21q-24.87,6.75-49.76,13.5c-11.64,3.19-23.26,6.47-35.13,9.78,3.38,7.15,8.61,10.36,12.81,15.12q31.42,35.6,62.87,71.15c1.88,2.13,3.49,2.3,5.94,1.28,12.35-5.12,24.81-9.84,37.25-14.62,22.77-8.74,45.56-17.38,68.33-26.15C637.57,1223.67,642.78,1221.27,648.93,1218.65Zm751.65-269.3c2.91-.7,6.93,0,7.77-4.18s-3.07-5.58-5.14-7.77a389.45,389.45,0,0,0-42.94-39.18c-5-3.94-9.68-9.39-16.18-9.59-30.58-.94-61.2-.92-91.73-3.84-14.38-1.37-28.78-.82-43.16-2.17-13-1.22-26.09-.26-40.17-.26a50.73,50.73,0,0,0,3.69,3.74c21.15,16.5,42.38,32.82,63.41,49.57,4,3.2,7.61,3.81,11.87,1.76,3.2-1.54,6.6-2.92,10.14.71-3.72,4.37-8.45,1.71-13,4.63,14.4,11.09,28,21.55,41.6,32.07,1.41,1.1,2.61,1.9,4.43,1.15,12.75-5.2,25.54-10.22,38.32-15.28,1-.38,1.94-.64,3,2-12.16,7.26-25.29,10.85-38.56,17.65,2.48,1.89,3.76,3.5,5.22,3.84,3.57.86,6.16,12.4,10.87,2,0-.1,1.29.33,1.4.78,1.28,4.88,3.73,1.82,5.36,1.06a145.68,145.68,0,0,0,13.29-7.22c23.47-14,47.45-26.27,71.48-38.44,1.11-.56,2.34-1.69,3.21,0,1,2.06-.14,3.41-1.35,4.52C1402.48,947.7,1401.53,948.52,1400.58,949.35ZM326.64,875.63c-4.51-6.59-3.91-15-4.9-22.84-.32-2.51.38-6.46-2-6.7-2.65-.26-1.91,3.83-2.33,6.19-.36,2-.21,4.85-2.2,5-2.34.2-2.61-2.61-2.86-5.07-.32-3.22.56-7.82-3.28-8-9-.31-18.08-.1-27.75-.1,3.2,6.19,7.43,8.93,11,12.69,13.37,14.27,26.89,28.3,40.34,42.43,1.87,2,4.32,3.57,5.73.6,1.19-2.49-1.79-3.47-3-4.89-4.14-4.8-8.43-9.38-12.66-14l1.32-2c5.88,5.8,11.94,11.3,17.56,17.5a12,12,0,0,0,9.81,4.44c32.22-.28,64.43-.32,96.65-.58,4.85,0,9.7-.81,15.45-1.32-10.05-12.43-21.79-20-29.94-33.17,14.12,8.66,24.86,24.44,39.42,32-3.32-7.37-9.77-10.27-13.79-18.15,3.59.37,5.27,3.2,7.45,4.7,6.71,4.6,11.27,13.81,20.3,13.58,26.8-.7,53.62-.42,80.44-.58,1.57,0,3.38.73,4.82-.87-3.9-6.9-10.73-8.72-14.15-17.18,10.55,4.3,16.23,19.85,29.49,17.71-12.11-11.46-22.29-23.81-34.25-32.85-8.16-6.17-16.73-10.78-26.56-10.74-21.2.08-42.39,0-63.57-1.93-14.76-1.34-29.57-1.53-44.35-2.38-22.37-1.29-44.82.71-67.15-2.71-2.95-.45-4.07,1.49-3.28,5.31,2.18,10.44,1,21.12,1.24,31.7.06,2.63.69,7-2.45,6.78-2.91-.15-2.24-4.35-2.37-7.09-.36-7.41-.32-14.87-.92-22.24-1.31-16-1.44-15.83-13.86-15.61-4.41.08-5,2-4.79,7.69C325.55,860.56,328.4,867.71,326.64,875.63ZM551.8,1126.44c-10.31-8.7-18.41-18.76-27.6-27-12.86-11.62-25.18-24.28-37.73-36.48-1.42-1.38-2.67-3.08-4.79-2.55-9.44,2.35-19.06,2.66-28.55,4.21-30.69,5-61.33,10.56-92.17,13.85-1.8.2-4.14,0-4.9,2.18-1,2.79,1.65,3.9,2.86,5.24q30.51,33.84,61.22,67.38c2.45,2.68,5,4.21,8.73,3.22,6.43-1.71,12.9-3.26,19.35-4.79,20.94-5,41.91-9.62,62.77-15.2C524.16,1132.92,537.42,1129.94,551.8,1126.44Zm626.29-178.65c0-.45.07-.9.1-1.35-7.41-3.51-14.72-7.51-22.26-10.43-13.18-5.09-26-11.56-39.27-16.51a234.45,234.45,0,0,1-24.15-10.65c-9.81-5-19.92-8.21-30.88-8-28,.57-56,1.06-84,1.75a26,26,0,0,0-14.39,4.29c-7.46,5-15.08,9.48-23.1,14.49,3.64,3.32,7.18,6.23,10.43,9.62s6.87,3.73,11.08,3.8c15.43.27,30.59-4.29,46-3.77a80.37,80.37,0,0,0,17.36-1c2.47-.46,7.14-2.29,7.31,1.5.2,4.59-4.4,2.91-6.89,2.92-21.13.09-42,4.73-64.59,5.48C973,950.64,984,960.07,994.76,970a13.76,13.76,0,0,0,10.6,4.1c10.39-.45,20.54-3.72,30.85-4.59,6.67-.56,12.91-4.1,19.77-3.44,4.26.41,8.35-2.4,13-2.47,12.48-.18,24.94-2.72,37.41-4.44,1.25-.18,2.89-.2,3.3-3.25a559.12,559.12,0,0,1-52-50.24c5.09,1.6,8.92,5.84,12.93,9.61,9,8.44,18.67,15.54,27.26,24.76,10.67,11.44,21.7,19.69,36.64,15,11.36-3.55,23.28-4,35-5.83C1172.35,948.82,1175.22,948.29,1178.09,947.79ZM120.75,833.93c1.81,2.84,2.33,4,3.09,4.79,18.57,19.16,37.1,38.37,55.81,57.28,3,3.06,5.75,7.06,10.41,7,41.19-.44,82.38-.6,123.57-.86,2.6,0,5.2,0,7.79-.19,1.39-.09,3.17-.14,3.74-1.94.88-2.78-1.37-3.34-2.51-4.57q-20.89-22.53-41.8-45c-4.9-5.29-10-8.55-16.78-8.76-22.78-.69-45.53-2.8-68.32-2.64-11.81.08-23.52-1.87-35.29-2.6C147.74,835.64,135,834.83,120.75,833.93Zm345.5,208.59c-15.65-15.67-31.28-30.85-46.47-46.75-6.54-6.84-12.82-11.25-21.69-10.34-27.68,2.85-55.42,4.88-83.16,6.7-10.79.7-21.45,3.61-32.3,3-1.35-.08-3.05-.12-3.67,1.94-.75,2.53.89,3.75,2.08,5.13.9,1.05,1.73,2.22,2.66,3.21Q305.86,1029,328,1052.53c5.66,6,10.48,10,19.33,8.66,21.53-3.32,43.1-6.82,64.74-9.19,16.67-1.83,33.3-4.25,49.94-6.41C463.42,1045.41,464.89,1045.5,466.25,1042.52Zm293.51,132c-22.39-20.37-44.29-40.26-66.14-60.23-1.59-1.45-3-2.31-5-1.51-5.36,2.18-10.95,3-16.42,4.4-20.12,5.31-40.16,11.16-60.23,16.78-7.61,2.13-15.41,3.24-24.14,7.6,25,22.72,48.89,44.29,72.64,66.09,4.23,3.88,8,4.56,12.75,1.63,4.47-2.73,9.48-3.92,14.26-5.74,18.56-7.07,37.23-13.69,55.62-21.46C748.53,1179.78,754.61,1179.62,759.76,1174.5Zm-96.22,61.87c.93-.21.12-.14-.64.17q-24.06,9.7-48.11,19.46c-22.3,9.11-44.59,18.31-66.89,27.43-2.08.85-5,.66-5.57,3.78s2.15,4.76,3.69,6.55c13.07,15.19,26.3,30.13,39.32,45.38,3.19,3.73,6.18,3,9.37.87,23.46-15.33,47.55-28.77,71.57-42.41,11.92-6.77,24-13,36-19.62,1.78-1,4.13-2.28,4.77-4.26.82-2.51-1.86-3.62-3.22-4.88-11-10.15-22-20.15-33-30.25C669.08,1237,667.42,1235.67,663.54,1236.37Zm426.29-183.91.9,3.85c29.87-10.37,59.17-23.4,90.47-35.9-2.13-1.7-2.84-2.21-3.5-2.8-16.7-15-33.78-29.37-49.93-45.37-8.38-8.32-16.76-10.72-26.3-7.48-12.5,4.24-26.18-.2-37.93,9.23-4.75-5-9.61,1.7-14.69-.41-5.36-2.22-10.18,4.35-16.45,2.75-6.61-1.69-13.86,1-20.82,1.85-1.32.17-2.84.34-3.6,2.83,9.48,10.29,20.59,17.53,30.3,27.44,3,3,5.75,3.85,9.43,2.82,17.53-4.88,35.12-9.4,52.68-14.08q14-3.75,28.07-7.61c1.19-.33,2.71-1.12,3.11.73.57,2.57-1.39,2.84-2.66,3.2q-22.8,6.62-45.63,13.1c-11.52,3.28-23,6.54-35.63,10.11,12.18,10.75,23.31,20.55,34.42,30.4,1.23,1.09,2.49,1.84,3.93,1.27,5-2,9.85-4.26,14.85-6,8.68-3,17-7.78,26.28-7.9C1115.57,1043.58,1101.91,1045.32,1089.83,1052.46Zm-418.61,44c.15-.72.3-1.43.44-2.15l-56.85-52.59a5.34,5.34,0,0,0-5.17-1.43c-11,3-22.18,3.58-33.26,5.38-19.41,3.16-38.76,6.8-58.26,8.93-5.19.57-10.3,2.17-16.55,3.54,19.38,18.9,37.56,36.94,56,54.4,3.89,3.67,7.35,10,12.86,9,9.27-1.65,18.47-4,27.67-6.36,15.42-3.92,30.8-8.1,46.21-12.08C653.3,1100.75,662.27,1098.62,671.22,1096.41ZM318.71,479.36c.52,35.76,0,81.89,1.55,128.08,1.65,48.47.76,97.11,1.93,145.67.46,19.34-.67,38.77,2,58,.82,5.93-1.69,13.17,1.45,17.74s8.87.82,13.22,2.67c3.66,1.55,4.38-.31,4.5-4.87.25-9.37-1.68-18.44-1.93-27.63-1-35.21-1.55-70.4-3.47-105.59-1.88-34.56-1.72-69.28-3.57-103.94-1.95-36.43-1.58-73.06-3.6-109.58-1.29-23.21-1.88-46.64-1.77-70,.11-22-3.51-43.79-2.44-65.86.14-2.92-.1-6.35-3.1-6.53-2.74-.16-3,3.28-3.2,5.72-.67,9.5-1.43,19-1.48,28.54C318.6,404.18,318.71,436.58,318.71,479.36ZM428.41,982.7a6.55,6.55,0,0,0,2.45,5c14.82,14.77,30,29,44.32,44.55,7.42,8.07,14.94,9.81,23.84,8,18.11-3.67,36.41-5.46,54.6-8.2,14.39-2.18,28.85-4.12,43.79-6.13-.94-1.07-1.62-2-2.39-2.68-16.44-15.53-32.9-31-49.3-46.6-2-1.93-3.9-3.16-6.57-2.75-21.28,3.23-42.7,3.37-64,5.37C459.62,980.77,444.18,983.19,428.41,982.7ZM203.6,920.55c8.22,8.59,14.93,15.65,21.69,22.61,1.17,1.19,2.68,3.43,4.12,1,2.43-4.12,5.72-3.35,8.82-3.23,10.79.4,21.57,1.13,32.35,1.56,4.05.16,5.78,2.7,5.71,7.93-.08,5.84.17,11.7-.1,17.52-.33,6.73,1.41,9.36,6.82,9.36,6.47,0,12.67-2.89,19-2.82,27.41.32,54.59-5.08,82-5.37,2.21,0,4.73.42,6.49-3.15-11.7-12.16-23.47-23.58-34.51-36.14-7.84-8.92-15.65-12.25-26.41-12-38.19.85-76.37,3.58-114.58,2.74C211.76,920.48,208.59,920.55,203.6,920.55ZM624.23,1380a37,37,0,0,0,4.21-1.92c23.21-14,46.39-28.11,69.6-42.1,13.61-8.19,27.28-16.18,40.87-24.4,1.89-1.14,4.69-1.75,4.9-5.06s-2.57-3.62-4.15-5.06c-7.39-6.74-15-13-22.13-20.3-3.65-3.72-6.74-3.41-10.47-1.29-21.82,12.36-43.71,24.5-65.48,37-15,8.63-29.8,17.87-44.76,26.64-3.65,2.13-3.45,4.23-.79,7.27,7.09,8.12,14.1,16.36,21.24,24.39C619.19,1377.37,620.87,1380.41,624.23,1380Zm-99-422.78c-11.08-10.5-21.16-18.68-30-28.78C485.65,917.55,475.52,914.25,463,915c-24.74,1.45-49.55.6-74.34.86-6.58.07-13.17.71-19.75,1.17-1.32.09-3.15-.42-3.61,1.81s1.43,2.91,2.29,4.27a12.29,12.29,0,0,0,1.77,2.13q18.48,18.82,37,37.62c3.07,3.1,6.34,6,10.43,3.93,4.24-2.14,8.62-2.22,13-2.14,26.16.47,52.1-5,78.25-5.22C513.16,959.36,518.26,958.15,525.2,957.24Zm707.08-17.35c-.65-2.89-2.18-3.75-3.51-4.79-19.94-15.64-40-31.12-59.82-46.93-6.48-5.15-12.93-9.55-20.78-8-7.59,1.47-15.16-.55-22.7-.82-11.51-.42-23-2.12-34.58-2-8,.1-16-.28-24-.77-19.16-1.18-38.31-2.56-57.47-3.86,12.91,5.42,25.91,10.13,38.91,14.87,7.48,2.74,14.92,7.61,22.45,7.9,22.63.88,45.36,1.11,67.92-1,5.9-.55,12.11,2.89,18-1.11,1.29-.88,4.32-.69,4.44,2.24.15,3.6-2.67,2.29-4.19,2.32-7.51.19-15,.09-22.1.09-1,2.82,2.38,2.91,0,6-3.87-7.08-9.18-6.15-14.63-4.65-3.2.87-6.33,3.59-9.75.71-.66-.56-2,.2-1.83,1.25,1.27,7.5-2.81,3.15-3.74,2.5-5.68-3.95-11.62-2.88-18.73-2.6,14.59,8.52,29.43,10.91,43.08,18.56,13.36,7.48,27.37,13,41.27,18.66,6.06,2.46,11.63,7.07,18.31,7.11C1203.46,945.63,1217.6,940.5,1232.28,939.89ZM839.12,1144.27c-.13-2.54-1.31-3.13-2.29-4-16.05-14.29-32.28-28.22-48-43.06-6.8-6.4-13.14-9.53-21.31-5.35-4.21,2.14-9,2.42-13.44,3.62-14.71,4-29.4,7.92-44.29,11.94,2.15,4,5.15,5.3,7.62,7.46,19.17,16.67,38.44,33.12,57.67,49.65,2.8,2.41,5.32,3,8.86,1.42,10.59-4.58,21.45-8,32.15-12.14C823.83,1150.82,831.51,1147.44,839.12,1144.27Zm419.43-156.69a62.91,62.91,0,0,0-5.51-3.65c-16-8.22-32-16.52-48-24.46-6.31-3.12-12.33-8.21-19.42-7.39-9.15,1-18.36,2-27.39,4.11-11.31,2.64-23,1.73-35.26,6.31,19.12,17.29,37.49,33.58,55.53,50.47,4.61,4.32,8.81,5.28,14,3.16,16.94-7,34-13.22,50.82-20.8C1248.21,993.09,1254,993.07,1258.55,987.58Zm-627.67,50.89c20.28,18,39.16,34.67,58,51.44a4.71,4.71,0,0,0,5.63,1c8.14-3.64,16.78-4,25.12-6.62,13.65-4.22,27.56-7,41.39-10.31-.39-2.84-1.92-3.34-3-4.32-13.17-12-26.72-23.28-39.44-36-7.24-7.26-14.18-8.57-22.81-6.48-12.14,2.94-24.57,3.74-36.79,6.21C650.2,1035.12,641.1,1034.14,630.88,1038.47Zm166.4,143.85c1.37,1.41,1.92,2.07,2.55,2.59,18.36,15.34,36.79,30.52,55,46.08,6.73,5.73,13.07,6,20.26,1.46,11.14-7,22.59-13.14,33.89-19.71,1.57-.91,4.05-.68,4.34-3.48.34-3.2-2.16-4.16-3.75-5.55-15.67-13.68-31.51-27-47-41.06-4.39-4-8.27-4.07-12.88-2.07-7,3.05-14.09,5.77-21.13,8.68C818.43,1173.48,808.25,1177.75,797.28,1182.32Zm-113.17,46c14.57,12.36,27.92,23.71,41.31,35a3,3,0,0,0,4-.08c3.1-2.66,6.74-3.28,10-5.07,18.24-9.9,36.73-18.92,55.27-27.8,5.43-2.6,11.28-4.38,16.74-9.51-10.16-9-19.84-17.44-29.31-26.24-3.27-3-6.26-3.74-10.05-2.17-21.5,8.84-43,17.44-64.58,26.17C700.22,1221.6,692.91,1224.68,684.11,1228.33ZM643.28,972.8c-.27-7.17-4.11-7-7.52-6.42-10.74,1.82-21.53,1.41-32.29,2.18-13.85,1-27.65,3-41.72,4.53.45,1.23.53,1.85.8,2.1q25.66,23.91,51.36,47.77a3.1,3.1,0,0,0,3.32.79c13.67-3.55,27.64-3.72,41.43-6.28,11.5-2.14,23.2-2.49,35.36-6-15.62-14.69-30.65-28.95-45.8-43C645.15,965.61,644,968.48,643.28,972.8Zm152.89,111.37a13.35,13.35,0,0,0,1.64,2.26c18.77,16,37.58,31.94,56.33,48,2.63,2.26,5.17,2.29,8,1.19,9-3.51,18-6.9,26.93-10.42,8.67-3.41,17.32-6.93,26.9-10.76-15-13.29-29.63-25.13-43.26-38.76-8.73-8.74-17.08-8.36-26.81-5.29C829.63,1075.54,813.17,1079.53,796.17,1084.17Zm49.63-31.75-45-39.89c-1.63-1.44-3.48-1.35-5.24-1-20.76,3.82-41.52,7.64-62.44,9.68-1.53.14-3.57.23-3.87,2.82-.25,2.19,1.68,2.69,2.77,3.69,13.32,12.1,26.91,23.69,39.87,36.43,5.83,5.73,11.46,5.12,17.51,3.28,11.84-3.61,23.75-6.58,35.74-9.14C831.55,1056.9,837.86,1054.7,845.8,1052.42Zm134.28,35.92c-15.43-13-30.07-25.41-44.69-37.8a8.06,8.06,0,0,0-8-1.71c-19.65,5.36-39.33,10.47-59.22,15.72a8.45,8.45,0,0,0,1.09,2.1c16.64,14.58,33.34,29.06,49.92,43.76,2.22,2,4.13,1.33,6.22.52,12.22-4.73,24.57-9,36.57-14.52C967.73,1093.75,974.14,1093.54,980.08,1088.34Zm1,84c-16.22-14.45-31.24-27.9-46.33-41.21a7.34,7.34,0,0,0-8.08-1.23c-17.12,6.87-34.26,13.64-51.68,20.55.7,1.34.93,2.2,1.38,2.56q27.1,21.81,54.26,43.53a5.3,5.3,0,0,0,6.34.6C951.26,1189.13,965.54,1181.07,981.07,1172.33Zm-354.36-223a19.23,19.23,0,0,0-1.89-3q-17.21-16.57-34.46-33.07a6.66,6.66,0,0,0-5.64-2.09c-16.16,2-32.38,1-48.57,1.38-12.48.29-25,.06-37.46.06l-.26,2.39q20.64,19.44,41.31,38.85a6.12,6.12,0,0,0,4.46,2C571.52,954.64,598.78,952.33,626.71,949.3ZM1078,1157.17a67.44,67.44,0,0,0,6.35-3.07q29.06-17.74,58-35.68c2-1.24,5.56-1,5.31-5.14s-3.62-5.21-6-7a4.58,4.58,0,0,0-5.77-.1c-5.94,4.3-13.94,3.54-17.88,12.8-.57,1.33-1.7.8-2.69.91-10.44,1.13-19.89,5.51-27.36,15.7-1.08,1.47-2,1.44-3.17.81-2.7-1.46-4.9.44-7.4,1.4-9.85,3.78-18.15,11.89-27.9,16.29-15.25,6.88-29.88,16.24-44.74,24.62a8.37,8.37,0,0,0-3.34,3.06c-.95,1.72,3,4.08.06,5.79-2,1.18-3.64-1.59-5.48-2.44-1.54-.72-2.69.49-4,1.19-10.47,5.86-21,11.53-31.39,17.69-3.39,2-9.08,2.56-9.49,7-.47,5.18,5.45,5.54,8.36,8.43a53,53,0,0,0,5.16,4c1.24,1,2.42,1.75,3.9.65,9.73-7.21,21.89-8.56,29.3-21.42a2.74,2.74,0,0,1,2.11-1.07c10.18-.75,19.2-4.64,25.66-15.94.4-.69,1.73-1.43,2-1.16,3.84,4.54,6.76-.37,9.69-2,6.84-3.73,14.76-6.28,14.41-19.85-.09-3.58,3.4-5.43,5.84-5.78s2.42,3.57,3.18,5.87c.57,1.73.21,5.18,2.67,3.77,3.17-1.82,7.37-1.81,8.94-7C1073.45,1155.89,1074.73,1154,1078,1157.17ZM842,875.48c5.27,1.47,9.45,5.63,13.26,9.84,11.2,12.37,23.61,18,38.16,15.28,4.74-.89,9.69.88,14.86-1.25-5.15-6.2-11.45-9.3-16.37-17.24,6.06.87,9.48,5.11,13.06,8.5,6.28,5.95,12.33,10.71,20.8,8.91,9.34-2,9.44-1.12,10.23-13.49.12-1.85.41-3.68.59-5.52.91-9.28-.09-10.57-7-11.26-13-1.29-25.79.29-38.71,1-27.37,1.54-54.8-.18-82.18-2.18-6.47-.47-13-.07-19.78-.07,2.06,4.56,5.48,5.41,7.92,8.08,11.58,12.73,24.25,20.86,40,17.2,3.41-.8,7.23-.93,10.62,1.39-8.25,2.63-16.75.13-25.53,2.44,3.89,4.35,34.62,5.46,43.83,2.17C858,890.94,848.71,885.44,842,875.48ZM664,963.7c.9,2.1,1,3,1.47,3.39,12.22,11.4,24.47,22.73,36.69,34.12,6.18,5.77,12.13,12.53,20.48,6.62.63-.45,1.57-.2,2.37-.2,15.59,0,30.83-4.72,46.33-5.9,4.6-.35,9.19-.92,15.49-1.56-13.44-11.75-25.76-21.49-37.15-32.85-7.08-7.06-14.22-9.8-22.71-8.6-5,.7-10,.95-14.92,1.41C696.37,961.58,680.73,963.82,664,963.7ZM844,1250c-8.29-7.36-15.89-13.64-23.07-20.67-3.92-3.84-7.38-3.89-11.68-1.69-18.45,9.39-37,18.42-55.46,27.74-7.59,3.82-15.07,8-23.29,12.42,10.47,8.81,20.34,16.72,29.86,25.33,4,3.61,7.17,1.61,10.59-.39C794.85,1278.77,818.73,1264.76,844,1250Zm94.63-125.07-.36,2.3q23.18,20.19,46.35,40.35c1.64,1.43,3.46,1,5.19,0,15.4-8.61,30.74-17.43,46.24-25.73,4.54-2.44,3.17-3.8.25-6.24q-18.7-15.66-37.34-31.47c-2.79-2.36-5.5-2.06-8.56-.69-6.79,3-13.71,5.59-20.56,8.43C959.42,1116.18,949,1120.55,938.62,1124.9ZM258.56,827c-7.24-7.86-14.24-15.52-21.31-23.07-1.64-1.76-3.77-1.52-5.77-1.58-21-.62-42-1.93-63-1.75-14.78.12-29.54.14-44.33-2.35-10.85-1.82-22-.58-33-.65-1.15,0-2.65-.44-3.2,1.34s.89,2.64,1.77,3.61c5.32,6,10.78,11.81,15.94,18,2.8,3.39,5.76,4.11,9.29,3.33,6.69-1.49,13.36-2.9,20.24-2.69,27,.82,53.88,4.63,80.89,4.53,12.21,0,24.41,0,36.53,2.57C254.29,828.71,256.12,829.47,258.56,827Zm838.49,233.36c10.19,8.95,19.28,16.52,28,24.8,4.12,3.92,8,4.3,12.36,1.94,22.72-12.21,45.41-24.52,68.18-36.55,4.79-2.53,3.3-4.46.3-7.12-5.82-5.18-11.64-10.35-17.37-15.68a7.44,7.44,0,0,0-8.58-1.53C1152.86,1037.36,1125.8,1048.54,1097.05,1060.39ZM917,1035c-14.41-12.14-27.33-23.09-40.32-33.87a5.36,5.36,0,0,0-4-.92c-20.45,3-40.89,6.14-61.33,9.26-1.17.18-2.73.15-3.14,1.77-.55,2.16,1,3.07,2.15,4.09,10.8,9.48,21.69,18.8,32.34,28.57,5.73,5.25,11.4,7.91,18.51,5.35,3.23-1.15,6.45-2.77,9.82-3.31C885.84,1043.6,900.33,1038.89,917,1035ZM747.47,1358.88c3.95-4.65,3.58-9.5,4.71-13.54.79-2.82,1.31-7.3,4.18-6.43s1.35,4.85,1,7.53c-.79,5.36.7,6,4.18,4.26a8.54,8.54,0,0,0,4.94-6.23c1-4.26,2.29-8.44,3.67-12.52.47-1.42.8-2.74-.19-3.46-3.43-2.5-5.91-7.42-11.14-4-16.28,10.71-32.87,20.54-49.28,30.88-22.36,14.1-44.66,28.37-67,42.57-1.36.87-3.23,1.16-2.31,4.38,2.18,7.58-1.49,6.21-4.53,4.76-1.82-.87-3.29-3.19-5.39-.92a2.55,2.55,0,0,0-.35,3.36c1.39,2.43,2.95,4,5.53,3.79,4.38-.44,8.79-.57,13.18-.61,5.8,0,11.36-.16,16.87-3.88,10.12-6.84,20.58-12.77,31-18.9,5.12-3,11.54-4.33,8.86-15.35-.45-1.88.07-4.45,2.18-4.82,1.8-.32,2.16,1.74,2.82,3.39.86,2.14.32,5.55,3.17,6,5,.7,9.82-6.42,8.67-12.89-.37-2-.8-4.1-1.34-6.08s-1.08-3.69.75-4.67c1.62-.87,2.68.51,3.4,2.22,1.08,2.55,2.07,5.15,3.06,7.76.65,1.71,1.33,3.27,3,3.26,4.47,0,9.83-6.91,10-13.2.11-5.07.26-10.06,2-14.74.58-1.58.4-4.16,2.34-3.86,2.13.32,2,2.91,2.07,5C747.52,1346.91,747.47,1351.93,747.47,1358.88Zm-.34-399.51c10.92,9.58,21.92,19,32.73,28.78C786,993.7,791.64,999.52,800,998c13-2.4,26.14-3.61,39.19-5.75,7-1.15,14.44.48,21.47-5-11.53-9.58-23-19.13-34.5-28.58-1.36-1.13-3-1.07-4.65-1-19.59,1.18-39.16,2.1-58.72-.75C757.82,956.22,752.79,956.15,747.13,959.37Zm557.3,36.13c-13.64-13.39-13.66-13.45-28.57-8.19-3.07,1.08-5.94,3.13-9,4.21-24.31,8.55-48.11,19.31-72.14,29-1.25.5-3.1,0-3.3,2.54-.15,1.87,1.31,2.46,2.26,3.35,5.87,5.49,11.78,10.92,17.62,16.48,2.16,2.07,4.38,2.4,6.8,1.23,3.37-1.63,6.79-3.1,10.07-5C1253.41,1024.77,1278.64,1010.28,1304.43,995.5Zm-752-139.07c3.12,3.17,5.51,6.18,8.66,8.15,11.35,7.11,22.45,14.91,33.88,21.77,6.49,3.89,12.64,10.51,19.88,10.26,15.8-.56,31.59-.19,47.38-.68,1.26,0,2.82.9,3.9-1.48-3.71-4.08-8.62-6-12-9.84-7.35-8.29-15.79-14.31-23.38-22-3.41-3.46-7.08-4.26-11.21-4.36-14.18-.35-28.36.38-42.54-1.64C569.08,855.52,561.08,856.43,552.39,856.43Zm115.79-351.8c0,3.95-.09,7.91,0,11.85.65,23.57,1.42,47.14,2,70.71.92,35.55-2.15,71-1.94,106.5.17,28.68-1.56,57.25-1.64,85.9a74.77,74.77,0,0,1-.81,7.86c-2.06,18.65-1.32,37.54-2.6,56.26-.3,4.37,1.63,6.21,4.79,6.17a21.64,21.64,0,0,1,5.4.2c5.59,1.36,6.93-2.08,6.53-8.82-1.89-31.43-1.6-63-3.08-94.49-2.06-43.86-2.08-87.89-4.06-131.81C671.17,578.25,672.22,541.36,668.18,504.63Zm-276.94,660c-.88,3-1.14,6,1.3,8.68,6.88,7.63,13.68,15.38,20.58,23,24.08,26.54,48.35,52.78,72.23,79.64,23,25.83,45.58,52.21,68.25,78.51,4.57,5.3,8.8,7,14.23,1.95,2.57-2.39,3.12-3,.41-5.89-22.3-23.63-44.47-47.49-66.72-71.2-16.18-17.22-32.55-34.13-48.62-51.54-10-10.87-20.19-21.52-30.4-32.11S402.64,1173.74,391.24,1164.59Zm406-230.82c-10.13-8.39-20.24-16.83-30.41-25.12a5.33,5.33,0,0,0-3.48-1c-23.9.47-47.8,1-72.89,1.58l32.28,28.9c2,1.82,4.2,3.21,6.7,3C751.87,939.64,774.46,940.65,797.22,933.77ZM318.77,258.5c0,3.82-.54,7.24,2.66,7.66s6.26,1.27,8.32-3.75c5.35-13,10.07-26.47,14.46-40.08a837.74,837.74,0,0,0,22.67-85.19c6.45-30.71,13.11-61.35,19.68-92a8.28,8.28,0,0,0-2.95,3.82c-11.47,26-16.77,55.38-25.32,83q-10.47,33.73-20.53,67.68c-4.91,16.72-13.5,31.79-13.07,51a38.12,38.12,0,0,1-1.26,9.32c-.36,1.53-.84,4.06-2.62,3.66S320,260.32,318.77,258.5Zm660.4,637.69c25.48,1.33,50.89,1.85,76.24-1.32-8.16-3.66-16.29-7-24.51-9.93-11.94-4.23-23.79-9.64-36-11.79s-24.35-.92-36.53-2.4c-5.07-.62-11.1-2.26-12.14,9.06a17.79,17.79,0,0,1-.87-4c-.24-2.4-.37-5.38-2.79-5.08s-2,3.57-2,5.75c.09,25-2.14,21,15.09,21.26,2,0,4-.15,6,0,5.29.35,10.26-.29,14.79-4.73,3-3,6.6-4.91,9.92-7.33,1.65-1.19,3.68-4.3,5.1-1.3,1.28,2.7-1.74,3.48-3.11,4.63C985.43,891.51,982.27,893.8,979.17,896.19Zm-102.4,382.37c-4-3.47-8.12-6.63-11.89-10.41s-7.19-4-11.58-1.3c-21.68,13.39-43.52,26.32-65.26,39.54-1.64,1-5,1-4.31,4.15.53,2.46,3.67,6.07,5.1,5.67,6.19-1.74,5,3,4.46,7.54-.58,4.83-.16,7.11,4.25,4.42,18.07-11.05,36.2-22,54.48-32.4,5.25-3,8.47-6.23,6.92-14.46-.35-1.86-.36-4.61,1.86-5,1.89-.33,2.24,2.09,2.54,3.72,1.25,6.67,4.19,6.23,7.91,3.82C873.2,1282.58,875.31,1281.76,876.77,1278.56ZM292.6,297.43c-6-3.36-11.51.62-17.15.87-22.57,1-44.68,6.55-66.88,11.14-17.89,3.7-35.56,8.94-53.16,14.5-9.78,3.09-19.48,6.67-29.21,10C182.68,329.27,239,323.91,292.6,297.43Zm644.48,748.64,47.47,39.67c1.49,1.25,2.91.91,4.55.23,6.63-2.76,13.33-5.21,20-7.91,1.61-.65,4.15.1,4.5-2.85.31-2.7-2.12-3.7-3.46-4.9-11.71-10.53-23.56-20.79-35.34-31.21a6.16,6.16,0,0,0-6.22-1.57C958.66,1040.3,948.74,1042.92,937.08,1046.07ZM430.52,1162.13c4.75,6.22,8,14.25,15.35,11,7-3.1,14.62-3,21.64-5.5,19.41-7,39.33-10.55,58.86-16.66,12.79-4,25.8-6.76,40.3-10.49-5.09-4.15-7.89-10.45-12.56-9.12-7.62,2.17-15.49,2.58-22.94,5.06-20.87,7-42.22,10.45-63.2,16.5C455.57,1156.53,443,1159.1,430.52,1162.13Zm401-204.73c10.39,8.71,20.75,17.48,31.19,26.09,2.15,1.78,4,4.73,6.84,4.54,11.92-.82,23.59-4.82,35.57-5a3.08,3.08,0,0,0,2.5-1.71c.55-1.88-.93-2.53-1.9-3.4-9.11-8-18.43-15.73-27.23-24.33-4.69-4.57-9.51-5.53-14.66-3.95C853.36,952.81,842.72,954.58,831.55,957.4Zm33,303.65c2.6,2.43,5,4.75,7.47,7,2.14,1.94,4.26,4,6.52,5.65,5.72,4.26,11.51.5,13.16-7.89.64-3.25-.57-9.17,3-9.17,4.33,0,1.61,6.61,3.65,10.4l49.94-30.09c-6.11-5.18-11.13-9.43-16.13-13.73a3.46,3.46,0,0,0-4.51-.33c-15.47,9.18-31,18.29-46.83,27.64a28.87,28.87,0,0,0,5.87,6.36c1.25,1.12,3.87,2.48,2.24,5.3-1.3,2.28-2.92-.13-4.09-1.32C878.29,1254.18,871.67,1252.48,864.58,1261.05Zm17.08-261.76c10.48,9,20,17.64,29.85,25.39,4.18,3.28,7.91,9.49,13.06,8.67,9.62-1.52,19.11-4.52,28.65-6.91,1.17-.29,2.51-.54,2.82-2.38s-1-2.57-2-3.44c-5.84-5-12.16-9.34-17.36-15.35-9.22-10.65-19-15.21-31.08-10.38C898.19,997.88,890.13,995.88,881.66,999.29ZM721.05,863.14c-.19.52-.38,1-.56,1.56q18,14.73,36,29.47c1.28,1.06,2.72.55,4,.94,8.21,2.44,16-2.73,24.22-1.84,7.53.81,15.15.17,22.73.17.09-.8.18-1.6.28-2.4-8.23-7.44-16.43-14.93-24.71-22.26a5.78,5.78,0,0,0-3.45-1.09Q750.34,865.35,721.05,863.14Zm-59.76,367.93c-4-5.8-7.2-8.74-12.88-6.43-22.5,9.15-45.14,17.64-67.72,26.44-15.68,6.12-31.34,12.36-47,18.47-1.78.69-4,1.28-4.25,3.62-.17,1.42,1.55,3.47,2.68,4.88,5.29,6.61,10.78,1.45,15.74-.49,26.54-10.4,52.94-21.38,79.37-32.23C638.35,1240.76,649.46,1236,661.29,1231.07Zm88.37-337.43c-8.78-7.4-18-14.19-26.32-22.51-6.34-6.33-12.82-8.54-20.54-8.24-21.5.83-17.6-5.91-18.07,26.08-.08,5.2,1.77,7,5.49,6.94,18.81-.12,37.61-.06,56.42-.11C747.58,895.8,748.68,896.06,749.66,893.64Zm300.61,168.1c-11.29-9.7-21-18.53-31.1-26.42-3.26-2.54-4.93-8-9.95-7.72-10.49.64-19.9,7.54-30.54,7.88,13.19,12.76,26.45,24.64,39.73,36.46a4.34,4.34,0,0,0,4.66.68C1031.59,1069.29,1040.09,1065.83,1050.27,1061.74Zm-61.67-43.07c-.44,3.47-2.08,3.24-3.37,3.51-4.12.88-7.89,3.81-12.22,3.59a2.27,2.27,0,0,0-2.45,2.67,2.41,2.41,0,0,0,2.6,2.54,11.52,11.52,0,0,0,3.55-.65c7-2.31,14.54-2.19,21-7.68.69-.58,4,2,4.52-.94.62-3.31-2.49-4.24-4.17-5.76-9.75-8.81-19.57-17.46-29.37-26.14-1.82-1.61-3.59-3.58-6-3.33-11.07,1.18-22.15,2.28-33.89,6,10.62,9.43,20.54,18.15,30.38,27,3.19,2.87,5.91,4.72,10.3,3C975.5,1020.1,982,1019.89,988.6,1018.67ZM410.2,1168.35a34.08,34.08,0,0,0,3.12,4.53c13.61,13.89,26.87,28.33,40.14,42.78,16.51,18,33.38,35.41,50.09,53.08q8.65,9.16,17.3,18.35c1.74,1.84,3.34,2.69,5.19,0,2-2.9.73-4.62-.86-6.59-2.36-2.92-4.45-6-8.31-3.89-1.51.84-4.77.12-3.56-2.84,2.72-6.63-1.28-8.23-3.7-11q-31-35.1-62.15-70c-4.36-4.85-8.39-10.79-14.71-11.45-1.62-.16-2.44-1.49-2.05-3.89s-1.2-3.61-2.22-5.22C423.36,1164.11,417.3,1163.51,410.2,1168.35Zm658.12-45.8c-.85-.9-1.85-2.12-3-3.12-11.19-10-22.42-20-33.59-30.09-1.93-1.74-3.7-1.22-5.67-.38-6.62,2.85-13.27,5.58-19.92,8.31-1.28.53-3,.23-3.22,2.68s1.58,2.75,2.71,3.7c12.23,10.36,24.49,20.67,36.7,31.09,1.87,1.6,3.66,1.82,5.65.73q9.09-5,18.2-9.89A3.08,3.08,0,0,0,1068.32,1122.55ZM1197.59,949.3c.22,2.6,1.44,3.09,2.54,3.57a576.62,576.62,0,0,1,58.41,30.23c9.29,5.41,16-1.73,25.47-4.44-13.34-10.56-25.3-19.5-36.82-29.37-5.65-4.84-11.4-5.78-17.65-4.81C1218.9,946.12,1208.45,949.72,1197.59,949.3ZM852.67,931.68c-15-14.28-27.95-31-47.76-25.65-2.88.78-6,0-9,.21-7.27.51-14.53,1.16-23,1.85,10.75,9.24,20.34,17.58,30,25.7a8,8,0,0,0,5.11,1.9c13.36-.49,26.72-1.19,40.07-1.94C849.29,933.69,850.38,932.77,852.67,931.68ZM1035,1086.58c12.85,11.4,25,22.24,37.27,33a3.41,3.41,0,0,0,3.4.73c7.87-4.47,16.13-7.89,24.27-14.08-9.06-8-17.81-14.64-25.47-23-7.25-7.9-14.34-10.11-22.7-4.71C1046.65,1081.79,1040.58,1081.77,1035,1086.58ZM244.4,803.14l-.82,1.74c7.24,7.71,14.45,15.48,21.78,23.07.83.86,2.28.83,3.46.9,9.77.58,19.54,1.43,29.31,1.53,14.42.14,12.66,2.94,12.8-17.49,0-5.52-1.6-7.64-5.67-7.45-11.19.5-22.31-1.26-33.46-2.15C262.7,802.57,253.54,803.14,244.4,803.14Zm633.28,144.2c8.68,7.66,17,14.37,24.75,22,8.19,8,16.26,14.92,27.07,9.66,1.6-.78,3.58-.06,5.37-.28,5.46-.67,10.92-1.46,16.38-2.2-10.86-11.59-22.1-21.53-33.44-31.24-1.21-1-3.08-1-4.65-1A182.83,182.83,0,0,0,877.68,947.34ZM608,911.75c10.35,9.94,20.23,18.72,29.48,28.55,5.83,6.2,11.89,9.89,19.18,7.92,11.65-3.15,23.42-2.72,35.17-3.07,1.5,0,3.22.08,4.59-2.74-2.19-.88-4.2-1.76-6.23-2.51-16.34-6-32.59-12.53-48-22C631.48,911.41,620.67,909.39,608,911.75Zm356.8,69.31c9.71-3.55,19.72-2.36,30.58-5.23-9.58-8.35-18.72-14.66-26.32-23.35-9.8-11.22-20.32-14-32.42-10.48-4.07,1.19-8.54-1.12-13.25,2.53,7.55,6.68,14.55,12.65,21.37,19,7.32,6.76,14.41,14,24.25,11.06.38-.12.92.69,1.43,1.1C969.32,979.1,965.45,976.54,964.75,981.06Zm36.74,25c-.75,2.55-2.67,5.77-.41,7.18,4.59,2.87,8.71,9.35,14.29,6.86,4.56-2,8.85-4.86,13.81-5.14,1.51-.08,3.16-1.22,3.41-3.77.22-2.21-1-3.22-2.22-4.27-5.28-4.66-10.38-9.73-15.84-14-5.28-4.09-9.62-12.29-15.92-11.63-9,.94-18.34,0-27.91,5,8.15,7.11,15.77,13.66,23.3,20.4C996.64,1009.06,998.83,1008.21,1001.49,1006Zm78.16,44.34c-12.64-11-23.78-20.67-34.9-30.36-2.43-2.11-5-1.26-7.56-.81-5.74,1-11,4-16.57,6-.92.33-2.21-.11-2.53,1.45-.42,2,1,2.5,2,3.35q16.06,13.83,32.11,27.74c1.36,1.18,2.73,2.42,4.43,1.76C1063.67,1056.75,1070.69,1053.93,1079.65,1050.37ZM685.22,1108c-5.59-11.17-13.2-6.47-19.8-4.91-21.16,5-42.2,10.91-63.31,16.28-9.25,2.35-18.66,3.68-28.11,8,4.93,6.22,9.69,10.84,16.17,7.08,4-2.29,8.13-2.43,12.21-3.53,17.9-4.84,35.82-9.5,53.68-14.59C665.72,1113.6,675.63,1112.19,685.22,1108Zm440.61-15.94c-10.5-9.62-20.33-18.66-30.2-27.6-1.31-1.18-2.86-2-4.55-1.54-7.35,2-14.36,5.35-22.28,9.25,11.7,10.35,22.47,19.89,33.25,29.4a5.18,5.18,0,0,0,6.33.86C1114,1099.21,1120.09,1097.43,1125.83,1092.09Zm-228.43-165c-7.27-6.48-14.5-13-21.84-19.37A7.35,7.35,0,0,0,871,906c-12.78-.13-25.56-.08-38.34-.08,8.45,9.29,16.7,19.91,26.49,24C871.21,934.83,884.4,930.45,897.4,927.07Zm-258-17c12.26,12.16,73.64,35.79,80.92,31.6-11-9.78-22-19.48-32.89-29.15a8.5,8.5,0,0,0-5.6-2.47C668.08,910.13,654.3,910.12,639.44,910.12ZM351.26,1087.87c-1.65,11.33,0,19.15,6.77,25.85,12.59,12.5,24.49,26.23,36.77,39.29,10.88,11.58,10.94,11.49,21,5.4Zm420.36,98.65c-3.67-6.62-7.29-7.32-12.45-5.18C740.7,1189,722,1195.78,703.48,1203c-9.18,3.57-18.32,7.32-27.44,11.13-1.2.5-3.22.48-3.11,2.93.08,1.86,1.56,2.91,2.79,3.85,4.55,3.47,9,1.16,13.35-.61,14.08-5.7,28.13-11.56,42.21-17.32C744.55,1197.54,757.84,1192.14,771.62,1186.52Zm-443.74-123.2a33.85,33.85,0,0,0-2.24-3.12c-10.85-11.63-21.61-23.43-32.63-34.78-8-8.26-14.79-19.89-26.61-18.89-1.74.15-4.06-1.35-5,.89-1.28,2.93,1.42,3.87,2.66,5.22,12.61,13.74,25.41,27.18,37.9,41.11C309.36,1062,316.87,1068.77,327.88,1063.32Zm455.8,125.45a50.59,50.59,0,0,0,3.94,4.5q27.35,24.24,54.75,48.34c7.58,6.63,8.87,6.35,16.2-1.55-20.64-17.2-41.27-34.22-61.72-51.6C792.38,1184.66,788.49,1184.63,783.68,1188.77ZM401.5,978.2c-4.31-5.13-4.32-5.45-9.28-5.07q-40.35,3-80.7,6.41c-10.15.84-20.3,1.93-30.45,3-1.68.17-4.09-.33-3.93,3.24.12,2.77,2.17,2.61,3.74,2.74a21.46,21.46,0,0,0,3,0c17.52-1,35-1.36,52.51-4.13,15-2.37,30.31-2.1,45.48-2.4C388.33,981.83,394.39,979.66,401.5,978.2ZM193.22,907.76c3.3,7.47,6.91,7.17,10.56,7.25,43.62.89,87.16-4.41,130.78-3.21.69,0,1.67.41,1.93-1.19-2-4.93-5.49-4.51-8.88-4.44-28.21.52-56.42,1.16-84.63,1.55C226.82,908,210.65,907.76,193.22,907.76Zm343.22,61c-3.21-5.38-6.93-5.44-10.83-5.48-26.78-.27-53.33,5.34-80.13,5.49-9.62,0-19.29,2.33-29.8,2.61,3.29,4.87,6.17,6.45,10.38,6.49,13.81.13,27.41-3.48,41.16-3.67C490.16,973.83,512.92,969.88,536.44,968.71Zm-363-64.48c-2.1-2.63-3.47-4.54-5-6.21-17.15-19-33.7-39-51.57-56.91-2.4-2.41-3.86-4-6.33-.48-2.73,3.87-1.62,6.13,1.06,9,15.77,16.67,31.53,33.35,47.05,50.42C163,904.7,167.25,906.22,173.48,904.23Zm706.67,1.85a242.27,242.27,0,0,0,26.38,23.24,3.88,3.88,0,0,0,3.48.34c6.13-2.26,12.28-4.51,18.11-8,1.48-.9,2.94-2.35,1.23-3.85-5.9-5.2-10.94-12.77-18.6-13.53C901,903.32,891.39,905.9,880.15,906.08Zm264.79,195.34c1.9,3.59,4.5,4.78,6.28,7.14,3.12,4.14,5.58,2.23,8.37-.48,2.23-2.16,1.66-5.13,1.83-7.94.11-1.85,0-4.1,1.65-4.64,2-.64,2.24,1.7,2.45,3.48.54,4.49,2.61,4,4.86,2.7,7.43-4.46,14.85-9,22.22-13.57,2-1.26,2.63-4.58,5.76-4.75,7.81-.42,10.14-4.38,10.47-15.79q-29.4,15.26-58.54,30.41C1148.63,1098.85,1147.07,1100,1144.94,1101.42Zm-538.87-66,0-3.26c-12.57-3.26-25,2.87-37.52,3.45-12.89.6-25.79,3.23-38.62,5.32s-25.56,2.81-39.31,6c2.88,2.85,4.19,5.77,6.64,5.19,9.85-2.31,20-1.62,29.72-3.94,15.1-3.6,30.41-4.24,45.54-7.28C583.67,1038.71,594.89,1037.26,606.07,1035.46Zm166.54,132.92c-22.38-19.21-44.27-38.05-66.22-56.77-2.38-2-5.11-2.88-8.09-.26,2.09,4.34,5.61,6,8.45,8.55,18.37,16.79,36.9,33.26,55.22,50.14C765.85,1173.62,768.81,1173,772.61,1168.38ZM473.42,908.32c-2.91-4.79-6.65-4.73-10.48-4.55-14.16.7-28.32,1.62-42.49,1.89-20.38.4-40.77.27-61.15.46-2.07,0-4.28-.82-6.38.86,2.16,4.79,5.58,4.82,9,4.77q53.94-.86,107.87-1.77C470.92,910,472.22,910.45,473.42,908.32Zm184.3-45c.18,5.84-2.61,13.11,1,17.45,4.94,6,10.65,11.32,17,14.62,3.68,1.91,6.62.44,6.59-6.25A153.49,153.49,0,0,0,680.45,867c-.31-2.11-.73-4.17-2.67-4.75a33.41,33.41,0,0,0-13.73-.92c-2.19.28-2.87,2.38-3.07,5-.13,1.86.46,4.21-1.36,5.44C657.56,869.28,658.8,866,657.72,863.3Zm38.81,232.33c4.28,6,8.06,8.28,13.45,6.46,3.45-1.17,6.89-2.57,10.39-3.46,15.61-4,31.25-7.81,46.88-11.68,2-.49,3.77-1.21,4.65-3.79-2.79-4.3-5.94-5.54-9.85-4.42-8.95,2.56-17.92,5-26.9,7.26C722.53,1089.23,709.89,1092.31,696.53,1095.63ZM158.05,915.9a10.56,10.56,0,0,0-1-2.57q-24.2-25.89-48.47-51.66c-1.06-1.12-2.61-3.61-3.9-.44-1.06,2.62-3.16,5.34-1.08,8.65a21.54,21.54,0,0,0,3.11,3.7c12.36,12.47,24.89,24.67,37,37.48C148,915.57,152.24,917.54,158.05,915.9ZM927.1,1202c-.29-2.58-2-3.24-3.25-4.3-16.93-13.94-33.9-27.81-50.81-41.78-3.44-2.84-6.68-1.88-10.08-.22.18.92.15,1.66.38,1.86,17.54,15,35.15,29.92,52.63,45.08C920,1206.11,923.5,1206.13,927.1,1202ZM528,1332.82c0,14.39-.26,27.34.11,40.25.2,7.16,2.35,7.91,6.95,4.06s2.41-9.4,2.86-14.35c.23-2.44-1-6.13,1.46-6.88,2.81-.86,2.45,3.2,3.14,5.45.59,2,.85,4.24,1.77,5.86,3.48,6.1,5.73-.9,8.49-1.82,3-1,1.58-3.5.11-5.1C544.76,1351.46,537.56,1341.17,528,1332.82ZM637.23,959c-3-5.59-7-5.25-11-4.82-18.87,2.06-37.71,4.61-56.69,4.68-6.85,0-13.69,1.55-21.63,2.53,3.85,4.55,7,6.7,11.06,6.12,14-2,28.16-2.72,42.24-4C613.09,962.44,625.23,964.87,637.23,959Zm-59.52,185.44c17.8,16.84,35.14,33.27,52.52,49.65,7.32,6.9,14.72,13.67,22.09,20.49,2.17,2,5.1,2.92,6.46,0,1.54-3.3-2-3.8-3.36-5.06-23.25-21.56-46.6-42.93-69.89-64.4C583.3,1143.11,581.19,1141.24,577.71,1144.46Zm207.11,28.13c3.6,2.59,5.93,6.54,10.24,4.7,17.21-7.35,34.5-14.39,51.76-21.54,1.24-.52,3.18-.1,3.15-2.65,0-2-1.65-2.74-2.92-3.55-2-1.25-3.9-.72-5.84,0-14.53,5.59-29.12,11-43.56,16.94C793.56,1168.21,788.91,1168.08,784.82,1172.59ZM156.74,923.14c6,8.55,12.9,14,19.14,20.4s12,13.56,19,18.74c6.48,4.78,10.63,14,17.59,18.52,2.07-5.95-.54-9.28-3.38-12.3-13.41-14.25-26.93-28.31-40.25-42.71C165.38,922.06,162,920.88,156.74,923.14ZM855.91,1062c-2.9-3.89-5.49-4.91-8.7-4-5.47,1.47-11,2.64-16.46,4-15.15,3.83-30.29,7.71-46,11.71,3.8,6.4,8.14,6.07,12.55,4.93,13.85-3.56,27.78-6.7,41.49-11.1C844.18,1065.78,849.82,1065.33,855.91,1062Zm-4,76.7c-8.13-7-15.65-13.33-23.14-19.78-11.91-10.24-23.78-20.56-35.7-30.77-2-1.74-4.89-3.75-6.34-.33-1.17,2.75,2,3.72,3.52,5.1,16.91,15,33.87,29.84,50.67,45C844.22,1140.92,847.24,1142,851.88,1138.67Zm-525.77-808c-.51-6.82-4.12-7.83-8.17-7.32-4.49.56-4.26,5.23-4.26,9.59,0,17,.74,34,.85,50.92.45,69.29.43,138.58.58,207.87,0,8.73,0,17.47,0,26.2.76-9.56.76-19.11.76-28.65q0-120.67,0-241.33C315.88,335.78,318.36,331.72,326.11,330.65ZM400.39,1059c-16.84,4.14-34.26,4.93-51.47,8.15-1.33.25-4.07.1-3.27,3,.93,3.44,3.26,6.46,6.45,5.61a270.68,270.68,0,0,1,48.6-8c2.61-.21,5.71-.42,5.58-5.25C406.13,1057.23,402.73,1059.89,400.39,1059Zm77.18-4.37c-4.18-7.42-9.58-5.57-14.21-4.44-15.53,3.8-31.35,3.76-46.9,7-2.21.46-5.59-.45-5.43,4.11s3.45,3.2,5.69,3.4a8.69,8.69,0,0,0,2.38-.21C438.36,1060.84,457.82,1059.29,477.57,1054.63Zm385.69,85.86c3.36,6.82,7.51,6,12,4.17,15-6.2,30.08-12.26,45.1-18.46,1.4-.58,3.82-.32,3.68-3s-2.51-3-4.24-3.42a5.4,5.4,0,0,0-3,.31C899,1126.8,881.25,1133.61,863.26,1140.49Zm-128-194.13v2c25.13,4.34,50.11.44,75.13-2.44-2.48-3.61-4.83-5.71-8.45-5.59-17.53.57-34.88,5.08-52.49,4.15C744.71,944.25,740,945.69,735.22,946.36Zm-4.9,5.68c-25.65-6.12-51-1.89-77.44,1.93C657.94,960,697.41,958.62,730.32,952ZM489.53,906.41c30.71.82,61.42.7,92.55.56-1.65-5.28-4.44-5.63-7.27-5.5-5.8.27-11.58.94-17.37,1-20.4.28-40.81.35-61.22.61C494,903.14,491.44,902.1,489.53,906.41Zm437.89,209.26c2.91,6.48,6.35,5.71,9.94,4,2.43-1.14,4.85-2.37,7.31-3.38,15.09-6.17,30.19-12.28,45.47-18.49-2.94-4.64-5.89-5.77-9.76-3.1-2.07,1.44-4.59,1.73-6.88,2.64C958.29,1103.39,943.08,1109.45,927.42,1115.67ZM491.69,1060c1.34,1.61,2.4,3.12,3.63,4.33q15.36,15.17,30.77,30.25c9.44,9.29,18.82,18.67,28.31,27.85,1.47,1.43,3.58,4.26,5.2,1.35s-.93-4.6-2.48-6c-8.24-7.72-16.54-15.29-24.63-23.33-11-10.94-22.17-21.66-33.3-32.39C497,1059.89,495,1058.06,491.69,1060Zm433.52-15.78-.18-4.11c-22.86,1.41-44.85,11.24-68.22,14.83,3.2,5.14,6.78,5.76,10.61,4.77,5.07-1.29,10.08-3,15.14-4.34C896.77,1051.57,911,1047.9,925.21,1044.19ZM580.62,1349.1c.49-4.63-.46-5.39-1.17-6.21q-21.59-25-43.2-50c-2.84-3.28-5.61-2.86-9.27.5C545.05,1311.55,561.6,1331.21,580.62,1349.1Zm-401-427.7a7.41,7.41,0,0,0,.67,1.83q22.28,23.88,44.57,47.74c.8.87,1.61,1.87,2.58,1s.64-2.38.41-3.67c-.5-2.79-2.22-4.41-3.69-6.1-10.22-11.79-20.64-23.29-30.75-35.26C189.48,922.19,185.36,919.67,179.67,921.4Zm541.71,345.79c-10.69-9.32-20.63-18-30.55-26.64-3.15-2.76-6.19-5.77-9.42-8.34-2.16-1.7-5.46-2.31-6.68.07-1.81,3.55,1.81,4.43,3.37,5.88,10.24,9.53,20.75,18.56,30.79,28.44C712.9,1270.54,716.3,1270.65,721.38,1267.19Zm-2.57,7.94c9.81,10.06,20.24,18.71,30.52,27.62,1.7,1.47,3.49.27,5.2-.37,1.36-.5,2.87-.92,3.27-3,.49-2.53-1.34-2.93-2.43-3.86-8.37-7.14-16.93-13.92-25.1-21.44C726.13,1270.28,722.77,1270.22,718.81,1275.13ZM684,1092.77a8.74,8.74,0,0,0-1.16-2q-27.71-25-55.47-50c-1.62-1.45-3.52-2.67-5.53-.66,0,2,1.25,2.73,2.11,3.53q25.68,24,51.48,47.75C678,1093.69,680.84,1094.41,684,1092.77ZM416.27,985.56l55.84,55.87c1.94,1.94,3.92,3.59,6.47,1.75-.14-.59-.15-1.27-.39-1.52q-27.48-27.48-55-54.92C421.4,984.93,419.65,983.25,416.27,985.56Zm-69.74,115.08c1.79-23.92-8.86-34.66-26.46-28Zm275.7-70.6c26.94.56,53.33-5.68,79.8-10.93C675.23,1020.15,648.65,1024.26,622.23,1030Zm93.24-4.62c7,6.23,13.25,11.73,19.45,17.38q15.27,13.92,30.42,28c1.84,1.72,4,2.88,5.36.68,2-3.2-1.3-3.78-2.39-4.79-14.77-13.53-29.63-26.87-44.49-40.21C721.68,1024.61,719.45,1022.65,715.47,1025.42Zm150.16-82.33c-4.09-4.21-6.77-6.69-10.39-6.92-14.18-.9-28,5-43.19,3,2.34,4.47,4.43,6.27,7.17,6.15C834.14,944.66,849.06,943.89,865.63,943.09ZM403.48,966.66c-15.43-16.06-30.31-31.5-45.13-47.06-2.05-2.15-3.89-3.17-7.18-.58,15.83,16.08,31.1,31.6,46.39,47.1C399.08,967.66,400.79,968.07,403.48,966.66ZM757.05,900.4c-24.51-4.75-49,1.3-74.25.54C687.59,906.31,739.2,906.08,757.05,900.4ZM608.67,1024.07c-18-16.77-35.44-33.06-52.91-49.34-1.72-1.61-3.59-2.1-6.83-.66,1.52,1.34,2.53,2.18,3.5,3.09q23.48,21.93,47,43.86C602,1023.41,604.41,1026.6,608.67,1024.07ZM682,369c-.23,5.31-2.51,9.91-2.91,15.07-1.69,21.29-6.12,41.86-9.39,62.74-.34,2.17-2.17,4.64.72,5.7,2.58.95,4.1-.63,4.46-4.38a160.89,160.89,0,0,1,2-16.41C681,411.14,679.49,389.82,682,369ZM595.2,911.56c1.76,4.62,5,5.53,7.33,7.86,9.4,9.36,19,18.3,28.59,27.42,1.82,1.74,4.31,4.12,5.79,1.4s-1.65-4.16-3-5.55c-9.43-9.35-19.09-18.28-28.39-27.85C602.34,911.61,599.4,910.14,595.2,911.56ZM353.85,1122.75c-1.38,5.33.42,8.28,2.78,10.92q12.78,14.28,25.59,28.49c1.15,1.28,2.56,3.66,3.9,1,1.05-2.12,1.45-4.89-.65-7.08C375,1145.12,364.61,1134.09,353.85,1122.75ZM948.73,936.58c-9.56-14.51-22.42-14.49-36.26-.16C925,941,936.4,932.71,948.73,936.58ZM791.83,1007c-.09-.91-.18-1.82-.28-2.73l-72.34,10.12.24,3C743.7,1015.61,767.69,1010.25,791.83,1007ZM489.41,912.84l-1.29,2.87c13.7,13.1,27.38,26.23,41.13,39.24,1.74,1.65,3.57,4.34,6.81,1.34C520.09,941.81,505.53,925.8,489.41,912.84ZM762.75,899c1.6,2.63,3,3.11,4.38,3.12q22.79.07,45.56,0c1.35,0,3.23-.09,3.12-2.61-.14-2.91-2-2.55-3.68-2.5-13.18.35-26.36.61-39.54,1C769.5,898,766.33,897.41,762.75,899Zm-140,3.41c17.8,5.41,36,1.83,54.06,3l.09-3.89C658.91,900.55,640.9,901.54,622.72,902.42Zm165.19,423.15c.1-6.38-4.39-7.23-7.33-9.9-2.38-2.15-10.4-.34-11,2.8-.92,4.71,3.11,5,4.9,7.27a22.47,22.47,0,0,0,6,5.08c1.85,1.1,3.2,5.28,5.5,3.09C787.69,1332.28,787.57,1328.68,787.91,1325.57Zm-16.86-26.33.67,2,77.88-44.59c-.29-.86-.57-1.72-.86-2.58ZM318.36,678.71V828.42l1.93,0C318.83,778.47,318.29,728.53,318.36,678.71Zm635.08,554.54c2.39-1.75,6-.92,6.63-4.76.55-3.2-2.71-4.11-4.39-5.68-2.58-2.43-5.53-4.16-8.31-6.22s-5.34-1.78-8,0c-1.45,1-2.56,2.81-1.08,4.27C943,1225.59,947.79,1230.34,953.44,1233.25ZM619.65,499.39l.72,2c11-4,22.06-8,33.07-12.11,1.87-.7,3.4-1.84,2-5.08-1.15-2.7-2.27-5.23-5-3.24A215.19,215.19,0,0,1,619.65,499.39Zm53,479.72c-1.26-.2-1.86.42-1.91,1.63a6.77,6.77,0,0,0,2.1,5.42c8.83,8.11,17.72,16.13,26.6,24.17,1.42,1.29,3.1,2.25,4.19,0s-.75-3-1.87-4Q688,993.5,674.38,980.65C673.73,980.05,673.06,979.49,672.63,979.11Zm294.48,54.73c-5.4-6-32.08-.8-38.25,6.7C942.34,1042.37,953.77,1034.54,967.11,1033.84ZM868.27,995.4c-.07-.71-.13-1.42-.2-2.14L799.25,1003l.24,2.82Zm155.86,88.84c-2.53-5.06-5-4.83-8.25-3.4-6.2,2.74-12.57,4.77-18.86,7.14-1.82.68-4.67.9-4.1,4.19.38,2.21,2.83,3.17,5.09,2.27C1006.53,1091,1015.09,1087.76,1024.13,1084.24Zm267.64-57.43c-2-3.59,2.26-11.8-4.78-9.71-4.75,1.41-9.08,5.17-13.67,7.64-2.74,1.48-1.6,3.61-.79,5.66,1,2.45.92,6.87,3.48,6.65s.88-3.83,1-6c.14-2-.6-4.76,1.69-5,1.79-.21,2,2.19,2.17,4,.49,5,2.26,3.67,4.47,1.85s2.3-3.94,1.26-6.7c-.53-1.43-1.06-3.24.53-4,1.37-.63,2.07.92,2.68,2.37C1290.24,1024.59,1289.81,1026.2,1291.77,1026.81Zm-266.53,50.35c2.48,2.84,3.66,5.24,6.41,4.06,7.16-3,14.41-5.73,21.59-8.66,1.62-.66,4-1.35,3.31-4.3-.65-2.63-3-2.15-4.73-1.48C1043.27,1070.08,1034.73,1073.45,1025.24,1077.16Zm-346.6,291.76-.67-1.56-44.42,25.06c1.32,4.52,3.24,3.73,5.43,2.3Q658.8,1381.78,678.64,1368.92Zm659.65-370.6V987.94c-5,2.87-9.46,5.56-14,8.07-7,3.86-7,3.81-3.25,12.79,1.7-1.07.26-7.71,3.07-4.89,3.12,3.14,3.26,2.56,3.68-1.65.12-1.28.92-3.26,1.83-1.91,2.57,3.88,2.81,1.06,3.66-1.6C1334.48,995,1336.45,997.65,1338.29,998.32ZM921.85,1215.06c-2.36-.33-3-.69-3.43-.44q-23.43,13-46.82,26.07c-1,.55-2,1.14-1.18,2.74.69,1.37,1.69.74,2.65.15q6-3.66,12-7.17C896.78,1229.57,908.55,1222.77,921.85,1215.06ZM903.39,933.25c-6.24-3.9-9.94,1.55-14.3,1.23-6.18-.47-12.39-.06-18.58.16-1.4.05-3.71-1-3.83,2.07-.1,2.45,2,3.11,3.51,3.55a26,26,0,0,0,4.76.46C884.4,941.66,892.77,935.79,903.39,933.25Zm-279.24,478.5a12.33,12.33,0,0,0-.55,2.11c-.07,3.71-.15,7.42-.14,11.13,0,8.82,1.4,9.85,7.15,5.45,3.44-2.62,4.59-6,1.71-10.24C630.1,1416.92,628,1413.29,624.15,1411.75Zm11.74-550.91c6,5.38,10.63,11.11,16.74,13.94,1.66-10.36,1.23-13.91-2.24-14.5C646,859.53,641.42,859,635.89,860.84Z"/></g></g></svg>