<svg xmlns="http://www.w3.org/2000/svg" xmlns:xlink="http://www.w3.org/1999/xlink" viewBox="0 0 1621.23 1482.12"><defs><style>.cls-1{fill:none;}.cls-2{stroke:#000;stroke-miterlimit:10;}.cls-3{opacity:0.54;}.cls-4{clip-path:url(#clip-path);}.cls-5{fill:#666;}</style><clipPath id="clip-path"><rect class="cls-1" x="17.66" y="185" width="1091" height="1205"/></clipPath></defs><title>FlyoutRecurso 21</title><g id="Capa_2" data-name="Capa 2"><g id="Capa_1-2" data-name="Capa 1"><rect class="cls-2" x="29.16" y="0.5" width="1080" height="1395"/><g class="cls-3"><g class="cls-4"><path class="cls-5" d="M435,1359.68a98,98,0,0,0-8.79-21.3,110.71,110.71,0,0,0-21-27.17c-1.35-1.28-3.79-2.7-2.59-4.91,1.49-2.75,3.72-.56,5.21.72a117.7,117.7,0,0,1,36.8,57.3c.69,2.37.41,5.13.49,7.72.12,3.84.65,7.44,4.38,10.71-2.32-15.87-4.74-30.57-12.14-43.48-2.35-4.11-4.55-8.34-6.87-12.48-.76-1.36-2.13-2.84-.58-4.21,1.4-1.24,2.67.48,3.68,1.5,9.27,9.37,15.39,21.21,19,34.68,1.72,6.44,4.88,13.1,3.34,19.85a60.73,60.73,0,0,0-.66,24.67c.8,4.73.08,10.44,1.7,15.67.79,2.56,1.44,6.13-1.64,7.29s-4.14-2.16-5.15-4.7c-6.93-17.23-16.87-30.87-32.52-38.1-7.05-3.26-14.52-3.89-21.81-5.7-1.33-.32-2.87.35-4-1.12,8-6.64,34.52-2.07,55.45,22.66-5.49-14.18-11.93-25.21-20.32-34.75a94.75,94.75,0,0,0-21-17.9c-2-1.25-6.19-2-4.47-5.85,1.18-2.63,4.36-.28,6.56.82,8.43,4.24,15.91,10.24,23.09,16.8C432.17,1359.26,433,1360.34,435,1359.68Z"/><path class="cls-5" d="M471.4,1395.72c0,2.48-.45,5-3,5.14-2.9.15-3.41-2.74-3.89-5.34-1.94-10.56-3.58-21.19-6.51-31.48a172.82,172.82,0,0,0-23.65-50.57c-2.24-3.29-5.09-5.3-8.81-5.54-1.52-.1-3.78.35-3.85-2.22s2-3.13,3.88-3.63c3.93-1,7.08.42,10,3.51,9,9.55,14.81,21.82,20.42,34,7.67,16.62,13.42,34.23,15.07,53.28C471.11,1393.79,471.27,1394.72,471.4,1395.72Z"/><path class="cls-5" d="M494,1390.5a68.87,68.87,0,0,1-1.5,16.19c-.48,2.2-1.52,4-3.65,4-2.4,0-2.84-2.34-3.12-4.44a23.76,23.76,0,0,1-.35-6.33c1.93-14.28-.61-28.3-2.82-42A116.61,116.61,0,0,0,462,1308.2c-.52-.73-1.06-1.44-1.53-2.21-.79-1.31-2.15-2.77-.58-4.26s3.1-.3,4.14,1.27c3.56,5.42,7.33,10.69,10.49,16.41C486.52,1341.06,492.69,1364.91,494,1390.5Z"/><path class="cls-5" d="M304.76,401.56q20.37-92.43,43.84-183.89c-12,62.11-26.51,123.47-40.52,185Z"/><path class="cls-5" d="M442.62,843.44c0-2.5-.76-5.28,2.41-6.26,2.73-.84,3.8,1.58,5.61,3,2,1.52,2.14,8.53,6.83,3.7.41-.42,1.36,1.38,1.43,2.63.29,5,8.27,16.24,12,16.86,1.69.27,3.06-.86,4.54-1.64q17.61-9.39,35.3-18.55c1.76-.91,3.61-2.35,6.18-.87-2.44,5.12-7.38,5.39-11,7.57-8.41,5.07-17.27,9.13-25.95,13.59-1.61.82-4.17.67-4.41,3-.26,2.54,2.14,3.86,3.71,5.09,8.74,6.82,18.11,12.35,27.58,17.64a18.54,18.54,0,0,1,2.77,1.42c1,.76,2.3,1.72,1.76,3.28s-2.07,1.07-3.19.67c-7-2.51-13.29-6.9-19.5-11.26-12.31-8.62-24-18.2-34.4-29.92-3.43-3.88-7.76-6.67-11.68-10Z"/><path class="cls-5" d="M683.65,417c1,13.92.07,28.31-1.31,42.52-2.62,27-5.65,53.95-12.74,80-.45,1.64-.27,4.52-2.5,4s-1-3.16-.73-4.76c3-16,6.11-32,9-48.07.83-4.58,1.1-9.3,1.56-14,2.92-29.19,5.34-58.41,3.73-87.87-.08-1.54-.88-3.93,1-4.11,2.36-.21,1.87,2.62,1.89,4.28C683.7,398.19,683.65,407.38,683.65,417Z"/><path class="cls-5" d="M154.3,513.7c46.88-6.93,91.23-23.44,134-46-41.46,27.48-86.2,42.76-133.24,49.41Z"/><path class="cls-5" d="M457.38,528.71c-19.76-42.38-45.19-79.15-78.72-107.89C395.88,421.89,455.63,503.57,457.38,528.71Z"/><path class="cls-5" d="M337,1307.34c0,1.18,0,2.36,0,3.54,0,1.72-.3,3.51-1.91,4-1.83.55-2.27-1.48-3-2.84-2.88-5.57-3.47-12.11-4.61-18.16-2.66-14.2-8.6-26.25-15.51-37.92-.69-1.17-1.37-2.34-2.05-3.52-.8-1.4-1.76-3.15-.32-4.39,2.1-1.81,3.32.62,4.41,2.12a123.6,123.6,0,0,1,15.63,28.4C333.12,1287.82,336.76,1297,337,1307.34Z"/><path class="cls-5" d="M467.66,637.88c-12.5.29-78.51-77.28-82.5-94A550.88,550.88,0,0,0,467.66,637.88Z"/><path class="cls-5" d="M732,666.26c12.59,18.85,21.36,38.82,28,60.18,5.23,16.91,7.65,34.49,9.31,52.25.14,1.55,1,3.77-1,4.16-2.13.43-2.48-2.08-2.69-3.85-.46-4-.5-8-1-11.93a250,250,0,0,0-31.17-94.56C732.66,671,731.4,669.63,732,666.26Z"/><path class="cls-5" d="M248.76,814c-9.13-3-16.36-10.17-24.38-15.5-21-14-41.95-28.26-63.34-41.56-2.19-1.35-7-2.76-5.36-5.77,1.86-3.46,4.75,1.21,7,2.63,25.88,16,51.11,33.35,76.2,51,3.62,2.54,7.47,4.74,10.31,8.56Z"/><path class="cls-5" d="M574.55,842.45c-1.32,5.29-5.22,8.3-8.19,12-11.46,14.36-23.57,27.87-38.81,36.86a13.07,13.07,0,0,1-2.19,1.14c-.3.1-.72-.27-2.21-.88,6.27-5.2,12-10,17.74-14.7,9.85-8,9.92-8.06.41-16.26-5-4.34-10.25-8.39-15.41-12.54-1.68-1.34-3.39-2.6-3.9-5.74,4.57.14,7.21,4.06,10.4,6.41,5.63,4.13,11,8.71,16.38,13.33,3,2.56,5.19,2.26,8-.5,6.23-6.05,10.08-14.77,16.94-20.06C574,841.85,574.28,842.15,574.55,842.45Z"/><path class="cls-5" d="M505,1357.17c-1.83,14.39-.41,29.13-3.61,43.36-.34,1.51.07,3.79-1.9,3.77-2.29,0-2.15-2.47-2.11-4.25q.57-25.38,1.31-50.76c.08-2.67.86-5.66,3.51-5.74,3.29-.09,2.63,3.44,2.76,5.86C505.14,1352,505,1354.58,505,1357.17Z"/><path class="cls-5" d="M663,632.45c-1.39-2.73-2.86-3.59-5.25-1.07-15.23,16-33,27-52.11,35.21-7,3-14.16,6.85-22.53,6.8.91-3.15,2.85-3.57,4.74-4,19.69-5,37.17-15.73,53.77-28.53,5.88-4.54,11.18-10.09,16.84-15,1.52-1.32,3.14-4.06,5.2-2.52s-.47,3.71-.48,5.68c0,1.17-.15,2.35-.22,3.52Z"/><path class="cls-5" d="M1137.33,1199.48c-.33,7.65-.45,14-1,20.33-.17,2.14-.66,5.16-3.54,4.59-2.33-.46-2.12-3-2.3-5.12-.9-10.24,2.58-19.91,3-30,.07-1.79,1.88-3.49,2.93-5.2,1.68-2.74,3-2.78,4.22.56a35.55,35.55,0,0,1,2.22,14.44c-.08,1.63.14,3.64-1.48,4.27C1139.5,1204.11,1138.48,1202.42,1137.33,1199.48Z"/><path class="cls-5" d="M1014.77,1307.92c1.38,8.77-2.15,17.53-2.38,26.71,0,2-.72,4.59-3,4.61s-2.83-2.34-2.92-4.56c-.54-13.28,2.88-26.06,3.77-39.16.09-1.46,1-2.69,2.45-2.51s2,1.6,2,3C1014.83,1299.81,1014.77,1303.58,1014.77,1307.92Z"/><path class="cls-5" d="M1029.88,1320.18c-.25,1.76-.28,2.72-.52,3.6-.67,2.42-1.15,5.67-4,5-2.48-.55-2.21-3.68-2.11-6,.4-8.68.92-17.36,1.45-26,.12-1.92.5-4,2.62-4,1.86,0,2.28,2,2.2,3.56a19.1,19.1,0,0,0,3.82,12.69c2.17,3.07,1.32,7.7,1.35,11.69,0,1.82.14,4.21-2.07,4.37S1030.74,1322.58,1029.88,1320.18Z"/><path class="cls-5" d="M99.3,1062.35c-4.55-4-6.78-9.34-9.76-13.87a119.59,119.59,0,0,0-15.2-19c-2.07-2.07-3.43-5.14-7.59-2.63-2.83,1.71-4.47-3.83-6.15-6.46-1.38-2.17-5.07-4.75-2.72-7.51,2.11-2.47,4.66,1.22,6.72,2.81,13.28,10.21,24.12,23.33,33.2,38.46C99,1056.16,100.4,1058.34,99.3,1062.35Z"/><path class="cls-5" d="M124.1,1038.94c.8-1.61.06-3.75,1.56-4s1.64,1.67,1.93,2.94c1.54,6.69.89,13.56,1.1,20.36,0,1.32.11,3.2-1.46,3.36-1.82.18-2.09-1.8-2.48-3.36-1.88-7.41-3.78-14.81-5.61-22.24-2.1-8.57-4.13-17.17-6.22-25.75-.4-1.64-.94-3.51.82-4.24,2-.82,2.21,1.37,2.61,2.87C118.91,1018.71,121.44,1028.58,124.1,1038.94Z"/><path class="cls-5" d="M469.09,1359.06c.7-2.88-2.12-7.51,1.6-7.9,2.76-.29,3.2,4.51,3.74,7.76,1.32,7.81,2.95,15.55,4.27,23.35a74.41,74.41,0,0,1,.7,9.1c.08,2-.48,3.9-2.49,4.13s-3-1.54-3.39-3.35c-.58-2.47-.76-5.07-1.1-7.63C471.3,1376,470.19,1367.43,469.09,1359.06Z"/><path class="cls-5" d="M414.06,1259.18c-.83,2.82,1.26,4.55,1.42,6.87.14,2-.06,3.94-1.92,4.65s-2.94-.7-3.71-2.61c-3-7.38-3.43-15.46-4.81-23.28a4.35,4.35,0,0,1,1.14-3,1.55,1.55,0,0,1,2.6.58c1.1,6.44,6.7,8.7,9.12,13.73,1.11,2.3,4.15,5.73,1.27,7.87C416.64,1265.85,416.05,1260.66,414.06,1259.18Z"/><path class="cls-5" d="M910.15,1316.86c0-3.3,0-6.6,0-9.89,0-1.67.31-3.47,2-3.89s2.86,1.35,3.09,2.73c1.47,8.75,3,17.54,2.13,26.55a2.78,2.78,0,0,1-3,2.79c-1.93-.06-2.76-1.62-3.28-3.56C909.84,1326.77,910.21,1321.79,910.15,1316.86Z"/><path class="cls-5" d="M432,1409.21c-.05,1.42,0,3-1.33,3.67-1.63.89-2.85-.37-3.61-1.7-4.58-8.09-10.34-14.36-18.57-17.09a2.32,2.32,0,0,1-1.59-2.61c.12-1.19,1-1.37,1.75-1.64C415.65,1387.29,432.22,1401.05,432,1409.21Z"/><path class="cls-5" d="M940.6,1298c1.93.07,4,.62,4.4,3q2.26,12.35,4,24.8c.3,2.15-.54,4.44-2.76,4.74s-2.77-1.94-3.46-4c-3.13-9.3-2.22-19-2.11-28.57Z"/><path class="cls-5" d="M1126,1217.85c-.22,3.82-.29,7.1-.63,10.34-.16,1.6-.68,3.43-2.36,3.64s-2.68-1.47-2.86-3a136.5,136.5,0,0,1,0-28.65c.13-1.39,1-2.8,2.36-2.81,1.93,0,2,2,2.09,3.56C1125.13,1206.74,1125.6,1212.56,1126,1217.85Z"/><path class="cls-5" d="M863,1365.38c0,3.77.05,7.53,0,11.29,0,1.66-.24,3.47-2,3.78-1.46.25-2.16-1.13-2.62-2.44-3.16-9.06-1.74-18.44-1.24-27.73a2.22,2.22,0,0,1,2.23-2c1.73,0,2.65,1.42,2.83,3.07.48,4.65.71,9.34,1,14Z"/><path class="cls-5" d="M993.88,1274.43c.52-3.77-1.11-6.85-2.28-10.1-.44-1.21-1.27-2.75.17-3.73,1-.66,1.86.25,2.7,1,6.06,5.18,7.46,20.47,2.46,27-1.16,1.51-2.47,2.62-4.23,1.59s-1.68-3.12-1.08-4.93C992.78,1281.7,994.5,1278.4,993.88,1274.43Z"/><path class="cls-5" d="M832.1,1367.19a63.13,63.13,0,0,1,8.56,27.72,3.08,3.08,0,0,1-1.89,3.28,2.62,2.62,0,0,1-3.38-2.14C833.09,1386.71,831,1377.3,832.1,1367.19Z"/><path class="cls-5" d="M442.61,843.41c-.05,5.11-3.49,6.47-6.66,8-2,1-4.26,1.47-1.59,4.58a1.83,1.83,0,0,1-.3,2.93c-1.06.61-1.9-.32-2.68-1.09-8.3-8.23-16.5-16.62-24.94-24.66-10.79-10.28-21.83-20.22-32.65-30.45-3.08-2.92-5.41-3-8.37.39a119.79,119.79,0,0,1-12.8,13c-4.24,3.61-5.17,8.16-4.44,13.62s2.12,10.55,2,16c-.06,3.33,1.9,4.37,4.43,4.48,12.36.57,24.4,4,36.62,5.79a11.11,11.11,0,0,1,7.35,4.29c-6,1.32-11.23-.46-16-1.79-9.57-2.65-19.22-3.07-28.88-4.13-2.83-.32-3.62.45-3.52,3.55.17,5.42.16,10.84.23,16.27s2.33,7.43,6.93,7.33c9.13-.19,18.26,0,27.39.14,2.32,0,4.88-.57,7.05,2.52a10.88,10.88,0,0,1-8,2c-8.49-.71-17,0-25.51-1.42-4.77-.82-7.09,1.12-6.85,7.33.79,20.72-2.23,16.94,14.82,17.48,22.09.7,44.27.07,66.27,2.12,31.77,3,63.64,2,95.33,4.41,24.24,1.87,48.53,1.67,72.66,4.18,18,1.87,36,1.54,54,3.52,5.1.57,7.21-1.28,7.25-7.74.09-14.37.76-28.74,1.51-43.09.25-4.79-1.41-6.92-5.13-7.91a251.38,251.38,0,0,1-70.57-31.41c-3.93-2.51-6-2.11-8,2.62-1,2.4-3.27,4.09-5,6.11-.27-.3-.54-.6-.8-.91.61-1.72.89-3.8,1.91-5.1,2.79-3.53,3.67-7.09.22-11.72,9.39.45,15.08,7.58,22,11.31,18.38,9.92,37.17,18.31,56.79,24.09,10.26,3,9.86,2.69,10.66-9.63,3.29-50.52,3.53-101.13,4.11-151.75.21-17.88.51-35.77.66-53.67,0-6-.7-11.46-7.08-12.62l0,0c4.42.47,6.44-1.73,6-7-.23-2.58-.1-5.19-.14-7.79-.18-11.38-3.29-13.77-11.82-7.66-2.94,2.11-5.63,2.1-8.5,2.86-7.29,1.93-14.6,3.8-21.82,6-10.74,3.34-21.65,5.58-32.58,7.82-14,2.88-28,4.87-42.21,4.61-1.17,0-2.45.37-3.65-1.06a282.2,282.2,0,0,1,43.1-16,304.81,304.81,0,0,0,38.06-14.46c8.13-3.62,16.12-7.68,24.31-11.08,2.87-1.2,5.38-2.68,6.55-5.77,4-10.56,10.25-19.75,12.3-31.59,4.38-25.33,9.23-50.5,12.72-76.07,4.19-30.76,7.6-61.45,7-92.63,0-1.59-.25-3.33,1.31-5.05,3.45,2.68,4.58,6.82,4.62,11.23.3,41.75,1,83.48-.48,125.25-.61,16.71-2.37,33.29-2.8,50a18.45,18.45,0,0,0,6.61,15.13c3.22,2.57,1.5,5.61,2,8,2.47,12.45,10.46,20.38,16.77,29.66,19.69,29,41.18,56.29,59.82,86.28a140.87,140.87,0,0,1,11.23,21.75c.75,1.86,1.73,3.66.65,5.73-.7-.09-1.29,0-1.44-.21-6.28-10.2-14.92-17.88-21.51-27.85-6.08-9.2-12.47-18.77-19.77-26.2-13.08-13.3-20.87-31.84-34.93-44-9.23-8-17.56-17.32-26.29-26.06-1.11-1.11-2.31-2.18-3.82-1.32-1.78,1-1.63,3.14-1.59,5,.21,9.89-.55,19.82.72,29.69a43.38,43.38,0,0,1,.35,6.35c-.82,32.08,2.68,64,3,96.05.16,17.17,0,34.49,1.3,51.59,2.88,37.15,2.88,74.36,3.55,111.58.1,5.83,1.33,11.64,2,17.46.22,1.94,1.1,3,2.74,3.15,1.82.21,3.63.54,5.45.6,19.67.58,39.35.81,59,1.75,39.91,1.89,79.84,3.19,119.73,5.09,20.82,1,41.72,1.19,62.53,3.11,2.63.24,6.82,1.81,6.91-3.94.08-5-3.68-4.66-6.61-5.36-16.41-3.91-32.75-8.29-49.24-11.72-9.33-1.94-18.45-5.29-28.05-5.59-6-.18-9.81-6.67-15.9-7.47-16.27-2.14-32.3-6.25-48.4-9.58-26.63-5.52-53.21-11.41-79.82-17.1-6.74-1.44-13.43-3.21-20.26-4.17-1-.14-2-.48-2.27-2.39,7.91-2,15,2.35,22.48,3.22,16.68,1.94,33,6.49,49.56,9.67,20.69,4,41.34,8.38,62,12.67,20,4.16,40,8.76,60.14,12.7,4.22.82,8.57,2,12.49,5.9,3.3,3.29,9,3.88,13.71,4.6,7.85,1.19,15.5,3.38,23.16,5.47,5.24,1.42,7.46-.13,7.39-6.83-.19-19.11-.09-38.23.14-57.35.11-10.13.79-20.25,1.07-30.38.07-2.57.8-6.37-3.65-4.39-1.71.76-3-1-4.29-2.14Q924.63,805,905.85,787.67c-1.22-1.11-3.36-2.18-1.91-4.25,1.23-1.77,3.08-.12,4.35.87q17.19,13.34,34.26,26.89c1.83,1.47,4.45,2.54,3.89,6.42-.36,2.44,1.42,1.38,2.49,1.34,4.2-.18,6.53-3.27,8.34-7.19q8-17.44,16-34.89c.85-1.84,1.72-4.6,3.61-4.1,2.49.66,2,4,1.71,6.07-1.61,10.22-5.39,19.69-8.14,29.53-2.3,8.23-5.86,16.08-7.42,24.46-1.15,6.2,0,13,.17,19.49.21,10.84.45,21.69.56,32.53,0,1.93.55,5.06-1.94,5.1s-2.72-3.06-2.83-5.39c-.59-13.14-1.11-26.29-1.91-39.42-1.7,11.3.52,22.46.79,33.69.33,14.34-.9,28.76,1.89,43,.8,4.07,1.85,5.79,5.49,6.76,11.6,3.09,22.93,7.76,34.62,10.09,9.72,1.94,19.8,1.89,29.72,1.91,43,.08,85.86,5.24,128.87,4.7a26.25,26.25,0,0,0,6-.48c-16.85.18-33.3-4.23-50.07-5.31-17.93-1.16-35.7-5.29-53.61-7.19-13.1-1.39-26-4.31-39.14-5.5s-26.36-4.44-39.53-6.79c-1-.17-2.34-.28-2.21-1.74.2-2.16,1.64-1.3,2.82-1.15,17.45,2.33,35.06,3.65,52.31,7.22,12.75,2.64,25.79,2.1,38.38,6,4.44,1.36,9.23,1.32,13.88,1.62,15.14,1,30.24,3.16,45.2,5.38,16.63,2.46,33.48,1.82,50,5.83,7.89,1.91,16.2,1.35,24.25,1.49,14.83.26,29.48,2.6,44.25,3.45,28.18,1.62,56.38,1.24,84.57,1.71,3.62.06,7.22,1.14,10.84,1.64,2.47.33,5.14,1.92,6.82-2.14.79-1.9,2.72-.91,3.77,0,4.15,3.5,8.87,2.8,13.5,2.82,37.34.16,74.69-.44,112,.65,43.82,1.27,87.63.31,131.43,1a5.51,5.51,0,0,1,1.22,0c2.21.49,6.12-1.28,6.12,2.26s-3.91,2.18-6.12,2.21c-14.61.16-29.24.7-43.83.07-52.84-2.31-105.7-.78-158.55-1.48a7.49,7.49,0,0,0-2.94.39c19.78,2,39.85-1.57,59.41,3.92l-.06,1.82L1376,960.43c9.3,7,19,14.1,28.59,21.5a253.78,253.78,0,0,1,23.77,20.78c3,3,5.7,4.4,10.21,2.27,15.71-7.42,31.74-13.93,47.65-20.8,1.53-.66,3.28-1.63,4.65-.49,2,1.66-.23,2.69-.9,3.88-.88,1.57-.25,2.68.81,3.61s2.49,2.34,1.46,4c-1.6,2.63-.22,8.29-3.51,8-3-.23-1.62-5.11-1.57-7.88.09-5.26-1.74-6.11-5.58-4.42-10.22,4.51-20.47,8.9-30.71,13.32-2.27,1-3.5,2.22-1.76,5.18a55.8,55.8,0,0,1,2.75,6.31c2.8-.4,2-3,2.29-4.88s-.32-5.08,2.35-4.65c2.34.36,1.66,3.36,1.6,5.37-.27,8.85-1.32,10.76-10,18.8-1.84-2.17-.25-4.35,0-6.45.5-5,.45-9.94-2.77-14-2.15-2.71-4.57-2.08-6.4.16-2.14,2.62,1,4.13,1.89,4.75,4.23,3,5.48,6,1.69,10.62-.81,1-.37,3.58-2.29,3.46s-2.42-2.21-2.63-4.14c-.25-2.34-.06-4.82-.69-7-.86-3-2.47-5.57-5.78-4.84s-4.12,3-3.57,6.77c.68,4.63,1,9.35,1.35,14,.13,1.6.32,3.66-1.56,4s-2-1.72-2.32-3.3a47.12,47.12,0,0,0-1.59-6.78c-1.15-3.17,1.21-8.29-2.09-9.47-2.4-.85-5.69,1.68-8.57,2.7a6.3,6.3,0,0,0-1.72.68c-4.12,3.11-9.8,2.76-13.18,6.94-4,4.93,1.47,10.13.79,15.43a44.9,44.9,0,0,0,0,7.78c.23,4.75-3.69,2.2-5.39,4-1.48,1.53-2.88-1.51-3.12-3.73s-.37-4.69-.47-7c-.07-1.75-1.4-4.21.6-5.06,3.06-1.29,1.68,3.11,3.17,4.23.38-14.73-.3-15.27-11.61-9.3-5.84,3.09-6.1,5.3-2.37,11.38,2.46,4,1.28,9.44,3,14,.63,1.72-1.7,2-3,.63-1.83-1.91-1.88-4.58-2.44-7.19-.12,3-.17,6.11-.39,9.14-.11,1.64-.42,3.53-2.25,3.6s-2.33-1.75-2.42-3.41c-.14-2.78,0-5.58,0-10.11-1.29,4.6-2,7.52-2.94,10.3-.52,1.5-1.59,3.09-3.26,2.12-1.27-.74-1-2.34-.7-3.8s2.74-3.79,0-4.48a4,4,0,0,0-4.62,4.25c.19,4.2-.72,4.3-3.14,2-.59-.57-1.51-1.86-1.88-.88-2.82,7.62-10.9,3.27-14.71,8.89-.85,1.26-2.52,1.84-3,3.87-.9,3.57-2.1,6-4.12.59-.65-1.71-2.08-.85-2.17.17-.56,6.4-2.31,5.15-6.64,3.24-3-1.32-7.35,3-10.76,5.54-4.22,3.17-6.55,7.33-5.33,13.52a11,11,0,0,1-.4,4.89c-.71,2.42-.48,6.79-3.82,5.77-3-.91-.16-3.93-.13-6,0-2.82.32-5.65.31-8.48,0-1.46.67-3.82-1.42-3.9-1.8-.06-3,1.73-2.9,3.84.09,2.57.63,5.12.84,7.69.26,3,.75,6.15-.17,9.12-.61,2-1.33,4.17-3.33,4.72-2.6.72-2.22-2.64-3.23-3.94-2.06,1-.89,4.46-3.76,4.81-1.34-3.5-1-7.16-.08-10.69.43-1.63,1-3.06.29-4.68-.56-1.17-.68-3-2.22-2.93s-1.64,1.83-1.69,3.21c-.1,2.36,0,4.72-.12,7.08-.06,1.34.15,3.17-1.41,3.43s-1.65-1.6-2.25-2.78c-1.16-2.29,1.49-7.93-3.57-6.67s-1.63,5.5-1.44,8.55c.1,1.79,1,4.06-1,5-1.85.88-2.09-1.67-3-2.68-1.66-1.78-1.1-7.11-5.21-4.85-3.56,2-1.17,5.24-.79,8a20.64,20.64,0,0,1,0,3.13c-1.21.92-1.71.18-2.3-.48-1.63-1.81-1.53-7.06-4.39-5.48-2.64,1.47-3.34,6.1-2.74,9.89.39,2.48,2.19,5.51-.83,6.59-2.83,1-3.5-2.65-4.19-4.93-1.79-6-4.42-7.81-9.45-4.1-5.62,4.15-13.49,4.16-16.89,12.49a1.73,1.73,0,0,1-1.58.77c-5.81-1.37-10.19-.87-8.65,8.24a2.25,2.25,0,0,1-1.64,2.6c-1.41.36-2.4-.67-3-1.88-1.7-3.33-3.57-3.62-6.43-1.57-3.71,2.66-.43,4.68,0,7s3.55,4.71.69,6.78c-3.28,2.38-4.56-1.67-6-4-1.75-2.83-2.81-6.82-6-4.05.73,1.24,1.82,2.44,2.21,3.9.82,3.06,2.34,7.34-.69,8.87-3.2,1.62-3.2-3-4.06-5.39-.67-1.92-1.12-4.7-3.56-3.66-2.93,1.24-.8,3.46-.11,5.14s2.16,3.18.5,5-3,.83-4.21-.7c-.54-.67-1.2-1.46-1.87-.21-3,5.41-4.51,2.76-5.94-1.3-.67-1.89-1.95-1.38-3-.62-2.12,1.54-5.24,2-5.28,6,0,4.48-.07,9-.15,13.45a57.16,57.16,0,0,1-.31,7.76c-.39,2.46-.95,5.71-3.76,5.44-2.64-.25-2.36-3.4-2.39-5.69-.07-6.53,0-13.07,0-20.55-8,4.28-15.43,8.35-22.92,12.32-13.82,7.32-27.66,14.57-41.49,21.87-4,2.09-6.7,13.88-4.17,17.58.72,1,1.39.15,2.1.19,2.89.15,7.16,6.07,6.48,9a3.41,3.41,0,0,1-1.5,2c-1.14.65-1.9-.08-4.9-4.28-.12,1.76-.19,3-.29,4.3-.18,2.21-.57,4.54-2.83,4.77-2.74.28-3.14-2.37-3.49-4.74-.72-4.88-1.35-9.77-2.13-14.64-.41-2.57,1.21-7.13-3.53-6-3.57.83-6.76,2.59-5.57,8.08,1.84,8.42,3.63,16.86,5.61,25.24.66,2.77,1.91,5.81-.1,8s-5.13.79-7.37.29c-2.53-.57-1.41-4.39-1.61-6.84-.7-8.58,1.75-17.49-2-25.76a20,20,0,0,0-1.18-1.92c-3,3.69-3.43,8-3.48,12.45a142.16,142.16,0,0,1-3.64,32.1c-.52,2.13-.84,4.57-3.09,4.48-2.48-.1-3-2.56-3.3-5.08-.69-7,2.15-13.33,2.51-20.2.32-6,.58-12.23,3.2-19.34-6.68,1.62-11.61,4.91-16.38,8.39-1.82,1.32-1,3.73-.44,5.84a61.59,61.59,0,0,1-1.73,37.22,32.36,32.36,0,0,1-2.92,5.36c-1,1.61-2.07,3.19-4,2s-1.84-3.19-1.06-5.45c3.68-10.6,5.86-21.46,4.86-33.06-.69-7.94-2-9-8.35-5.49-.55.3-1,.9-1.59,1-16.85,3.48-18.2,18.45-18.87,34.08-.16,3.74.94,10.06-3.34,9.87-5-.22-2.8-6.66-3-10.48-.24-5.18,2.41-9.86,2.24-15.23-.15-4.62-1.44-5.64-4.69-3.38-6.84,4.75-14.81,6.61-21.31,12.78-2.67,2.54-8.2,2.23-12,5-.9,3.3,5,3.82,2.48,7.3-1.29,1.75-3.27-.8-5.55-1.76.63,8,.46,15.57,2,22.68,1.49,6.83,1.27,13.53,1.41,20.33,0,2.59-.05,5.81-3.06,5.86s-3.34-3.17-3.19-5.74c.42-7.43-2-14.43-2.18-21.72-.18-7,0-14,0-21.86-8.36,9.89-11.22,25.71-7.45,39.59,1.4,5.14,1.24,11.26,6.71,14.13,1.94,1,2.2,4.36,2.83,6.85a3.41,3.41,0,0,1-.46,3.3c-1,1.1-10-1.09-10.45-2.73-3.82-12.68-7.23-25.42-4.57-39.16a74.09,74.09,0,0,0,1-9.8c.1-1.75,1.54-4.19-.23-5.15-2-1.07-3.81.75-5.33,2.39a10.78,10.78,0,0,0-2.58,7c-.18,3.06-.29,6.12-1.45,9l.06-.08c-1.83,8.9-2.21,18.14-4.63,26.92-.74,2.67-.77,5.63-1.56,8.27-.94,3.12-1.17,8.43-4.86,7.6-4.61-1-2.2-5.62-1.77-9.27,1.59-13.36,5.18-26.1,8.29-39,.43-1.77,1.37-3.89-.19-5.25-1.24-1.08-2.72.3-4,1-6.07,3.24-12.14,6.51-18.16,9.86-7.14,4-5.53,12.39-6.7,19.12-.9,5.23-.24,10.82-.35,16.24a48.48,48.48,0,0,1-.54,7.74c-.48,2.6-.51,6.44-3.86,6.05-2.68-.31-3.05-3.65-3-6.2a207.63,207.63,0,0,1,2.12-28.09c.38-2.48,2.17-5.38.21-7.25-1.7-1.61-3.7.79-5.51,1.77-3.86,2.08-7.73,4.15-11.65,6.06-7.68,3.73-8.24,5.12-5.6,14.4.5,1.76.84,3.59,1.34,5.75,1.12-4.42,1.33-8.76,3.25-12.45.68-1.31,1.07-3.42,3-2.67,1.45.56,1.41,2.17,1.19,3.59-1.08,6.9.12,14.08-2.48,20.88a34.43,34.43,0,0,0-1.84,13.88c.11,2.34,0,5.19-2.76,5.38-2.24.16-2.74-2.38-3.3-4.4a129.31,129.31,0,0,1-4-26.35c-.62-9.69-2.22-10.75-9.58-6.67a87.06,87.06,0,0,1-10.55,5.44c-5.21,2-6.4,5.6-5.81,11.87,1.59,16.82,5.08,33.41,4.61,50.45-.09,3.32,2,9.17-2.5,9.26-4,.08-3.64-5.73-4-9.68-1.88-18.2-.62-36.72-4.54-55.51-8.07,4.46-16.33,8.74-24.34,13.59-3.48,2.1-4,14.2-.84,16.75,2.3,1.82,2.81,4.45,3.94,6.85.86,1.82,2.3,4-.13,5.4-2.27,1.31-3.2-1.08-4-3a31.21,31.21,0,0,1-1-3.4c-1.26,1.45-1.59,4.5-4,3.65S808,1373,808,1370.61c0-3.52.51-7,.69-10.56.08-1.58.42-3.6-1.34-4.23-1.43-.5-2.8.4-3.88,1.52-2.13,2.23-2.52,5.21-2.64,8.37a151.78,151.78,0,0,1-3.72,26.4c-.47,2.18-1.07,4.37-3.44,3.92-2.12-.4-2.76-2.49-2.87-4.79-.32-7,2.78-13.22,2.92-20.11,0-2.75,1.18-5.47.15-8.66-6.89,2-12.46,5-12.91,14.83-.17,3.63-1.77,7.19-2.85,10.73-.54,1.75-1.24,3.81-3.27,3.55s-2.23-2.44-2.32-4.34c-.21-4.5,0-8.94,2.44-13.53-4.7-.63-7.69,2-9.93,4.85-2,2.49-2.42,6.22-6.75,5-1.87-.5-1.07,3-1.48,4.62-.66,2.63-.28,6.58-3,7.08-3.28.6-3.29-3.39-3.78-6-.53-2.82-2.09-4.12-3.75-2.08-5.57,6.8-13.51,7.34-20.26,10.92-2.76,1.46-3.51,3.67-3.13,6.77.76,6,1.43,12.12,2.47,18.11.51,2.9.48,5.55-2,6.58-2.82,1.19-3-2.11-3.82-4.12-2.78-6.48-2.32-13.76-3.73-21.1-12.44,5-23.69,12.15-35.85,19.28,11.42.49,10.16,10,11.24,18.23,1.42,10.72,2.9,21.4,3.48,32.24.31,5.73-1.57,8.11-6.65,8-11.36-.27-22.73-.22-34.09-.06-4.52.06-6.64-2-7-7.32-.54-7.51-1.36-15-2.46-22.44-.45-3.1.14-8.36-4.33-7.69-4.09.62-8.55,2.31-8.8,8.81-.13,3.53,0,7.1-1.15,10.47-.37,1.08-.71,2.46-1.89,2.48-1.62,0-1.58-1.68-1.95-3-.93-3.29,1.94-8.32-2.32-9.79-2.87-1-5.69,2-8.45,3.4-3.14,1.63-6.15,3.64-9.37,5-1.6.68-4.06,3.52-5.16.09-.95-2.92,2.18-3.39,3.85-4.33,5.1-2.88,10.2-5.76,15.43-8.28,4.28-2,6.4-5.15,6.07-10.77-.32-5.4-.17-10.85,0-16.27.14-3.94-.95-6.81-3.9-8.84-12.83-8.78-22.09-22.6-34.09-32.62-4.69-3.92-8.77-6.44-14.26-2.32-2.79,2.1-3.17,3.86-.67,6.42,5.62,5.76,11,11.78,16.86,17.27,10.55,9.94,20.63,20.49,30.53,31.28,1.31,1.43,4.16,3.18,2.32,5.58s-3.48-.73-4.86-2.12c-13.33-13.4-26.69-26.76-39.86-40.37-3.39-3.5-4-2.23-4.64,2.11-.88,6.25-2.17,12.44-3.46,18.6-.53,2.54-1.48,5.38-4.39,4.59-2.43-.67-2.77-3.42-2.31-5.79,1.46-7.55,2.91-15.09,5.75-22.2.65-1.61,4-1.94,2-4.85-1.84-2.65-4.1-4.65-7.27-4.26-7.63.93-11.77,7-10.69,15.82.34,2.75-.25,5-2.38,5.71-2.59.84-3-2.47-4.29-4.08-1.52-1.85.71-7.27-3.08-6s-8.4,2.33-9.4,8.65c-1.21,7.7-1.43,7.66-6.5,3-2.42-2.21-10,1-11.53,5.47s-2.22,8.78-7.32,3.84c-1.64-1.59-3.4.8-4.92,1.69-13.21,7.74-26.36,15.61-39.52,23.47-1.9,1.14-3.67,2.82-7.06,2,5-5.19,10.32-7.78,15.3-10.91,10-6.28,20-12.43,30.21-18.22,4.82-2.74,7.13-6.44,6.52-12.74-.95-9.74,1.7-19.12,2.43-28.7.13-1.65.45-3.62,2.2-3.7,2-.08,1.65,2.15,2,3.67,1.57,8-.31,16,.09,24,.14,2.73-1.69,6.49,1.74,8,2.12.94,9.28-5.37,9.58-8.23s.09-5.66.3-8.47c1-12.81-2.16-26,2.41-38.48.78-2.12-.38-3.46-1.71-4.77q-32.24-31.73-64.41-63.51-23.85-23.46-47.82-46.76c-6.34-6.18-12.8-12.19-19-18.09-2.41,1.1-1.74,3-1.71,4.47.36,15.57,1,31.08,4.23,46.32,1.07,5.12,2.51,10.43-1.25,15.42-1.1,1.46-.84,4.51-.84,6.83,0,14.39.11,28.78.06,43.17,0,2.39,1,6.48-1.71,6.6s-2.93-4.17-3-6.8c-.29-11.74-.19-23.48-.39-35.22q-.72-41.23-1.58-82.48c-.07-3-8.65-14.84-11.39-15.5-3.27-.8-2.45,2.45-2.33,4.11.76,10.13,0,20.24,0,30.36-.21,27.37-.17,54.74-.3,82.11,0,6.82-.34,13.64-.43,20.46-.06,5.29,2.15,7.21,6.81,7.25,8.51.08,16.24,3.41,22.83,9.85a18.5,18.5,0,0,1,4.13,6c1,2.34,2.66,4.64.07,6.79-2.29,1.91-3.72-.31-5.12-2-6.28-7.54-12.84-14.19-22.55-15.21-4-.41-6.69.15-8,5.27l-1.58-.49c-.22-7.47-.61-14.93-.65-22.4-.17-31.72,1.19-63.44-.46-95.15-.59-11.34.27-22.64.88-33.93.38-6.85-1.14-12-6.32-15.44-2.92-2-4.81-5.68-8-6.86-1.39,1-1.18,2.26-1.2,3.37-.68,39.89,1.34,79.72,1.47,119.59q.09,29.4,0,58.8c0,1.88.67,5.06-2,5-2.26-.09-2-3.11-2.16-5.15-.78-11.76.11-23.51-.81-35.33-2.89-36.89-1-73.93-1.74-110.89-.26-13-.87-25.92-1.16-38.88a10,10,0,0,0-3.57-7.68c-31-29.17-61.8-58.65-93.42-86.94-12.32-11-24.19-22.69-36.91-33.17-5.42-4.47-10.26-10.17-16.9-15.72,0,8.61.07,15.83,0,23,0,2.48.27,6.21-2.61,6.2-3.17,0-2.21-3.88-2.21-6.18,0-7.06-.52-14.19,1.21-21.11.84-3.34.37-5.85-2.3-7.89s-4.66-4.6-7.24-6.43c-2-1.43-3.6-5.4-5.88-4.16-3,1.64-1.5,5.93-1.55,9-.17,9.44,0,18.88-.09,28.32,0,2.42.77,6.48-1.89,6.6-3,.14-2-4-2-6.24-.06-12.74-.13-25.49.27-38.22.13-4.1-.88-6.57-3.64-8.85-4.29-3.53-8.83-6.92-12.4-11.32-9.31-11.5-21.1-8.65-32.47-8.46-3.1.05-3,2.53-2.07,5,6.19,16.38,12.44,32.73,18.62,49.12,3.82,10.11,7.55,20.28,11.34,30.41.65,1.73,1.88,4.11.2,5.07-2.23,1.28-3-1.87-3.58-3.52-5.33-14.24-10.49-28.57-15.71-42.86q-7.23-19.82-14.5-39.61a5.68,5.68,0,0,1-.49-1.29c-.24-2.8-5.73-1.61-3.56-5.87,1.68-3.3,4.83-1.43,7.33-1.49,5.67-.13,11.34,0,16.73,0,.91-1.59.19-2.19-.42-2.74q-17.58-15.71-35.17-31.38c-2.19-2-4.11-3.47-5,1.36a2.36,2.36,0,0,1-2.78,2.13A2.46,2.46,0,0,1,97,949.37c2.67-5.82.26-9.49-5.77-13,5.28-.87,11,.47,9.58-5.82-2.23-10.06,2.65-14.36,8.62-18.77,2.31-1.71,1.57-4-.26-5.84Q95.57,892.41,81.94,878.9c-1.86-1.83-4.23-1.31-6.44-1.47C53.22,875.81,30.91,876,8.59,876c-2.64,0-5.68.72-8.59-4.41,25.76,1.93,50.28,1.41,75.72,1.53-10.6-13.58-23.37-23.07-33.07-36.31,4.93,1.31,8.34,5.14,11.88,8.71q12.38,12.5,24.71,25a9.67,9.67,0,0,0,6,3c21.81,2.86,43.7,2.1,65.57,2.28,25.15.2,50.28,2.23,75.43,1.26,1.74-.07,6.77,4,5.62-3.72-.23-1.53,2.09-.5,2.8.33,3.22,3.74,7.25,3.51,11.34,3.78,20.44,1.37,40.87,2.94,61.37,2.72,5.72-.06,7.68-2.18,7.17-8.58-.33-4.21,0-8.49-.11-12.73-.07-1.93.93-4.63-1.44-5.48a3.26,3.26,0,0,0-3.18,1.41c-1,2.46,2.59,2.58,1.9,6.75-10.83-10.59-22.64-5.61-35.62-2.33,2.64-4.2,5.12-4.22,7.4-4.46a14.93,14.93,0,0,0,6.94-2.27c3.2-2.08,3.91-3.69.29-6.33-12.53-9.12-24.94-18.44-37.39-27.7-1.68-1.24-3.76-2-4.55-4.43l.48-.66c11.41,6.18,21.5,14.94,32.25,22.42,5.39,3.74,10.68,7.65,15.94,11.64a6.56,6.56,0,0,0,7.31.93c9.64-4,10.07-3.76,9.64-15.86-2.77-77.1-1.17-154.26-2.53-231.37-.78-43.64-.6-87.28-1.1-130.92-.05-4.34.2-8.24-4.56-10-4.08-1.55-2.33-6.38-2.77-9.9-.31-2.4,1-5.76-1.94-6.71-2.37-.78-5.51,0-6.73,2.16-3.62,6.46-8.69,6.58-14.59,7.74-11.3,2.21-22.6,4.75-33.92,7-19.28,3.91-38.65,7.07-58.1,9.86-21.25,3.05-42.53,5.34-63.83,7.59-5.48.58-11,.63-16-2.64a6.23,6.23,0,0,0-7,0c-3.16,1.94-6.72,1.61-10.05,2.6-1.51.45-3.51,1-4.28-1.25-.88-2.59,1.39-3,2.67-3.85a84.45,84.45,0,0,1,20.82-9.71c21-7,42.14-13.53,63.41-19.46,16.34-4.55,32.8-8.42,49.38-11.47,23.78-4.39,47.62-8.57,71.74-9.59,4.77-.21,8.94-.75,9.57-7.91.27-3.08,2.74-4.48,5.09-5.52,5.06-2.24,7.18-6.41,6.44-12.71-.3-2.55.07-5.2-.15-7.78a24.58,24.58,0,0,1,4-16.56c4.48-7.16,6.26-16.67,9-25.24,10.27-32,22.39-63.05,35.44-93.63,7.18-16.84,15-33.35,20.22-51.25,2.24-7.63,8.15-11.49,13.28-15.95,1.86-1.63,3.12-.11,2.5,2.51-4.8,20.39-9.57,40.79-14.51,61.14-4,16.27-8.27,32.42-12.2,48.69a623.87,623.87,0,0,1-28,86.42c-2.57,6.4-5.63,12.65-7.33,19.36-1.24,4.9-2.41,10.49-.68,15.67a31.88,31.88,0,0,1,1.11,15.31c-.76,4.68.79,6.89,3.82,9.09,5.9,4.28,11.9,7.9,19.06,8.43,2.38.18,6.4.19,2.32,5.37-1.61,2,1.45,4.5,2.69,6.36,13.55,20.26,27.38,40.27,40.86,60.6,18.81,28.35,36.89,57.3,51.05,89.27,1.11,2.51,2.06,5.13,3.12,7.67.61,1.48,1.69,3.25,0,4.32-1.91,1.22-2.84-.73-3.66-2.47-4.75-10.12-9.32-20.37-14.32-30.32-12.2-24.23-26.58-46.7-41.38-68.82q-21.81-32.58-43.6-65.16a10.48,10.48,0,0,0-4.27-3.7c-3.87-2-7.59-4.33-11.42-6.42-1.57-.86-3.34-2.9-5-1.14-1.89,2,.13,3.92,1.11,5.49,3.46,5.52,6.87,11.09,10.64,16.32q47.39,65.84,94.85,131.6c2.32,3.22,7.15,7.87,3.74,11.09s-6.2-3.58-8.51-6.64c-15.51-20.47-30.77-41.2-46.13-61.84C378,523,362.22,501.94,346.54,480.71c-4.19-5.67-8-11.7-12.64-17.37,3.21,15.79.68,31.76,2.26,47.51a44.73,44.73,0,0,1,.49,5.63c-.83,26.66,2.62,53.12,2.9,79.76.17,15.76,0,31.67,1.42,47.33,2.68,30.54,1.58,61.24,3.79,91.7,1.89,26.26,1.27,52.62,3.77,79.35,6-4.11,10.66-9.6,15.55-14.77,3.31-3.49,5.51-10.35,11.2-1.08,4.52,7.36,12.36,11.94,18.65,17.87,8.81,8.28,17.64,16.53,26.27,25.06,3.15,3.12,6,5.63,10.2,2.76,1.43-1,3.11-.56,4.76-.25,2.86.55,2.88.41,3.17-4.08l4.29,3.31Zm-138.81,279q21.49,20.52,43,41c1.06,1,2.37,2.46,3.66.75,1-1.36.6-3.2-.32-4.55a20.59,20.59,0,0,0-3-3.41c-8.95-8.4-17.88-16.82-26.9-25.12-4.82-4.42-9.18-10.19-16.36-8.72-.32-3.26.55-6.28-2.69-9.18-17.27-15.49-34.2-31.48-51.15-47.44-2.76-2.6-5.41-3.46-10-1.74Zm353.33,129.29c-25.83-21.47-50.53-42-75.2-62.56-2.25-1.88-4.57-3.13-7.34-2.48-12.68,3-25.36,6-38,9.07-16.81,4-33.63,8-50.44,12-11.79,2.83-23.57,5.74-35.61,8.68,3.43,6.35,8.73,9.2,13,13.43q31.85,31.64,63.72,63.21c1.9,1.89,3.54,2,6,1.15,12.52-4.56,25.15-8.75,37.75-13,23.08-7.76,46.19-15.44,69.26-23.23C645.61,1256.14,650.89,1254,657.13,1251.68ZM1419,1012.43c2.94-.62,7,0,7.87-3.72s-3.11-5-5.21-6.9a381.15,381.15,0,0,0-43.52-34.8c-5.12-3.51-9.81-8.35-16.39-8.53-31-.83-62-.81-93-3.4-14.57-1.23-29.17-.74-43.75-1.94-13.17-1.08-26.45-.22-40.71-.22a47.86,47.86,0,0,0,3.73,3.31c21.44,14.66,43,29.16,64.28,44,4.08,2.85,7.71,3.39,12,1.57,3.24-1.37,6.69-2.6,10.27.63-3.76,3.88-8.56,1.52-13.13,4.11,14.59,9.85,28.39,19.15,42.16,28.5,1.44,1,2.65,1.68,4.5,1,12.91-4.63,25.88-9.08,38.83-13.58,1-.34,2-.57,3,1.75-12.32,6.45-25.63,9.64-39.08,15.69,2.51,1.67,3.81,3.1,5.29,3.41,3.62.75,6.25,11,11,1.73,0-.09,1.3.29,1.42.69,1.3,4.33,3.77,1.62,5.43.94,4.57-1.85,9-4.1,13.47-6.41,23.79-12.43,48.1-23.34,72.45-34.15,1.13-.5,2.37-1.51,3.26,0,1.06,1.84-.15,3-1.37,4C1420.91,1011,1419.94,1011.69,1419,1012.43ZM330.47,946.94c-4.57-5.86-4-13.34-5-20.3-.33-2.23.39-5.74-2-5.95-2.68-.23-1.94,3.41-2.36,5.5-.36,1.81-.21,4.31-2.22,4.46-2.38.18-2.66-2.32-2.9-4.5-.33-2.86.56-6.95-3.33-7.07-9.16-.28-18.33-.09-28.12-.09,3.24,5.5,7.53,7.94,11.1,11.28,13.56,12.67,27.25,25.14,40.89,37.7,1.89,1.74,4.38,3.16,5.81.53,1.2-2.21-1.82-3.09-3.06-4.35-4.19-4.27-8.54-8.33-12.82-12.48l1.33-1.74c6,5.15,12.1,10,17.8,15.55a13,13,0,0,0,9.94,3.94c32.66-.25,65.31-.29,98-.52,4.92,0,9.83-.72,15.66-1.17-10.18-11-22.08-17.76-30.34-29.47,14.31,7.7,25.19,21.71,40,28.46-3.38-6.54-9.91-9.12-14-16.13,3.64.33,5.35,2.85,7.56,4.18,6.79,4.09,11.42,12.27,20.57,12.06,27.17-.62,54.35-.36,81.53-.51,1.6,0,3.43.65,4.89-.77-4-6.13-10.88-7.75-14.35-15.26,10.7,3.81,16.46,17.63,29.89,15.73-12.27-10.18-22.59-21.15-34.71-29.18-8.27-5.49-17-9.58-26.92-9.55-21.48.07-43,0-64.43-1.71-15-1.19-30-1.36-44.95-2.12-22.68-1.14-45.43.63-68.06-2.4-3-.4-4.13,1.32-3.32,4.71,2.2,9.28,1,18.77,1.25,28.16.06,2.34.7,6.18-2.49,6-2.94-.13-2.27-3.87-2.4-6.3-.36-6.59-.32-13.21-.93-19.76-1.33-14.25-1.46-14.06-14.05-13.86-4.47.07-5.11,1.81-4.85,6.83C329.36,933.55,332.26,939.89,330.47,946.94Zm228.21,222.82c-10.45-7.73-18.66-16.66-28-24-13-10.31-25.52-21.56-38.25-32.4-1.44-1.23-2.7-2.74-4.85-2.27-9.57,2.09-19.31,2.36-28.94,3.74-31.1,4.45-62.16,9.38-93.42,12.31-1.82.17-4.2,0-5,1.93-1,2.48,1.67,3.47,2.89,4.66q30.93,30.06,62.05,59.87c2.48,2.37,5.08,3.73,8.85,2.85,6.52-1.52,13.08-2.9,19.61-4.25,21.23-4.4,42.49-8.55,63.63-13.51C530.67,1175.51,544.11,1172.87,558.68,1169.76ZM1193.47,1011c0-.39.07-.79.1-1.19-7.51-3.12-14.92-6.68-22.57-9.27-13.36-4.52-26.37-10.27-39.79-14.67a252.48,252.48,0,0,1-24.48-9.46c-9.94-4.43-20.19-7.3-31.3-7.1-28.38.51-56.76.94-85.13,1.56a29.11,29.11,0,0,0-14.59,3.8c-7.56,4.4-15.28,8.43-23.41,12.87,3.69,3,7.28,5.54,10.57,8.56s7,3.31,11.23,3.37c15.64.24,31-3.81,46.63-3.35a91.14,91.14,0,0,0,17.6-.9c2.51-.41,7.24-2,7.41,1.34.21,4.08-4.46,2.58-7,2.59-21.41.08-42.57,4.2-65.46,4.87,12.3,9.51,23.46,17.89,34.36,26.73a15.08,15.08,0,0,0,10.75,3.64c10.53-.4,20.82-3.3,31.26-4.07,6.77-.5,13.09-3.65,20-3.06,4.32.36,8.47-2.13,13.22-2.19,12.65-.16,25.28-2.42,37.91-3.95,1.27-.15,2.94-.17,3.35-2.89a541.26,541.26,0,0,1-52.75-44.63c5.17,1.43,9,5.19,13.12,8.54,9.11,7.5,18.91,13.81,27.62,22,10.81,10.16,22,17.49,37.13,13.35,11.53-3.15,23.61-3.53,35.44-5.17C1187.65,1012,1190.56,1011.48,1193.47,1011ZM121.78,909.88c1.84,2.53,2.37,3.58,3.13,4.27,18.82,17,37.61,34.09,56.57,50.88,3.08,2.72,5.83,6.27,10.55,6.23,41.75-.39,83.5-.54,125.25-.76,2.63,0,5.27,0,7.9-.18,1.41-.07,3.21-.12,3.79-1.72.89-2.46-1.39-3-2.55-4.06q-21.17-20-42.36-40c-5-4.7-10.18-7.6-17-7.78-23.09-.62-46.15-2.49-69.25-2.35-12,.07-23.84-1.67-35.77-2.31C149.13,911.41,136.24,910.68,121.78,909.88ZM472,1095.2c-15.86-13.92-31.7-27.4-47.1-41.53-6.63-6.08-13-10-22-9.19-28.06,2.54-56.18,4.34-84.29,6-10.94.63-21.74,3.21-32.74,2.64-1.37-.07-3.1-.1-3.72,1.73-.76,2.24.9,3.33,2.11,4.56.91.93,1.75,2,2.69,2.85q22.47,21,44.94,41.88c5.74,5.37,10.63,8.91,19.6,7.7,21.82-3,43.68-6.06,65.62-8.16,16.89-1.63,33.74-3.78,50.62-5.7C469.1,1097.77,470.59,1097.85,472,1095.2Zm297.49,117.26c-22.69-18.1-44.89-35.78-67-53.52-1.61-1.29-3.06-2-5-1.34-5.44,1.94-11.1,2.64-16.64,3.92-20.4,4.71-40.71,9.91-61.06,14.9-7.7,1.89-15.61,2.88-24.46,6.75,25.36,20.19,49.56,39.35,73.63,58.72,4.28,3.45,8.06,4,12.92,1.45,4.53-2.42,9.61-3.48,14.45-5.1C715,1232,734,1226.08,752.6,1219.18,758.08,1217.15,764.24,1217,769.46,1212.46Zm-97.52,55c.94-.2.12-.13-.65.14q-24.39,8.63-48.76,17.3-33.91,12.14-67.81,24.36c-2.1.75-5,.59-5.63,3.36s2.18,4.23,3.74,5.82c13.24,13.5,26.65,26.77,39.85,40.31,3.23,3.32,6.26,2.63,9.5.78,23.77-13.62,48.19-25.56,72.54-37.68,12.08-6,24.33-11.55,36.46-17.43,1.81-.88,4.19-2,4.84-3.78.83-2.24-1.89-3.22-3.27-4.34-11.12-9-22.33-17.9-33.48-26.87C677.56,1268,675.87,1266.8,671.94,1267.43ZM1104,1104c.31,1.14.61,2.27.91,3.41,30.28-9.21,60-20.79,91.7-31.89-2.16-1.51-2.88-2-3.55-2.49-16.92-13.35-34.24-26.09-50.6-40.31-8.5-7.38-17-9.52-26.66-6.64-12.67,3.76-26.54-.18-38.45,8.2-4.81-4.49-9.73,1.51-14.88-.36-5.43-2-10.32,3.86-16.68,2.44-6.7-1.5-14,.86-21.1,1.64-1.34.15-2.88.3-3.65,2.51,9.6,9.15,20.87,15.58,30.71,24.38,3,2.69,5.83,3.42,9.56,2.51,17.77-4.33,35.59-8.35,53.4-12.51q14.23-3.33,28.45-6.76c1.2-.29,2.74-1,3.15.64.58,2.29-1.41,2.53-2.7,2.85q-23.11,5.88-46.25,11.64l-36.11,9c12.34,9.55,23.62,18.26,34.88,27,1.25,1,2.52,1.64,4,1.13,5-1.75,10-3.79,15.06-5.3,8.79-2.63,17.26-6.92,26.63-7C1130.1,1096.14,1116.26,1097.69,1104,1104Zm-424.29,39,.45-1.91-57.62-46.72a5.94,5.94,0,0,0-5.24-1.27c-11.14,2.66-22.48,3.18-33.72,4.78-19.67,2.8-39.29,6-59.05,7.93-5.25.51-10.44,1.93-16.77,3.15,19.64,16.79,38.07,32.82,56.8,48.32,3.95,3.26,7.45,8.89,13,8,9.39-1.47,18.72-3.58,28-5.65,15.63-3.49,31.22-7.2,46.84-10.73C661.56,1146.94,670.65,1145,679.72,1143.08ZM322.43,594.88c.53,31.77,0,72.76,1.57,113.79,1.68,43.06.78,86.28,2,129.41.47,17.19-.68,34.45,2,51.52.83,5.28-1.71,11.7,1.47,15.76s9,.73,13.4,2.37c3.72,1.39,4.44-.27,4.57-4.32.25-8.32-1.71-16.38-2-24.54-1-31.28-1.57-62.55-3.52-93.81-1.91-30.71-1.74-61.56-3.62-92.34-2-32.37-1.6-64.91-3.65-97.36-1.3-20.62-1.91-41.44-1.79-62.17.11-19.58-3.55-38.9-2.47-58.51.14-2.6-.11-5.64-3.14-5.8-2.78-.15-3.08,2.91-3.25,5.08-.67,8.44-1.45,16.9-1.5,25.36C322.32,528.09,322.43,556.87,322.43,594.88Zm111.19,447.18a5.6,5.6,0,0,0,2.48,4.48c15,13.13,30.41,25.74,44.92,39.58,7.52,7.17,15.14,8.72,24.16,7.12,18.36-3.26,36.91-4.85,55.35-7.29,14.58-1.93,29.23-3.66,44.38-5.44-1-1-1.64-1.74-2.42-2.38q-25-20.7-50-41.4c-2.06-1.72-3.95-2.81-6.66-2.45-21.56,2.87-43.28,3-64.9,4.78C465.25,1040.34,449.6,1042.49,433.62,1042.06ZM205.76,986.84c8.33,7.63,15.13,13.91,22,20.09,1.18,1.06,2.71,3.05,4.17.89,2.46-3.66,5.8-3,8.94-2.87,10.93.35,21.86,1,32.79,1.38,4.1.15,5.86,2.41,5.78,7-.08,5.19.18,10.39-.1,15.56-.33,6,1.43,8.32,6.91,8.32,6.57,0,12.84-2.57,19.23-2.5,27.78.28,55.33-4.52,83.07-4.77,2.25,0,4.8.36,6.58-2.81-11.86-10.8-23.79-20.94-35-32.1-7.95-7.93-15.87-10.89-26.78-10.68-38.71.76-77.4,3.19-116.13,2.45C214,986.78,210.82,986.84,205.76,986.84ZM632.09,1395a40.54,40.54,0,0,0,4.27-1.7q35.28-18.67,70.55-37.4c13.79-7.28,27.65-14.38,41.42-21.68,1.92-1,4.75-1.56,5-4.5s-2.6-3.21-4.21-4.49c-7.49-6-15.23-11.6-22.43-18-3.7-3.3-6.83-3-10.61-1.15-22.12,11-44.31,21.77-66.37,32.9-15.2,7.67-30.21,15.88-45.37,23.67-3.7,1.9-3.5,3.76-.8,6.46,7.19,7.22,14.3,14.53,21.53,21.67C627,1392.69,628.69,1395.39,632.09,1395ZM531.72,1019.43c-11.23-9.32-21.44-16.59-30.4-25.56-9.69-9.69-19.95-12.63-32.61-12-25.08,1.28-50.23.53-75.35.76-6.67.06-13.35.63-20,1-1.34.08-3.19-.38-3.66,1.61s1.46,2.58,2.32,3.79a11.53,11.53,0,0,0,1.8,1.89q18.74,16.72,37.49,33.42c3.11,2.76,6.42,5.34,10.57,3.5s8.73-2,13.18-1.9c26.52.42,52.82-4.45,79.32-4.64C519.52,1021.32,524.68,1020.25,531.72,1019.43ZM1248.4,1004c-.66-2.57-2.22-3.34-3.57-4.26-20.21-13.9-40.49-27.65-60.63-41.69-6.56-4.58-13.1-8.49-21.06-7.14-7.69,1.31-15.36-.49-23-.73-11.66-.37-23.32-1.88-35-1.76-8.11.08-16.23-.25-24.33-.69-19.42-1-38.83-2.28-58.25-3.43,13.09,4.82,26.26,9,39.44,13.22,7.58,2.42,15.12,6.75,22.75,7,22.94.78,46,1,68.84-.89,6-.5,12.28,2.56,18.22-1,1.3-.78,4.38-.61,4.5,2,.15,3.19-2.71,2-4.25,2.06-7.61.16-15.22.08-22.4.08-1,2.5,2.42,2.58.06,5.32-3.93-6.29-9.31-5.46-14.83-4.13-3.24.77-6.42,3.19-9.89.63-.67-.5-2,.18-1.85,1.11,1.29,6.67-2.85,2.8-3.79,2.22-5.76-3.51-11.78-2.56-19-2.31,14.79,7.57,29.83,9.7,43.67,16.49,13.54,6.65,27.74,11.59,41.83,16.58,6.14,2.18,11.78,6.28,18.55,6.32C1219.18,1009.12,1233.52,1004.56,1248.4,1004ZM849.9,1185.6c-.13-2.26-1.33-2.78-2.33-3.56-16.26-12.69-32.71-25.06-48.67-38.25-6.88-5.69-13.31-8.46-21.6-4.76-4.26,1.91-9.07,2.16-13.62,3.23-14.9,3.5-29.79,7-44.89,10.6,2.18,3.59,5.22,4.71,7.73,6.63,19.43,14.8,39,29.42,58.45,44.11a8.32,8.32,0,0,0,9,1.26c10.73-4.07,21.74-7.12,32.59-10.78C834.41,1191.42,842.19,1188.41,849.9,1185.6ZM1275,1046.39a63.52,63.52,0,0,0-5.59-3.24c-16.21-7.3-32.4-14.67-48.69-21.73-6.4-2.77-12.5-7.29-19.69-6.57-9.28.94-18.6,1.77-27.76,3.65-11.46,2.35-23.3,1.54-35.74,5.61,19.38,15.36,38,29.83,56.29,44.84,4.67,3.83,8.93,4.69,14.16,2.81,17.17-6.17,34.5-11.75,51.5-18.48C1264.54,1051.29,1270.39,1051.27,1275,1046.39ZM638.84,1091.6c20.55,16,39.69,30.8,58.79,45.71a5.31,5.31,0,0,0,5.71.89c8.25-3.24,17-3.59,25.46-5.88,13.83-3.75,27.94-6.18,42-9.17-.39-2.52-2-3-3-3.83-13.35-10.64-27.08-20.69-40-32-7.34-6.45-14.37-7.62-23.11-5.76-12.31,2.61-24.91,3.33-37.29,5.51C658.41,1088.63,649.19,1087.76,638.84,1091.6Zm168.65,127.81c1.4,1.24,2,1.83,2.58,2.3,18.61,13.63,37.3,27.11,55.81,40.93,6.81,5.09,13.24,5.3,20.52,1.3,11.3-6.21,22.91-11.67,34.36-17.51,1.59-.81,4.1-.61,4.4-3.1.34-2.83-2.19-3.69-3.8-4.92-15.88-12.15-31.94-24-47.63-36.49-4.45-3.53-8.39-3.61-13.06-1.83-7.1,2.71-14.28,5.12-21.41,7.71C828.93,1211.55,818.61,1215.34,807.49,1219.41Zm-114.71,40.87c14.77,11,28.3,21.07,41.87,31.09a3.35,3.35,0,0,0,4.09-.07c3.13-2.36,6.82-2.91,10.18-4.5,18.49-8.79,37.23-16.81,56-24.69,5.5-2.31,11.43-3.9,17-8.46-10.29-8-20.11-15.49-29.7-23.31-3.32-2.7-6.34-3.32-10.19-1.93-21.79,7.86-43.64,15.5-65.45,23.25C709.12,1254.3,701.71,1257,692.78,1260.28Zm-41.38-227c-.27-6.36-4.16-6.21-7.62-5.7-10.88,1.61-21.83,1.25-32.73,1.93-14,.88-28,2.63-42.28,4,.46,1.09.53,1.65.8,1.87q26,21.22,52.07,42.44a3.46,3.46,0,0,0,3.36.7c13.86-3.16,28-3.31,42-5.58,11.65-1.9,23.51-2.22,35.84-5.36-15.83-13.06-31.06-25.73-46.42-38.19C653.3,1026.88,652.1,1029.42,651.4,1033.26Zm155,99a11.45,11.45,0,0,0,1.66,2c19,14.23,38.09,28.38,57.09,42.65,2.67,2,5.25,2,8.1,1.05,9.09-3.11,18.21-6.13,27.3-9.26,8.79-3,17.56-6.15,27.26-9.55-15.19-11.81-30-22.33-43.84-34.44-8.85-7.76-17.32-7.42-27.17-4.69C840.28,1124.54,823.59,1128.08,806.37,1132.21Zm50.3-28.21c-16.13-12.52-30.88-24-45.62-35.44-1.65-1.28-3.52-1.2-5.31-.91-21,3.39-42.08,6.79-63.29,8.6-1.55.13-3.61.21-3.92,2.51-.26,2,1.7,2.39,2.81,3.27,13.49,10.75,27.28,21,40.41,32.37,5.9,5.09,11.61,4.55,17.75,2.91,12-3.2,24.07-5.84,36.22-8.11C842.22,1108,848.62,1106,856.67,1104Zm136.1,31.91-45.3-33.58a9,9,0,0,0-8.08-1.52c-19.91,4.76-39.87,9.3-60,14a7.14,7.14,0,0,0,1.11,1.87c16.87,13,33.79,25.82,50.59,38.88,2.26,1.75,4.19,1.18,6.31.46,12.38-4.2,24.9-8,37.06-12.9C980.26,1140.71,986.76,1140.53,992.77,1135.91Zm1,74.62c-16.44-12.84-31.66-24.79-46.95-36.61a8.22,8.22,0,0,0-8.19-1.09c-17.35,6.1-34.73,12.11-52.38,18.25.71,1.19.94,2,1.39,2.28q27.48,19.37,55,38.67a5.94,5.94,0,0,0,6.42.53C963.56,1225.45,978,1218.29,993.77,1210.53ZM634.6,1012.38a16.06,16.06,0,0,0-1.91-2.66Q615.26,995,597.77,980.34a7.35,7.35,0,0,0-5.72-1.86c-16.38,1.79-32.82.9-49.23,1.23-12.65.26-25.31,0-38,0l-.28,2.13q20.94,17.26,41.87,34.51a6.67,6.67,0,0,0,4.53,1.74C578.66,1017.13,606.3,1015.08,634.6,1012.38ZM1092,1197.06c2-.83,4.29-1.58,6.44-2.73q29.44-15.76,58.81-31.7c2-1.1,5.63-.84,5.38-4.57s-3.67-4.62-6.09-6.22a5.14,5.14,0,0,0-5.84-.09c-6,3.82-14.13,3.15-18.13,11.37-.57,1.18-1.72.72-2.72.81-10.59,1-20.16,4.9-27.74,14a2.29,2.29,0,0,1-3.21.72c-2.74-1.3-5,.39-7.49,1.24-10,3.36-18.41,10.57-28.28,14.47-15.47,6.12-30.29,14.43-45.36,21.88a8.22,8.22,0,0,0-3.38,2.71c-1,1.53,3.05,3.63.07,5.15-2.06,1-3.7-1.41-5.56-2.17-1.56-.63-2.72.43-4,1.06-10.62,5.21-21.3,10.24-31.82,15.72-3.44,1.79-9.2,2.27-9.62,6.25-.48,4.61,5.53,4.92,8.48,7.49a52.87,52.87,0,0,0,5.22,3.57c1.26.86,2.46,1.56,4,.58,9.86-6.4,22.18-7.6,29.69-19a2.94,2.94,0,0,1,2.15-1c10.31-.66,19.45-4.12,26-14.16.4-.62,1.75-1.27,2-1,3.89,4,6.85-.34,9.81-1.75,6.94-3.31,15-5.58,14.62-17.64-.1-3.18,3.44-4.82,5.91-5.13s2.46,3.17,3.23,5.21c.57,1.54.21,4.6,2.7,3.35,3.22-1.62,7.48-1.61,9.07-6.26C1087.41,1195.92,1088.71,1194.2,1092,1197.06ZM852.85,946.8c5.34,1.3,9.58,5,13.44,8.74,11.35,11,23.93,16,38.68,13.58,4.81-.79,9.82.78,15.06-1.11-5.22-5.51-11.61-8.27-16.59-15.32,6.14.77,9.61,4.54,13.24,7.56,6.36,5.28,12.49,9.51,21.08,7.91,9.47-1.76,9.56-1,10.37-12,.12-1.64.41-3.26.6-4.9.91-8.24-.1-9.39-7.09-10-13.13-1.15-26.14.25-39.24.9-27.74,1.37-55.54-.15-83.29-1.93-6.56-.42-13.15-.06-20.05-.06,2.09,4,5.56,4.8,8,7.17,11.73,11.31,24.58,18.54,40.5,15.28,3.46-.7,7.34-.82,10.77,1.24-8.36,2.34-17,.11-25.87,2.17,3.94,3.86,35.08,4.84,44.42,1.92C869,960.54,859.62,955.65,852.85,946.8Zm-180.44,78.37c.91,1.88,1.07,2.67,1.5,3,12.38,10.13,24.79,20.19,37.18,30.31,6.27,5.13,12.3,11.13,20.76,5.88.64-.4,1.59-.17,2.4-.17,15.8,0,31.25-4.2,47-5.24,4.67-.32,9.32-.82,15.7-1.39-13.62-10.44-26.11-19.09-37.65-29.19-7.18-6.27-14.42-8.7-23-7.64-5,.62-10.08.85-15.13,1.25C705.22,1023.29,689.36,1025.28,672.41,1025.17ZM854.83,1279.5c-8.4-6.54-16.1-12.11-23.38-18.36-4-3.41-7.48-3.45-11.84-1.5-18.69,8.35-37.49,16.37-56.21,24.64-7.69,3.4-15.27,7.13-23.61,11,10.61,7.83,20.63,14.85,30.27,22.5,4,3.21,7.26,1.43,10.73-.34C805,1305.09,829.23,1292.64,854.83,1279.5Zm95.92-111.11c-.12.68-.24,1.36-.37,2q23.49,17.94,47,35.85c1.66,1.27,3.5.88,5.25,0,15.61-7.65,31.16-15.49,46.87-22.86,4.61-2.17,3.22-3.38.26-5.55q-19-13.91-37.85-28c-2.83-2.09-5.58-1.82-8.67-.61-6.89,2.71-13.9,5-20.85,7.49C971.83,1160.64,961.29,1164.53,950.75,1168.39ZM261.47,903.75c-7.34-7-14.44-13.78-21.6-20.49-1.67-1.56-3.83-1.35-5.86-1.4-21.28-.56-42.55-1.71-63.86-1.56-15,.11-29.94.12-44.93-2.08-11-1.62-22.28-.52-33.44-.58-1.16,0-2.69-.39-3.24,1.19s.91,2.34,1.79,3.21c5.4,5.32,10.93,10.48,16.15,16A9.36,9.36,0,0,0,115.9,901c6.79-1.32,13.54-2.58,20.52-2.39,27.35.73,54.61,4.11,82,4,12.37,0,24.74,0,37,2.28C257.13,905.25,259,905.92,261.47,903.75Zm849.86,207.33c10.32,8,19.54,14.68,28.37,22,4.18,3.48,8.08,3.82,12.53,1.73,23-10.85,46-21.79,69.11-32.48,4.84-2.24,3.34-4,.3-6.33-5.9-4.59-11.8-9.18-17.61-13.92a8.33,8.33,0,0,0-8.69-1.36C1167.9,1090.62,1140.47,1100.55,1111.33,1111.08Zm-182.48-22.54c-14.6-10.79-27.69-20.51-40.86-30.09a6,6,0,0,0-4.08-.82q-31.1,4-62.16,8.23c-1.2.16-2.77.13-3.19,1.57-.56,1.92,1,2.73,2.18,3.64,11,8.42,22,16.69,32.78,25.37,5.81,4.67,11.55,7,18.76,4.76,3.27-1,6.53-2.46,10-2.94C897.25,1096.16,911.94,1092,928.85,1088.54ZM757,1376.27c4-4.14,3.62-8.45,4.77-12,.8-2.51,1.33-6.48,4.23-5.71s1.38,4.31,1,6.69c-.8,4.76.7,5.36,4.24,3.78a7.84,7.84,0,0,0,5-5.53c1-3.79,2.33-7.5,3.72-11.13.48-1.25.81-2.43-.19-3.07-3.47-2.22-6-6.59-11.29-3.53-16.5,9.51-33.32,18.24-50,27.44-22.66,12.52-45.27,25.19-67.89,37.82-1.38.76-3.28,1-2.34,3.88,2.21,6.74-1.51,5.52-4.59,4.23-1.85-.77-3.34-2.83-5.46-.82a2.08,2.08,0,0,0-.36,3c1.41,2.16,3,3.6,5.61,3.37,4.44-.39,8.9-.51,13.36-.54,5.87,0,11.51-.15,17.09-3.45,10.26-6.07,20.87-11.35,31.39-16.79,5.19-2.69,11.7-3.85,9-13.64-.47-1.67.06-4,2.2-4.29,1.83-.28,2.2,1.56,2.86,3,.87,1.9.32,4.93,3.21,5.29,5,.63,10-5.7,8.79-11.44a54.16,54.16,0,0,0-1.36-5.41c-.51-1.64-1.09-3.28.77-4.15,1.64-.77,2.71.45,3.44,2,1.09,2.26,2.1,4.57,3.1,6.89.66,1.52,1.35,2.9,3.08,2.9,4.53,0,10-6.14,10.11-11.73.11-4.51.26-8.94,2-13.1.58-1.4.4-3.69,2.37-3.43,2.16.29,2.06,2.59,2.09,4.43C757.06,1365.63,757,1370.09,757,1376.27Zm-.35-354.94c11.07,8.51,22.22,16.88,33.18,25.57,6.21,4.93,11.94,10.1,20.36,8.74,13.18-2.13,26.5-3.21,39.72-5.11,7.14-1,14.64.43,21.76-4.44-11.69-8.51-23.3-17-35-25.39-1.39-1-3.05-1-4.72-.86-19.85,1-39.69,1.87-59.52-.67C767.5,1018.53,762.39,1018.47,756.66,1021.33Zm564.87,32.1c-13.84-11.9-13.85-12-29-7.28-3.11,1-6,2.79-9.13,3.75-24.63,7.59-48.75,17.15-73.12,25.78-1.26.45-3.14,0-3.34,2.26-.15,1.66,1.32,2.19,2.29,3,6,4.88,11.94,9.7,17.86,14.64a6.18,6.18,0,0,0,6.89,1.09c3.41-1.45,6.88-2.75,10.21-4.42C1269.82,1079.43,1295.38,1066.56,1321.53,1053.43ZM559.28,929.88c3.16,2.82,5.58,5.49,8.78,7.24,11.5,6.31,22.76,13.24,34.34,19.34,6.57,3.46,12.81,9.34,20.15,9.11,16-.5,32-.17,48-.6,1.27,0,2.86.8,3.95-1.31-3.76-3.63-8.74-5.32-12.2-8.75-7.46-7.37-16-12.71-23.7-19.53-3.45-3.06-7.18-3.78-11.36-3.87-14.37-.31-28.75.34-43.12-1.45C576.2,929.07,568.09,929.88,559.28,929.88ZM676.64,617.33c0,3.51-.09,7,0,10.53.66,20.94,1.44,41.88,2.06,62.82.93,31.59-2.18,63.07-2,94.62.18,25.47-1.58,50.86-1.66,76.31a59,59,0,0,1-.82,7c-2.09,16.58-1.34,33.35-2.64,50-.3,3.88,1.66,5.51,4.86,5.48a24.93,24.93,0,0,1,5.47.18c5.67,1.21,7-1.85,6.62-7.84-1.91-27.93-1.62-56-3.12-83.95-2.09-39-2.11-78.08-4.11-117.1C679.67,682.74,680.74,650,676.64,617.33ZM396,1203.66c-.9,2.7-1.16,5.31,1.31,7.71,7,6.77,13.87,13.65,20.86,20.41,24.41,23.58,49,46.89,73.21,70.75,23.28,23,46.2,46.39,69.18,69.75,4.63,4.71,8.92,6.22,14.42,1.73,2.6-2.12,3.16-2.68.42-5.23-22.61-21-45.07-42.19-67.64-63.25-16.39-15.3-33-30.33-49.27-45.79-10.17-9.66-20.46-19.12-30.81-28.53S407.5,1211.78,396,1203.66ZM807.43,998.59c-10.26-7.46-20.51-15-30.82-22.32a6.07,6.07,0,0,0-3.53-.86c-24.22.43-48.44.91-73.88,1.41,11.67,9.16,22.2,17.41,32.72,25.68,2.06,1.61,4.26,2.84,6.79,2.69C761.47,1003.8,784.36,1004.7,807.43,998.59ZM322.49,398.67c0,3.39-.55,6.42,2.7,6.8s6.34,1.13,8.43-3.33c5.42-11.58,10.2-23.52,14.65-35.61a672.3,672.3,0,0,0,23-75.68c6.53-27.29,13.28-54.51,19.94-81.76a7.52,7.52,0,0,0-3,3.39c-11.62,23.12-17,49.2-25.67,73.71-7.07,20-14.06,40-20.8,60.13-5,14.85-13.69,28.24-13.25,45.29a30,30,0,0,1-1.28,8.28c-.36,1.36-.84,3.6-2.65,3.25S323.72,400.28,322.49,398.67ZM991.85,965.2c25.83,1.18,51.58,1.64,77.28-1.17-8.28-3.26-16.52-6.23-24.85-8.82-12.1-3.76-24.11-8.57-36.44-10.47-12.17-1.89-24.68-.82-37-2.14-5.15-.55-11.25-2-12.3,8a14.08,14.08,0,0,1-.89-3.59c-.24-2.13-.37-4.77-2.83-4.51s-2,3.18-2,5.12c.09,22.24-2.17,18.62,15.29,18.88,2,0,4.06-.13,6.09,0,5.36.31,10.39-.27,15-4.21,3.06-2.62,6.68-4.37,10-6.51,1.67-1.06,3.73-3.82,5.17-1.16,1.29,2.4-1.77,3.1-3.16,4.12C998.19,961.05,995,963.08,991.85,965.2ZM888.06,1304.9c-4.06-3.08-8.23-5.88-12-9.24s-7.29-3.57-11.73-1.16c-22,11.9-44.12,23.38-66.15,35.13-1.67.89-5.06.88-4.37,3.69.53,2.18,3.72,5.39,5.16,5,6.28-1.54,5.08,2.63,4.52,6.71-.58,4.28-.16,6.31,4.31,3.92,18.32-9.82,36.69-19.53,55.23-28.79,5.31-2.65,8.58-5.53,7-12.84-.35-1.65-.37-4.1,1.89-4.44,1.91-.29,2.26,1.86,2.57,3.31,1.26,5.92,4.25,5.53,8,3.38C884.44,1308.48,886.58,1307.75,888.06,1304.9ZM296,433.25c-6.12-3-11.67.55-17.39.77-22.87.89-45.28,5.82-67.79,9.9-18.13,3.29-36,7.94-53.88,12.88-9.91,2.75-19.74,5.92-29.6,8.91C184.55,461.54,241.65,456.78,296,433.25Zm653.22,665.11,48.12,35.24c1.51,1.11,2.94.81,4.6.2,6.72-2.45,13.51-4.63,20.25-7,1.63-.58,4.21.08,4.55-2.53.32-2.41-2.14-3.29-3.5-4.36-11.87-9.36-23.88-18.47-35.82-27.73a6.9,6.9,0,0,0-6.3-1.39C971.06,1093.23,961,1095.56,949.19,1098.36ZM435.76,1201.47c4.81,5.52,8.14,12.66,15.56,9.79,7.12-2.74,14.81-2.62,21.93-4.88,19.67-6.22,39.86-9.38,59.66-14.8,13-3.55,26.14-6,40.85-9.32-5.17-3.69-8-9.28-12.73-8.1-7.73,1.93-15.7,2.29-23.26,4.49-21.15,6.19-42.79,9.29-64.06,14.66C461.15,1196.49,448.42,1198.78,435.76,1201.47Zm406.47-181.89c10.53,7.74,21,15.53,31.61,23.18,2.18,1.58,4,4.2,6.93,4,12.08-.72,23.91-4.28,36.06-4.48a3.15,3.15,0,0,0,2.53-1.52c.56-1.67-.94-2.25-1.93-3-9.23-7.15-18.68-14-27.6-21.61-4.75-4.07-9.63-4.92-14.86-3.51C864.33,1015.51,853.55,1017.08,842.23,1019.58Zm33.47,269.77c2.64,2.16,5.09,4.22,7.58,6.2,2.17,1.73,4.31,3.53,6.6,5,5.8,3.78,11.67.44,13.34-7,.65-2.89-.57-8.15,3.06-8.15,4.38,0,1.63,5.87,3.7,9.24l50.61-26.73c-6.19-4.61-11.28-8.38-16.35-12.2a3.88,3.88,0,0,0-4.57-.29c-15.68,8.16-31.39,16.25-47.46,24.55a27.06,27.06,0,0,0,5.95,5.65c1.26,1,3.91,2.21,2.27,4.72-1.33,2-3-.12-4.15-1.18C889.6,1283.24,882.89,1281.73,875.7,1289.35ZM893,1056.79c10.63,8,20.24,15.68,30.26,22.57,4.23,2.91,8,8.42,13.24,7.7,9.75-1.36,19.36-4,29-6.14,1.19-.26,2.55-.48,2.86-2.11s-1-2.29-2-3.06c-5.92-4.47-12.33-8.3-17.6-13.64-9.34-9.46-19.28-13.52-31.49-9.22C909.77,1055.54,901.6,1053.77,893,1056.79ZM730.23,935.84l-.57,1.38q18.26,13.1,36.5,26.18c1.31.94,2.76.5,4.09.84,8.32,2.17,16.24-2.42,24.54-1.64,7.63.72,15.36.16,23,.16.09-.71.19-1.42.28-2.13-8.34-6.62-16.65-13.27-25-19.78a6.46,6.46,0,0,0-3.49-1Q759.91,937.81,730.23,935.84Zm-60.57,326.88c-4-5.16-7.3-7.77-13.06-5.72-22.8,8.13-45.75,15.68-68.63,23.49-15.9,5.43-31.77,11-47.67,16.41-1.8.61-4,1.14-4.31,3.22-.16,1.26,1.58,3.08,2.72,4.33,5.37,5.88,10.93,1.29,16-.44,26.9-9.23,53.66-19,80.45-28.63C646.41,1271.32,657.67,1267.12,669.66,1262.72Zm89.57-299.79c-8.9-6.57-18.23-12.6-26.68-20a28.15,28.15,0,0,0-20.82-7.33c-21.79.74-17.83-5.25-18.32,23.17-.08,4.62,1.8,6.19,5.57,6.17,19.06-.1,38.12-.06,57.18-.09C757.12,964.85,758.23,965.08,759.23,962.93Zm304.69,149.35c-11.45-8.62-21.27-16.46-31.53-23.47-3.3-2.26-5-7.13-10.09-6.86-10.62.57-20.16,6.7-30.94,7,13.36,11.34,26.8,21.89,40.27,32.39a4.85,4.85,0,0,0,4.71.6C1045,1119,1053.6,1115.91,1063.92,1112.28ZM1001.41,1074c-.45,3.07-2.11,2.87-3.41,3.12-4.19.77-8,3.38-12.39,3.18a2.16,2.16,0,0,0-2.48,2.38,2.33,2.33,0,0,0,2.63,2.25,13,13,0,0,0,3.59-.58c7.13-2,14.74-1.95,21.31-6.82.7-.52,4,1.8,4.58-.83.63-2.94-2.52-3.77-4.23-5.13-9.87-7.82-19.82-15.5-29.76-23.21-1.85-1.44-3.64-3.19-6-3-11.22,1-22.45,2-34.35,5.35,10.76,8.38,20.81,16.13,30.79,24,3.23,2.55,6,4.19,10.44,2.62C988.13,1075.29,994.68,1075.1,1001.41,1074ZM415.16,1207a29.15,29.15,0,0,0,3.16,4c13.79,12.34,27.24,25.17,40.69,38,16.74,16,33.83,31.45,50.76,47.15q8.79,8.14,17.55,16.3c1.75,1.64,3.38,2.39,5.26,0,2-2.58.73-4.11-.88-5.86-2.39-2.6-4.51-5.36-8.43-3.45-1.52.74-4.83.1-3.6-2.53,2.76-5.89-1.3-7.31-3.75-9.75-20.95-20.78-41.91-41.57-63-62.16-4.42-4.32-8.5-9.6-14.92-10.18-1.63-.14-2.47-1.32-2.07-3.45s-1.22-3.22-2.25-4.64C428.49,1203.22,422.35,1202.7,415.16,1207Zm667.05-40.69c-.86-.8-1.87-1.88-3-2.76-11.35-8.93-22.72-17.79-34-26.74-2-1.54-3.75-1.08-5.74-.33-6.72,2.52-13.46,5-20.19,7.37-1.3.47-3.09.21-3.27,2.39s1.61,2.44,2.75,3.28c12.4,9.21,24.82,18.37,37.2,27.62a5.11,5.11,0,0,0,5.73.66c6.14-2.94,12.28-5.89,18.44-8.8A2.81,2.81,0,0,0,1082.21,1166.3Zm131-153.92a3.25,3.25,0,0,0,2.56,3.18,615.63,615.63,0,0,1,59.21,26.85c9.42,4.81,16.23-1.53,25.81-3.94-13.52-9.38-25.64-17.33-37.31-26.09-5.73-4.31-11.56-5.14-17.9-4.28C1234.83,1009.56,1224.24,1012.76,1213.24,1012.38ZM863.63,996.73c-15.23-12.69-28.33-27.57-48.4-22.79-2.92.69-6.07,0-9.1.19-7.36.45-14.72,1-23.3,1.64,10.9,8.21,20.62,15.62,30.45,22.83a8.74,8.74,0,0,0,5.18,1.69c13.54-.43,27.08-1,40.62-1.72C860.21,998.51,861.31,997.7,863.63,996.73Zm184.8,137.62c13,10.12,25.37,19.76,37.77,29.27a3.79,3.79,0,0,0,3.44.65c8-4,16.35-7,24.6-12.51-9.18-7.15-18-13-25.81-20.42-7.35-7-14.53-9-23-4.18C1060.25,1130.09,1054.1,1130.07,1048.43,1134.35ZM247.11,882.54l-.84,1.54c7.35,6.85,14.66,13.76,22.09,20.49.84.77,2.31.74,3.5.8,9.9.52,19.8,1.27,29.71,1.36,14.61.13,12.83,2.61,13-15.54,0-4.89-1.62-6.78-5.74-6.62-11.35.45-22.61-1.12-33.92-1.9C265.66,882,256.37,882.54,247.11,882.54ZM889,1010.64c8.81,6.81,17.21,12.77,25.09,19.55,8.3,7.14,16.47,13.26,27.43,8.59,1.63-.69,3.64,0,5.45-.25,5.54-.59,11.07-1.29,16.6-2-11-10.3-22.39-19.13-33.89-27.76-1.23-.92-3.13-.87-4.72-.9A212.19,212.19,0,0,0,889,1010.64ZM615.59,979c10.5,8.82,20.51,16.62,29.88,25.36,5.91,5.51,12,8.79,19.45,7,11.81-2.8,23.73-2.42,35.64-2.73,1.52,0,3.27.07,4.65-2.44-2.22-.78-4.25-1.56-6.31-2.22-16.56-5.35-33-11.14-48.63-19.51C639.44,978.72,628.48,976.93,615.59,979Zm361.65,61.57c9.84-3.15,20-2.1,31-4.64-9.71-7.43-19-13-26.67-20.75-9.94-10-20.6-12.47-32.87-9.31-4.12,1.06-8.65-1-13.42,2.25,7.64,5.93,14.74,11.24,21.65,16.84,7.42,6,14.61,12.49,24.58,9.83.39-.11.94.61,1.45,1C981.87,1038.86,977.94,1036.59,977.24,1040.6Zm37.23,22.19c-.75,2.26-2.7,5.12-.42,6.37,4.66,2.55,8.84,8.31,14.49,6.1,4.63-1.82,9-4.32,14-4.57a3.58,3.58,0,0,0,3.46-3.35c.22-2-1-2.86-2.26-3.79-5.35-4.14-10.51-8.64-16-12.4-5.35-3.63-9.75-10.92-16.14-10.34-9.12.84-18.59,0-28.29,4.45,8.27,6.32,16,12.14,23.63,18.13C1009.56,1065.48,1011.77,1064.72,1014.47,1062.79Zm79.22,39.39c-12.81-9.76-24.09-18.36-35.37-27-2.46-1.87-5-1.11-7.66-.72-5.82.89-11.19,3.58-16.79,5.34-.94.29-2.24-.1-2.57,1.28-.43,1.8,1,2.22,2,3q16.29,12.29,32.55,24.64c1.38,1,2.77,2.16,4.49,1.57C1077.49,1107.85,1084.62,1105.34,1093.69,1102.18ZM693.91,1153.4c-5.66-9.92-13.38-5.74-20.07-4.36-21.45,4.43-42.76,9.69-64.16,14.46-9.38,2.09-18.92,3.28-28.49,7.1,5,5.53,9.82,9.64,16.38,6.29,4-2,8.25-2.16,12.38-3.14,18.14-4.29,36.31-8.43,54.4-13C674.15,1158.35,684.19,1157.1,693.91,1153.4Zm446.59-14.16c-10.65-8.54-20.6-16.58-30.61-24.52a5.39,5.39,0,0,0-4.61-1.37c-7.45,1.79-14.56,4.75-22.59,8.22,11.87,9.2,22.78,17.67,33.71,26.12a5.78,5.78,0,0,0,6.41.76C1128.49,1145.57,1134.68,1144,1140.5,1139.24ZM909,992.63c-7.37-5.76-14.69-11.58-22.13-17.21a8.07,8.07,0,0,0-4.59-1.53c-13-.12-25.9-.07-38.85-.07,8.56,8.25,16.92,17.69,26.84,21.29C882.43,999.53,895.79,995.64,909,992.63ZM647.51,977.57c12.42,10.81,74.64,31.8,82,28.08-11.18-8.69-22.25-17.31-33.33-25.89a9.17,9.17,0,0,0-5.69-2.2C676.54,977.58,662.57,977.57,647.51,977.57ZM355.42,1135.49c-1.68,10.07,0,17,6.86,23,12.76,11.11,24.83,23.3,37.27,34.91,11,10.28,11.09,10.2,21.25,4.8Zm426.06,87.65c-3.72-5.89-7.38-6.51-12.62-4.61-18.71,6.79-37.63,12.83-56.44,19.25-9.3,3.17-18.57,6.5-27.81,9.88-1.22.45-3.26.43-3.16,2.6.08,1.66,1.59,2.59,2.84,3.43,4.6,3.08,9.09,1,13.52-.54,14.28-5.07,28.52-10.27,42.78-15.39C754.05,1232.93,767.52,1228.13,781.48,1223.14ZM331.72,1113.68a28.27,28.27,0,0,0-2.27-2.77c-11-10.33-21.9-20.82-33.07-30.9-8.13-7.34-15-17.67-27-16.78-1.76.13-4.12-1.2-5.1.79-1.29,2.6,1.44,3.44,2.7,4.63,12.78,12.21,25.75,24.16,38.41,36.53C313,1112.55,320.56,1118.52,331.72,1113.68Zm462,111.45a47,47,0,0,0,4,4q27.72,21.54,55.5,42.95c7.68,5.88,9,5.64,16.41-1.38-20.92-15.28-41.82-30.4-62.55-45.84C802.53,1221.48,798.59,1221.46,793.71,1225.13ZM406.34,1038.06c-4.36-4.56-4.38-4.84-9.4-4.51q-40.9,2.71-81.8,5.7c-10.29.74-20.57,1.71-30.86,2.65-1.7.15-4.14-.29-4,2.87.12,2.47,2.2,2.33,3.8,2.44a25.69,25.69,0,0,0,3,0c17.75-.84,35.49-1.21,53.21-3.66,15.23-2.11,30.73-1.87,46.11-2.14C393,1041.29,399.14,1039.36,406.34,1038.06Zm-211.1-62.58c3.34,6.63,7,6.37,10.7,6.44,44.21.79,88.34-3.92,132.56-2.85.7,0,1.69.37,1.95-1.06-2-4.37-5.57-4-9-4-28.6.47-57.19,1-85.78,1.39C229.29,975.64,212.9,975.48,195.24,975.48Zm347.88,54.15c-3.26-4.78-7-4.83-11-4.87-27.15-.24-54.06,4.74-81.22,4.88-9.75,0-19.55,2.06-30.21,2.31,3.34,4.33,6.25,5.73,10.53,5.77,14,.12,27.78-3.09,41.71-3.26C496.2,1034.18,519.27,1030.67,543.12,1029.63ZM175.23,972.34c-2.13-2.33-3.52-4-5-5.52-17.38-16.9-34.16-34.65-52.26-50.55-2.44-2.14-3.92-3.53-6.42-.43-2.77,3.43-1.64,5.45,1.07,8,16,14.81,32,29.63,47.68,44.79C164.58,972.76,168.92,974.11,175.23,972.34ZM891.49,974a237.46,237.46,0,0,0,26.74,20.64,4.39,4.39,0,0,0,3.52.31c6.22-2,12.45-4,18.36-7.12,1.5-.8,3-2.09,1.25-3.42-6-4.62-11.09-11.35-18.86-12C912.63,971.53,902.88,973.82,891.49,974Zm268.38,173.54c1.92,3.19,4.56,4.25,6.37,6.35,3.16,3.67,5.65,2,8.48-.43,2.26-1.92,1.68-4.56,1.85-7.06.11-1.64,0-3.64,1.68-4.12,2-.56,2.27,1.51,2.48,3.09.55,4,2.65,3.6,4.92,2.41,7.53-4,15-8,22.53-12.06,2-1.12,2.66-4.08,5.83-4.23,7.92-.37,10.28-3.89,10.61-14q-29.79,13.55-59.33,27C1163.61,1145.24,1162,1146.31,1159.87,1147.53Zm-546.18-58.6,0-2.89c-12.75-2.9-25.36,2.54-38,3.06-13.06.53-26.14,2.87-39.15,4.72-12.85,1.84-25.9,2.5-39.84,5.34,2.92,2.54,4.25,5.13,6.73,4.62,10-2,20.22-1.44,30.13-3.51,15.3-3.19,30.82-3.76,46.15-6.46C591,1091.82,602.36,1090.53,613.69,1088.93ZM782.49,1207c-22.68-17.07-44.87-33.81-67.12-50.44-2.41-1.8-5.18-2.55-8.21-.23,2.12,3.86,5.7,5.29,8.58,7.6,18.61,14.92,37.4,29.54,56,44.54C775.63,1211.67,778.63,1211.16,782.49,1207ZM479.24,976c-2.95-4.24-6.74-4.2-10.62-4-14.36.61-28.71,1.43-43.07,1.68-20.66.35-41.32.23-62,.4-2.1,0-4.34-.72-6.47.77,2.2,4.25,5.66,4.28,9.11,4.23q54.68-.75,109.34-1.57C476.7,977.43,478,977.87,479.24,976ZM666,936c.18,5.19-2.64,11.65,1,15.5,5,5.31,10.78,10.06,17.21,13,3.74,1.7,6.72.39,6.68-5.55a120.39,120.39,0,0,0-1.84-19.65c-.32-1.88-.74-3.71-2.71-4.22a38.16,38.16,0,0,0-13.91-.82c-2.22.25-2.92,2.11-3.11,4.48-.14,1.65.46,3.74-1.38,4.83C665.87,941.3,667.14,938.41,666,936Zm39.33,206.41c4.35,5.3,8.18,7.35,13.64,5.73,3.49-1,7-2.27,10.53-3.07,15.82-3.53,31.67-6.94,47.51-10.38,2-.43,3.82-1.07,4.72-3.36-2.83-3.82-6-4.93-10-3.93-9.06,2.28-18.16,4.41-27.26,6.45C731.73,1136.7,718.91,1139.43,705.37,1142.39ZM159.59,982.71c-.49-1.1-.62-1.89-1-2.28q-24.53-23-49.13-45.89c-1.08-1-2.65-3.22-4-.4-1.08,2.33-3.21,4.75-1.1,7.69a20.41,20.41,0,0,0,3.15,3.28c12.53,11.08,25.23,21.92,37.55,33.31C149.4,982.41,153.7,984.17,159.59,982.71Zm779.49,254.13c-.3-2.29-2-2.87-3.3-3.82-17.16-12.38-34.36-24.7-51.5-37.11-3.49-2.53-6.77-1.67-10.22-.2.18.82.16,1.47.39,1.65,17.78,13.35,35.63,26.58,53.34,40.05C931.91,1240.54,935.43,1240.56,939.08,1236.84ZM534.53,1353.11c0,12.79-.27,24.29.11,35.76.21,6.36,2.38,7,7,3.61s2.45-8.36,2.91-12.76c.22-2.16-1.05-5.43,1.47-6.11,2.85-.76,2.49,2.85,3.18,4.85.6,1.74.87,3.77,1.8,5.21,3.52,5.41,5.81-.8,8.61-1.62,3-.88,1.6-3.11.11-4.54C551.55,1369.67,544.24,1360.53,534.53,1353.11ZM645.27,1021c-3-5-7.06-4.67-11.14-4.28-19.13,1.82-38.22,4.09-57.46,4.15-6.94,0-13.88,1.39-21.92,2.26,3.9,4,7,5.95,11.21,5.43,14.23-1.78,28.54-2.42,42.82-3.56C620.8,1024.06,633.11,1026.21,645.27,1021Zm-60.33,164.75c18,15,35.62,29.56,53.23,44.1,7.43,6.14,14.92,12.15,22.39,18.21,2.21,1.79,5.18,2.6,6.55,0,1.56-2.94-2-3.38-3.41-4.5-23.56-19.15-47.22-38.14-70.83-57.21C590.61,1184.56,588.47,1182.91,584.94,1185.77Zm209.92,25c3.66,2.3,6,5.81,10.38,4.18,17.45-6.53,35-12.79,52.46-19.14,1.26-.46,3.23-.09,3.2-2.35,0-1.82-1.67-2.44-3-3.16-2-1.11-4-.64-5.92,0-14.73,5-29.51,9.74-44.15,15.06C803.72,1206.87,799,1206.75,794.86,1210.76ZM158.26,989.14c6.09,7.6,13.08,12.47,19.4,18.13s12.14,12.05,19.25,16.65c6.57,4.24,10.78,12.41,17.83,16.45,2.1-5.29-.55-8.24-3.43-10.93-13.59-12.66-27.29-25.15-40.79-37.94C167,988.19,163.55,987.13,158.26,989.14Zm708.65,123.35c-2.93-3.46-5.55-4.37-8.81-3.6-5.54,1.3-11.13,2.34-16.68,3.57-15.36,3.41-30.71,6.86-46.59,10.41,3.86,5.69,8.26,5.39,12.72,4.38,14-3.16,28.16-6,42.05-9.86C855,1115.87,860.74,1115.47,866.91,1112.49Zm-4.08,68.14c-8.24-6.18-15.86-11.85-23.45-17.58-12.07-9.1-24.1-18.26-36.18-27.33-2.07-1.55-5-3.34-6.44-.3-1.18,2.45,2,3.31,3.58,4.53,17.14,13.3,34.32,26.51,51.35,40C855.07,1182.63,858.13,1183.61,862.83,1180.63ZM329.93,462.76c-.51-6.05-4.18-6.95-8.29-6.5-4.54.5-4.31,4.65-4.31,8.52,0,15.09.75,30.17.86,45.24.46,61.55.44,123.12.59,184.68,0,7.75,0,15.51,0,23.27.77-8.49.77-17,.77-25.45q0-107.21,0-214.4C319.56,467.32,322.08,463.72,329.93,462.76Zm75.29,647.08c-17.07,3.68-34.73,4.39-52.18,7.24-1.34.22-4.12.1-3.31,2.7.95,3.06,3.31,5.74,6.54,5a310.79,310.79,0,0,1,49.26-7.13c2.65-.18,5.79-.37,5.66-4.66C411,1108.27,407.59,1110.64,405.22,1109.84Zm78.22-3.87c-4.23-6.6-9.71-5-14.39-4-15.74,3.37-31.78,3.34-47.54,6.24-2.24.41-5.67-.4-5.51,3.66s3.5,2.83,5.77,3a10.28,10.28,0,0,0,2.41-.19C443.7,1111.48,463.43,1110.1,483.44,1106Zm390.93,76.27c3.4,6.06,7.61,5.35,12.15,3.7,15.23-5.51,30.49-10.88,45.71-16.4,1.42-.51,3.87-.28,3.73-2.71s-2.54-2.69-4.29-3a6,6,0,0,0-3,.28C910.63,1170.08,892.61,1176.13,874.37,1182.24ZM744.59,1009.77v1.8c25.47,3.85,50.79.39,76.15-2.17-2.51-3.21-4.9-5.07-8.57-5-17.77.51-35.34,4.52-53.2,3.69C754.2,1007.9,749.39,1009.18,744.59,1009.77Zm-5,5.05c-26-5.44-51.67-1.68-78.5,1.71C666.27,1021.85,706.27,1020.66,739.63,1014.82ZM495.56,974.28c31.13.73,62.26.62,93.81.5-1.67-4.69-4.49-5-7.37-4.89-5.87.24-11.73.84-17.6.91-20.68.26-41.37.32-62,.55C500.06,971.37,497.5,970.45,495.56,974.28ZM939.4,1160.19c3,5.76,6.43,5.08,10.07,3.58,2.47-1,4.91-2.1,7.41-3,15.29-5.48,30.6-10.92,46.08-16.43-3-4.12-6-5.13-9.88-2.75-2.1,1.27-4.65,1.53-7,2.34C970.69,1149.28,955.27,1154.66,939.4,1160.19ZM497.76,1110.7c1.36,1.44,2.43,2.78,3.68,3.86,10.38,9,20.8,17.9,31.19,26.87,9.56,8.25,19.07,16.58,28.69,24.74,1.49,1.27,3.62,3.79,5.27,1.2s-1-4.09-2.52-5.38c-8.35-6.85-16.76-13.58-25-20.73-11.16-9.71-22.47-19.24-33.76-28.77C503.16,1110.64,501.08,1109,497.76,1110.7Zm439.4-14L937,1093c-23.17,1.24-45.46,10-69.14,13.17,3.25,4.57,6.87,5.11,10.76,4.24,5.13-1.15,10.21-2.67,15.34-3.86C908.33,1103.24,922.75,1100,937.16,1096.68Zm-349.27,270.9c.5-4.12-.46-4.79-1.18-5.52q-21.88-22.23-43.79-44.41c-2.88-2.92-5.69-2.55-9.4.44C551.84,1334.21,568.62,1351.68,587.89,1367.58ZM181.5,987.6c.33.81.4,1.36.68,1.62q22.57,21.22,45.18,42.42c.81.77,1.63,1.66,2.61.85s.65-2.12.42-3.26c-.51-2.48-2.25-3.92-3.74-5.42-10.36-10.48-20.93-20.69-31.17-31.32C191.44,988.3,187.27,986.06,181.5,987.6Zm549.06,307.21c-10.83-8.29-20.9-16-31-23.67-3.2-2.45-6.27-5.13-9.55-7.41-2.19-1.51-5.54-2-6.77.06-1.84,3.15,1.83,3.94,3.41,5.23,10.38,8.46,21,16.48,31.22,25.26C722,1297.78,725.41,1297.88,730.56,1294.81Zm-2.6,7c9.94,8.93,20.51,16.62,30.93,24.54,1.72,1.3,3.54.24,5.28-.33,1.37-.45,2.9-.82,3.31-2.66.5-2.25-1.36-2.6-2.46-3.43-8.49-6.34-17.16-12.37-25.45-19C735.37,1297.55,732,1297.49,728,1301.86Zm-35.24-162a8,8,0,0,0-1.18-1.81q-28.08-22.24-56.23-44.4c-1.63-1.29-3.57-2.38-5.6-.59,0,1.75,1.27,2.43,2.14,3.14q26,21.3,52.18,42.42A7.85,7.85,0,0,0,692.72,1139.85Zm-271.41-95.26,56.6,49.65c2,1.72,4,3.18,6.56,1.55-.15-.52-.15-1.13-.4-1.35q-27.85-24.42-55.72-48.79C426.51,1044,424.74,1042.55,421.31,1044.59Zm-70.69,102.25c1.82-21.26-9-30.79-26.81-24.91Zm279.44-62.73c27.31.51,54.06-5,80.89-9.71C683.78,1075.33,656.84,1079,630.06,1084.11Zm94.51-4.1c7.08,5.54,13.44,10.42,19.72,15.44q15.47,12.38,30.83,24.93c1.86,1.52,4,2.55,5.43.6,2-2.84-1.31-3.36-2.43-4.26-15-12-30-23.87-45.08-35.72C730.87,1079.29,728.61,1077.55,724.57,1080Zm152.2-73.14c-4.14-3.74-6.86-6-10.53-6.15-14.37-.8-28.35,4.43-43.78,2.66,2.37,4,4.49,5.56,7.27,5.46C844.85,1008.26,860,1007.58,876.77,1006.87Zm-468.42,20.94c-15.64-14.27-30.73-28-45.74-41.81-2.08-1.91-3.95-2.82-7.28-.52,16.05,14.29,31.53,28.08,47,41.85C403.89,1028.69,405.62,1029.06,408.35,1027.81Zm358.36-58.87c-24.84-4.22-49.65,1.16-75.25.48C696.32,974.19,748.62,974,766.71,968.94ZM616.32,1078.81,562.7,1035c-1.75-1.42-3.64-1.86-6.93-.58,1.54,1.19,2.56,1.94,3.55,2.75q23.8,19.47,47.6,39C609.52,1078.23,612,1081.06,616.32,1078.81Zm74.34-582c-.24,4.72-2.54,8.81-3,13.39-1.7,18.92-6.19,37.19-9.51,55.74-.35,1.93-2.2,4.12.73,5.07,2.61.84,4.16-.57,4.52-3.89a128,128,0,0,1,2-14.59C689.65,534.27,688.11,515.33,690.66,496.83Zm-88,482c1.79,4.1,5.06,4.91,7.43,7,9.53,8.32,19.3,16.26,29,24.36,1.86,1.55,4.38,3.66,5.88,1.24s-1.67-3.69-3.1-4.93c-9.55-8.3-19.35-16.24-28.77-24.74C609.9,978.9,606.93,977.59,602.67,978.86ZM358,1166.48c-1.4,4.74.44,7.36,2.82,9.7q13,12.69,25.94,25.32c1.17,1.13,2.6,3.25,3.95.86,1.07-1.89,1.47-4.35-.65-6.29C379.5,1186.35,369,1176.56,358,1166.48Zm603-165.39c-9.7-12.9-22.73-12.88-36.75-.15C937,1005.05,948.5,997.65,961,1001.09Zm-159,62.57c-.1-.81-.19-1.62-.28-2.43l-73.32,9c.08.89.16,1.78.23,2.67C753.19,1071.29,777.5,1066.54,802,1063.66ZM495.44,980c-.43.85-.87,1.7-1.31,2.54Q515,1000,535.82,1017.4c1.76,1.47,3.62,3.86,6.91,1.19C526.54,1005.73,511.78,991.51,495.44,980ZM772.5,967.71c1.61,2.33,3,2.76,4.43,2.76q23.1.07,46.19,0c1.35,0,3.27-.09,3.15-2.33-.13-2.58-2.06-2.26-3.73-2.22-13.35.31-26.71.55-40.07.86C779.33,966.83,776.12,966.28,772.5,967.71Zm-141.94,3c18.05,4.82,36.47,1.63,54.8,2.63l.09-3.46C667.25,969.08,649,970,630.56,970.73ZM798,1346.67c.11-5.67-4.44-6.42-7.42-8.79-2.41-1.91-10.54-.3-11.16,2.48-.94,4.19,3.15,4.47,5,6.46a21.81,21.81,0,0,0,6.09,4.51c1.87,1,3.24,4.69,5.57,2.75C797.78,1352.63,797.65,1349.43,798,1346.67Zm-17.08-23.39.67,1.79,78.94-39.61c-.29-.77-.58-1.53-.86-2.3ZM322.07,772V905l2,0C322.55,860.62,322,816.25,322.07,772Zm643.7,492.66c2.42-1.55,6.06-.81,6.72-4.22.56-2.85-2.75-3.66-4.45-5.06-2.61-2.15-5.61-3.69-8.43-5.52s-5.4-1.59-8.1,0c-1.47.88-2.59,2.49-1.09,3.79C955.22,1257.85,960,1262.07,965.77,1264.65Zm-338.31-652,.72,1.77c11.18-3.58,22.36-7.14,33.52-10.77,1.9-.61,3.45-1.63,2-4.5-1.17-2.4-2.31-4.65-5.11-2.89A225.67,225.67,0,0,1,627.46,612.67Zm53.69,426.2c-1.27-.18-1.88.37-1.94,1.44a5.67,5.67,0,0,0,2.13,4.82c9,7.21,18,14.33,27,21.48,1.44,1.14,3.15,2,4.25,0s-.76-2.66-1.9-3.59q-13.87-11.34-27.73-22.75C682.27,1039.7,681.59,1039.21,681.15,1038.87Zm298.48,48.62c-5.48-5.35-32.52-.71-38.77,6C954.52,1095.07,966.11,1088.11,979.63,1087.49Zm-100.19-34.15c-.06-.63-.13-1.26-.2-1.9l-69.75,8.68.24,2.5Zm158,78.93c-2.56-4.49-5.1-4.3-8.37-3-6.27,2.44-12.73,4.24-19.11,6.35-1.84.61-4.73.8-4.15,3.72.39,2,2.87,2.82,5.15,2C1019.58,1138.3,1028.25,1135.4,1037.42,1132.27Zm271.27-51c-2-3.18,2.3-10.48-4.84-8.62-4.82,1.25-9.21,4.59-13.86,6.79-2.78,1.31-1.62,3.21-.8,5,1,2.18.94,6.11,3.53,5.91s.89-3.4,1-5.29-.61-4.23,1.72-4.47c1.81-.19,2,1.94,2.19,3.57.5,4.47,2.29,3.26,4.53,1.65s2.33-3.5,1.28-6c-.54-1.26-1.08-2.88.54-3.53,1.39-.55,2.1.82,2.71,2.11C1307.14,1079.27,1306.7,1080.71,1308.69,1081.24ZM1038.55,1126c2.51,2.52,3.7,4.65,6.5,3.61,7.25-2.71,14.59-5.1,21.88-7.7,1.64-.59,4.09-1.2,3.35-3.82-.66-2.34-3-1.91-4.79-1.31C1056.82,1119.69,1048.16,1122.68,1038.55,1126Zm-351.3,259.21-.69-1.39-45,22.26c1.34,4,3.29,3.31,5.5,2Q667.13,1396.6,687.25,1385.19Zm668.59-329.26v-9.22c-5,2.55-9.58,4.94-14.19,7.17-7.12,3.43-7.13,3.39-3.31,11.37,1.73-1,.27-6.85,3.12-4.35,3.16,2.79,3.31,2.28,3.73-1.46.13-1.14.94-2.9,1.85-1.7,2.61,3.44,2.85.94,3.71-1.42C1352,1052.94,1354,1055.34,1355.84,1055.93ZM933.75,1248.49c-2.39-.29-3-.61-3.48-.39q-23.73,11.54-47.45,23.16c-1,.49-2,1-1.2,2.44.7,1.21,1.72.65,2.69.13q6-3.25,12.12-6.37C908.35,1261.38,920.27,1255.34,933.75,1248.49ZM915,998.13c-6.32-3.47-10.07,1.37-14.5,1.08-6.25-.4-12.55-.05-18.82.15-1.42,0-3.76-.92-3.89,1.84-.1,2.18,2,2.76,3.56,3.15a28.51,28.51,0,0,0,4.82.41C895.8,1005.6,904.28,1000.38,915,998.13ZM632,1423.24a9.48,9.48,0,0,0-.56,1.87c-.08,3.29-.15,6.59-.15,9.88,0,7.84,1.43,8.75,7.25,4.85,3.48-2.33,4.66-5.33,1.74-9.1C638,1427.83,635.91,1424.6,632,1423.24Zm11.89-489.45c6.12,4.78,10.77,9.88,17,12.39,1.68-9.21,1.25-12.36-2.27-12.88C654.13,932.63,649.51,932.15,643.91,933.79Z"/></g></g></g></g></svg>