<svg id="Capa_1" data-name="Capa 1" xmlns="http://www.w3.org/2000/svg" viewBox="0 0 1077 532"><defs><style>.cls-1{fill:#ccc;}</style></defs><title>HeaderMesa de trabajo 18</title><rect class="cls-1" y="3" width="1081" height="527"/><path d="M230.19,27c1.28,6.91,5.94,12.9,9.64,19.11,5.84,9.79,6.36,19.65,1.86,29.7-3.48,7.77-10.9,12.65-21.55,14.11-7.62,1-10.95,4.34-12.6,9.5-.78,2.46-.25,3.72,3.26,4.33,3.89.67,7.71,1.64,11.46,2.68s6.68,1.53,8.9-1.82c2-3,4.81-2.44,7.34-.19a8.35,8.35,0,0,1,2.24,2.48c3.75,8.9,11.5,15.95,18.68,23.35,6.52,6.73,9.48,14.71,10.66,22.91,1,6.85-.71,12.92-10.49,16.2-4.56,1.53-7.34,4.78-9.92,7.94-1.12,1.36-1.72,3-4.81,4.28,1.75-8.37,1.09-16.27,2.34-24,2.58-15.94-3.25-30-15.62-42.78-4.62-4.79-11.88-6.31-18.72-8.21-2.46-.68-6.32-1.48-7.41,1.42-1,2.73-.85,5.82,3.12,7.53a34.66,34.66,0,0,0,6.35,1.48c9.31,1.94,16.36,5.94,20.59,12.53,1.55,2.43,3.55,5.22,2.34,7.64-4,8.05-2.78,16.44-4,24.66-1.41,9.44-7.49,17.74-12.51,26.27-2,3.35-4.24,6.6-5.27,10.22-.26.91-.13,2.2-1.82,2.4s-2.22-.93-3-1.7a15.82,15.82,0,0,1-3.07-3.25c-7.34-13.46-17.76-25.72-26.72-38.55-6.51-9.3-5.39-19.09-2.12-28.74,2-6.06,8.93-8.86,16.31-10.88,3.13-.85,6.61-1.37,6.28-4.82s-.61-6.75-5.78-8.24a92.8,92.8,0,0,0-30.9-3.22c-5.25.29-6.5,4.43-7.15,6.94-7.8,29.65-14.56,59.39-4.86,89.61,2.65,8.25,2.42,8.11,13.52,9.12,6.84.63,13.62,1.77,20.33,3,4.07.74,7.37,1.33,6.36-4.09,4.06,2.73,6.56,5.32,11.41,5.69s8.46-.09,11.2-3.59c3.38-4.32,8.14-4.37,9.87.27,6.41,17.27,22.64,31.93,23.85,50.54.13,2,1.2,4.24-1.79,5.35-9.5,3.52-18.27,7.53-22,15.92.49-8,2-15.41,5.83-22.47,7.26-13.38-2.11-34.09-18.77-41.45a27,27,0,0,0-8.82-2.18c-1.59-.12-3.72-1.44-4.63.43-.71,1.44,0,3.07,1.77,4a11.11,11.11,0,0,0,4.23,1.34c15,1,27.27,17,23.25,29.62a99.81,99.81,0,0,1-16.44,30.47c-4.3,5.6-3.83,6.42,3.69,9.85,1.77.81,3.84,1.43,4.13,3,1,5.43,5.47,9.15,10.06,13.11a17.85,17.85,0,0,1,6.62,13.35c0,2.56-1,4.94-4.71,5.26-5.93.51-10.92,2.84-16.44,4-3.94.86-8.83,2.19-8.84-3.31,0-1.23-1.09-1.81-2.69-1.54-1.75.3-2.69.92-2,2.51.58,1.42.87,2.83,2.16,4.1,6.06,6,12.07,12,17.9,18.08,2.21,2.31,3.93,3,7.45,1.06,4.24-2.32,10.15-2.46,14-5.56a5,5,0,0,1,5-.2c5.86,3.14,12,1.48,18.06.77,8.08-1,15,.4,20.76,4.87,3.51,2.74,3.75,5.1-.82,7.37-2.44,1.21-6.71,2.16-4.71,5.09,2.45,3.6,3.34,8.11,8.92,10.21a4.45,4.45,0,0,0,3.16-.3c7.59-2.67,10.76-1.79,13.9,3.81,3.29,5.87,3.29,5.87,10.81,2.78a39.59,39.59,0,0,1,13.3-3.12c4.76-.21,6.06,1.52,4,4.69-.29.45-.67.87-1,1.3-4.42,5.73-2.13,11.15,5.89,13.91,3.59,1.24,7.43-.57,8.08-3.8.55-2.82-1.25-6.86,3.87-7.68s8.17,2.73,11.05,5.48c4.08,3.88,5.88,8.54,7.79,13.17,1.18,2.83-.88,2.91-3.43,2.31A38.88,38.88,0,0,1,358,400.11a19.27,19.27,0,0,0-7.74-2.82c-3.8-.37-6.65.72-5.49,3.85,3.15,8.5,5.17,17.25,9.53,25.48,1.55,2.92,4.86,4.08,9.06,4.25,20.48.82,41,.88,61.46.63,4.91-.06,9-1.6,13.31-3,1.46-.48,2.79-1.2,2.89-2.52.12-1.6-1.77-1.69-3.14-2.14-3.56-1.16-7.09-1.82-11-.59a18.27,18.27,0,0,1-7.89.7c-1.53-.21-3.36-.35-4-1.56-.75-1.5,1-2,2.48-2.42,1.85-.54,2.45-1.51,1.44-2.75-1.72-2.12-3.1-4.33-.36-6.37,3-2.23,6.58-1.39,10-.31a12.61,12.61,0,0,0,2.15.12c-4.2-7.53-1.38-14.76.62-22a13,13,0,0,0,.21-3.95c-.06-1.62-1.21-3.61,1.23-4.53,2.12-.8,3.66.93,5.07,1.84,9,5.78,14.95,13.28,19.57,21.18,3.59,6.14.73,10.32-7.12,13.69-2.21.94-4.33,1.77-4.21,4s2.7,2.76,4.66,3.82c13.44,7.23,27.61,3.71,41.11.79,4-.86,6.82-5.38,12.86-5.73-4.9-2.37-9.34-4.64-15.55-3.44-9.8,1.89-20.56-.95-26-6.72-2.55-2.69-5-5.66.66-7.92,3-1.19-.76-6.43,5.61-5.14,7.24,1.47,15.14,2.18,19.8,7.45,1.58,1.79,2.69,3.82,4.08,5.71,1,1.3,1.68,2.88,3.14,3.76,2.94,1.77,6.87,3.84,10.24,2.45,4.18-1.71.3-4.37-.74-6.52a10.78,10.78,0,0,1,.22-10.24c3.5-6.75,10.08-11.67,17.09-16.39,3-2,4-.69,4.37,1.17,1.72,7.78,2.66,15.57-1.37,23.16-1.88,3.53-5.51,5.54-10.48,6.28-1.77.27-4,.69-3.8,2.29.2,1.91,2.73,1.15,4.32,1.36a37.67,37.67,0,0,0,19.8-2.5c15.55-6.26,32.31-10.49,49.15-14.41,4.2-1,6.08-2.46,6.42-5.9.49-4.79,3.23-9,9.35-11.43,1.37-.54,3.16-1.28,2.73-2.54-.59-1.75-2.92-1.15-4.56-1.05a44.19,44.19,0,0,0-19.5,5.45c1.43-9.33,15.36-15.4,25.85-12.08,7.73,2.44,15,5.91,24.42,3.55,5.27-1.32,9.84,1.36,12.76,4.93a37.21,37.21,0,0,1,6.14,11c1,2.67,2.62,3.49,6.28,2.25,14.44-4.85,28.78-9.92,44.11-13.11,4.57-1,5.52-4.18,7.2-6.8,3.27-5.1,6.95-9.69,15.73-10.13-5.38-1.2-9.16,1.22-13.34,2.78-2,.73-4,3.24-6.27,1.27s.39-3.84,2.14-5.23c3.19-2.53,6.68-4.87,10.21-7.16,2.11-1.36,3.68-.65,4.52,1.16a21.33,21.33,0,0,0,1.17,2.85,3.84,3.84,0,0,0,4.46,1.41c1.93-.51,2-1.86,1.37-2.93-2.89-4.72.77-7.7,5.06-10.27,5.58-3.35,10.82-7.25,19.31-9.05-3.75,7.62-10,12.76-16.38,17.72-6.1,4.72-6,5.92,1.87,8.95,2.38.92,5.12,1.52,7.1,2.78,12.42,7.88,25.84,7.48,40,3.22A37.51,37.51,0,0,1,795.83,370c5.16.23,7.62-.89,6.25-5.11-.42-1.29-.84-2.93,1.81-4.88.46,10.83,11,10.94,20.76,11.94a44.26,44.26,0,0,1,7.77,1.47c4.51,1.29,8.6,1.77,11.91-1.64a2.91,2.91,0,0,1,2.86-1c1.7.52,1.11,1.74.78,2.6-1.29,3.41.52,5.23,4.83,6.41a38.51,38.51,0,0,1,15.85,8.83c6.83,6.12,15.77,10.23,25.87,12.89,3.22.86,5.9,1.05,6.26-2.19.63-5.64,2.48-11.47,1.24-16.89-1.92-8.32-5.94-16.38-9.25-24.52-.91-2.22-4-3.33-5.82-5.2,4.22.54,7.65,2.47,8.92,5.08,3.3,6.79,12.2,11.79,11.36,19.88-.14,1.33,1.17,1.6,2.7,1.49a46.57,46.57,0,0,1,6-.34c2.65.16,6.85-1,7.28,1.8.33,2.23-3.8,2.83-6.31,3.8-.58.22-1.28.28-1.91.46-3,.83-7.47-1.14-9,1.91a21.36,21.36,0,0,0-1.68,13.8c.46,2.51,3.48,2.22,5.91,2,5.51-.6,11-1.21,16.5-2a47.71,47.71,0,0,1,13.24-.15c9.61,1.19,14.76-3.22,12.78-10.36-1.57-5.68-5.73-10-12.15-13.21,1.67-1.69,3.38.4,5.22-.42-.55-3.45-3.6-6.25-5.15-9.48-.68-1.39-3-3,.76-4,2.39,3.18,4.57,6.46,7.24,9.51,2.38,2.71,4.8,6.2,11,1.73-.91,6.44-9.72,11.11-2.71,17.3,2.69-4.9,3.94-9.91,5.15-14.92a2.53,2.53,0,0,0-1.36-3.16c-6.84-3.09-11.67-8.24-19.37-10.42-.51-.32-1.23-.57-1.48-1-.73-1.17.8-1,1.27-.82,5.43,2.49,13.6,1.65,16.23,7.6a3.41,3.41,0,0,0,4.17,1.79c1.71-.57.89-2.07.91-3.17.16-6.65-4.78-11.55-11.55-17,3.56.4,8.24,4,6.9-1.42-.21-.88.74-1.58,2-1.66,1.75-.1,2,1,2.61,1.87,2.36,3.4.55,7.25,2.08,11.06,3.05-3.91,4.84-8.15,11.51-11.1-8.86,11.43-9.21,12.55-9.25,27.91,3.39-.63,6.18-1.6,7.9-3.93,2.45-3.33,5.34-5.21,11.24-4.11,5.14,1,9.92-2.88,16.08-1.81-11.47,2.6-20.92,7.47-31.32,10.87-3.49,1.14-5.58,3.12-6.37,6-.71,2.61-1.93,5.13-2.79,7.72-2.23,6.72-8,10.7-17,11.8-5,.61-5.8,1.82-3.33,5.21,3.05,4.18,5.72,8.22,13,8.94,1.84.18,3.54,1.35,5.23,2.15,1.09.52,2.66,1,2.25,2.21-.49,1.43-2.4,1.5-3.87,1.24-5.17-.89-5.6.94-5.69,4.26a75.81,75.81,0,0,1-3.42,20.65c-1.94-6.17-4.37-12.29-5.64-18.53-.72-3.58-1.13-6.15-7.32-4.36.5-2.23,2.76-2.69,4-3.83,3.1-2.88,4.27-5.76,1.27-9.11-1.61-1.79-3-3.68-4.46-5.57-1.86-2.47-4.39-3.54-8.3-2.95s-8.08.51-11.9,1.33c-20.16,4.3-35.2-2.77-48.57-12.51-4.77-3.48-8.68-5.31-15-2.92a12.27,12.27,0,0,1-5.82.91c-6.13-1-11.23-1.77-12.93,4.71-.52,2-5.3,2.06-8.41,1.07-2.46-.79-2.84-2.44-2.34-4.23.7-2.46,2.69-3.74,6.14-3.65,1.3,0,2.6,0,3.88,0,.57-1.64-1.44-2.18-2.14-2.09-6.8.92-14.12-2.69-20.58,1.38a10.44,10.44,0,0,1-4.88,1.5c-5,.15-6.58,2.15-7.8,5.53-2.22,6.08-10.74,7.81-15.8,12.29-.49-.72-.69-.87-.66-1,.73-3.38,7.62-5.52,5.66-8.45-2.45-3.67-7.84-6.23-11.89-9.32-1.18-.9-3.29-1.18-3.55-3.32,6.44,1.14,12.66-.88,19,.14,3.32.53,4.37-.55,4.14-3-.7-7.5-2-8.19-12.11-6.25-8.21,1.58-16.44,3.1-24.72,4.44-3.71.6-5.33,1.9-5.05,4.8a83.57,83.57,0,0,1,.24,9c-.08,7.17-4.18,12-14.14,14.9l12.86,3.58c-7.36-.24-14.26,1.4-21.25,1.2-2.27-.06-5.24-.08-6.09-1.56-2.93-5.09-8.73-3.82-13.2-3-10.83,2-15.15-1.83-19-9.61a104.07,104.07,0,0,0,16.19,5c5,1.15,6.82.11,5.57-3.78-1.36-4.2-2.62-8.43-3.83-12.66-.91-3.2-2.84-4.38-7.57-3.43-13.85,2.8-27.34,6.32-40,11.34-14.28,5.67-29,8.39-45.12,6.08a35.22,35.22,0,0,0-5.35-.19c-6.24.09-8.06,2-5.7,6.39a79.15,79.15,0,0,0,5.1,7.58c1.74,2.48,4.19,4.7,5,8.75-7.28-2.57-9.58-8.09-16-10.82a45,45,0,0,0-5.78,15.57c-.47,2.64,2.54,4.26,5,2.54,11.79-8.26,21.55-1.78,31.45,2.17,3.83,1.53,6.88,4.2,10.08,6.52,2.18,1.57,2,3-1.41,3.37-7.93.89-15.66,2.79-23.77,2.77-7.81,0-13.9-2.13-16.78-8-.85-1.71-1.71-3.87-4.63-3.78-3.5.12-2.36,2.77-3.12,4.34-2.05,4.23-.1,7.13,4.79,9.76,7.53,4,7.23,8-.73,11.62-5.46,2.49-11.19,5.16-18.17,3.19-6.1-1.71-7.7-5.63-3.69-9.51a20.16,20.16,0,0,1,5.83-4.07c6.88-3,8.35-7.91,9.15-13.16.17-1.09,1-2.44-1-3.06s-3.34.17-4.67,1.22c-11.29,8.92-24.62,8.34-35-1.37-3.87-3.63-1.46-6.12,2.72-7.61a103.56,103.56,0,0,1,17-4.47c6.6-1.12,11.74,1,14.85,5.64,1.17,1.75,1.89,3.94,5.45,3.69,3.78-.26,3.28-2.8,4-4.56,1.38-3.16,1.91-6.6,3.81-9.56,3.12-4.85.53-8.51-2.92-12.37-2-2.27-4.27-1.17-6.48-.7a310.72,310.72,0,0,0-50.25,15c-20.65,8.2-43.38,10.94-66,13.9a47.37,47.37,0,0,1-7.29.72c-8.34-.21-15.23.58-17.05,8.28-.7,3-5.26,4.23-8.89,5.65-3.95,1.54-6.8-.53-10.06-.85-8.17-.81-5.95-3.59-4.16-6.91s-.2-3.9-4.27-4.28c-22.87-2.11-37.78,7.42-51.31,19.12-1.3,1.12-1.91,2.28-.76,3.62a6.81,6.81,0,0,0,5.09,2c19.11.91,24,3.81,29.2,17.43,2.17,5.66-3,10.61-10.78,10.13a44.08,44.08,0,0,1-21.35-6.53c-5.26-3.39-7.39-7.84-5.5-13.08.58-1.6,1.25-3.2,1.72-4.82a3.36,3.36,0,0,0-1.84-4.05c-2.41-1.3-3.52.67-4.91,1.54-7.76,4.88-10.92,11.17-10,18.67.47,4,.9,8,1.23,11.95.29,3.56,3.8,4.51,9.08,5.52-5.27,2.47-9.18,2.53-11.26-1q-7.9-13.49-14.71-27.33c-1.6-3.22.7-5.72,5.5-4.27,8.48,2.56,13.24-.58,18-5.06,3.91-3.68,3.17-6.33-3-7.49-4.75-.89-9.63-1.27-14.3-2.53-9.45-2.56-15.87-6.93-18.44-14.5-2.93-8.67-3.56-8.76-15.23-6.54-4.32.83-8.58,1.85-12.91,2.64-4.16.76-6.19-.43-4.88-3.67,1-2.54,2.48-5,3.7-7.49.59-1.19,2.35-2.53.84-3.66s-4-1.17-6.24-.49a28.87,28.87,0,0,0-8.08,4.37,56,56,0,0,0-14.59,14.21c-1.55,2.24-2,4.42,1.18,6.25,2.88,1.67,5.28.78,7.91-.46,10.29-4.86,16-2.88,17.48,6.28,1.49,9-2.1,17.15-8.66,24.6-2.41,2.73-8.31,2.23-12-1-3.08-2.64-3.89-5.88-4.14-9.29a122.6,122.6,0,0,0-1.55-14.43c-1.14-5.86-4.63-7-11.27-4-1,.42-1.86.94-2.86,1.3-7.93,2.79-11.2,6.41-8.7,13.69,3.1,9-1.32,17-11.56,22.95-9,5.2-17.75,10.6-28.23,14.11a24.32,24.32,0,0,0-13.08,10.16l-1.51-.67c.42-6.68.34-13.4,1.4-20,1.16-7.25.7-14.61,3.4-21.79,5.75-15.34,20-21.43,40.22-16.46,4,1,7.25.83,10.63-1s7.16-3.38,10.59-5.24c4.08-2.21,4.11-6-.41-7-14.09-3.17-17-12.45-21.34-20.89-2.23-4.34-2.76-9.08-3-13.76-.13-2.38.83-4.26,4.63-3,9.74,3.24,20.13,5.67,27.72,11.75,8.45,6.77,8.82,12.71,1.26,20.12-3.57,3.49-3.57,3.49-1.95,7.46,5.15-5.15,9.61-10.29,15.36-14.64,9.24-7,9.09-6.86-1.2-12.82-11.49-6.65-18.67-16.07-26.86-24.73-5.56-5.87-12.65-9.1-21.48-10.93a34,34,0,0,1-5-1.34c-6.12-2.3-6.83-4.88-1.26-7.58s5.52-5.13,1.54-8.64c-3.73-3.3-6.81-7-10.37-10.43-4-3.86-8.59-4.52-13.86-1.85-6.48,3.29-12.78,6.81-15.67,12.6-.77,1.56-1.64,3.63,1.26,4.24,2.58.55,2.82-1.67,3.62-3a7,7,0,0,0,.68-1.92c.62-2.08.64-4.9,4.74-4.38,3.57.44,3.67,3.1,3.59,5.27-.24,6.82-2,13.56-1.55,20.42a3.15,3.15,0,0,1-2.91,3.55c-2.63.36-3.32-1.48-3.84-2.84-1.27-3.36-2.05-6.82-3.36-10.18-2.27-5.8-6.13-7.1-13.41-4.74a48.3,48.3,0,0,1-5.48,1.84c-7.61,1.51-10.18,4.78-11.45,10.93-3.39,16.51-16.48,28.81-35.08,37.81a93.7,93.7,0,0,1-11.89,4.54c-4.22,1.37-3.31,4.93-5.86,7-.89.71-1.53,1.84-3.06,1.62-1.75-.25-1.59-1.51-1.48-2.45C96,411.37,93.31,401.21,96,391.1c2.34-8.78,5.78-17,13.51-24.15,7.94-7.3,18.14-10.43,29.65-7,11.35,3.41,20.74,1.13,30.45-2.53,5.53-2.09,6.31-5.49,1.69-8.68a34.37,34.37,0,0,0-7.82-3.79c-14.34-5.12-17.31-15-18.91-25.31-.59-3.82,2.83-5.26,7.77-4.71,4.49.49,8.52,2,12.6,3.29,3,1,4.65.6,6.62-1.49,5.38-5.73,6.1-11,3.88-18.33-3.2-10.54-11.34-13.55-23.54-14.19-5.69-.29-10.83-1.89-16.07-3.32-8.2-2.23-16.09-3-22.55,2.8a4.36,4.36,0,0,1-3.7,1.12c-1.73-1.84.82-2.93,1.58-4.28,7.68-13.74,22.27-21.43,41-24.83,7.15-1.3,8.06-3.57,6.58-8.35-3.31-10.71-6.18-21.5-8.79-32.32-1.12-4.67-4.31-7.43-10.16-8.89-8.25-2.06-16.43-4.29-24.66-6.4-1.58-.4-3.6-1.55-4.76,0s-.55,3.38,1.65,4.37a53.13,53.13,0,0,0,6.1,2c11,3.41,18.54,12,16.67,20.73-2.89,13.44-10.38,25.42-23.14,35.37-3.41,2.65-7.84,3.73-12.4,4.63-1.28.25-2.82.5-3.8-.32-1.21-1,.27-1.76.89-2.58,3.58-4.72,3.33-9-.33-14-6.31-8.68-10.36-18.11-9.23-28.24.84-7.6,5-13.82,15.1-16.88,3.25-1,5.53-2.23,4.37-5.18s-4.26-2.45-7.13-2.47a4.93,4.93,0,0,0-.67,0c-20.66,2.13-20.36,2.19-20.76,16.12a12.15,12.15,0,0,0,0,2c2.25,16.59-9.07,27.31-27.58,34.42-8.52,3.28-14.78,7.75-18.88,14.08-2.77-.52-2.16-2.15-1.91-3.26,2-8.78.78-17.63,1.16-26.44.28-6.78,3-12.59,9.9-17.38,5.21-3.6,9.68-7.82,14.31-11.87a25.44,25.44,0,0,1,15.88-6.74c10.52-.47,20.57-3,31.06-3.4,3.73-.16,8.59-5.19,8-7.88-.43-1.91-2.44-1.66-4.15-1.7-2.45-.07-4.91,0-7.36,0-2.21-.06-4.41-.25-7.51-.44,5.28-4.89,5.31-9.8,2.37-15-1.41-2.47.31-4,3.45-2.63,11.45,5,24.75,7.8,33.64,15.78,1.2,1.08,3.68,2.24,2.4,3.75-1.49,1.76-4.05.45-6.12.13-1.75-.26-3.47-.62-5.18-1-6-1.32-7.77,1.75-9.7,4.95-2,3.36.35,4.91,3.93,6.2,8.68,3.16,18,4.87,27.17,7,4.05,1,4.82-.84,4.45-3.16-.75-4.79-1.48-9.6-2.68-14.34-5-19.72-1.17-39.14,3.2-58.56q1.77-7.87,3.13-15.81c1.09-6.29-1.93-10.39-9.67-12.85-8.83-2.8-17.78-5.36-26.67-8.06-3.31-1-6.13-1-7.69,1.87-1.43,2.64-3.53,5.5,1.33,7.36,12.15,4.64,17.77,12.22,16.33,22.08-1.66,11.31-7,21.4-22,26.85a130.54,130.54,0,0,1-16.6,5.26c-4.33.94-7.1.13-9.22-3-7.52-11.09-10.33-22.46-6.15-34.8,3-8.81,9.56-14.73,21.32-16.69,7.6-1.26,10.32-5.23,12.85-9.79,1-1.72.3-2.88-1.76-3.74a6.68,6.68,0,0,1-1.15-.51C89.74,78.09,77.11,76,61.82,81c-8,2.62-17.43,2-26.43,1.29C26,81.51,26,81.77,20.26,87.15c.66-4.68-2-9.73,7.31-10.39,1.81-.12,2.92-1.43,4-2.5C43.05,63,59,58.14,77.13,56.61c11.4-1,16.74,4.17,13.54,12.32-1,2.62-4.1,5.49-1,8,4.57,3.68,10.3,7.21,16.8,7.68,4.73.34,7.47-4,9.07-7.51.95-2.08.36-4.27-.35-6.41-1.36-4.06-2.16-8.18-1.44-12.38,1.8-10.57,16.4-16.75,29.49-12.47,3.17,1,6,2.19,5.53,5.43-.23,1.59-.18,2.75,3.27,1.64,2.91-.94,3.23,2.71,6.85,3.94.11-10.22.57-20-1-29.84h6.69c-.1,19.39,1.67,38.81-2.52,58.1-.61,2.79-.9,5.61-1.35,8.41-.6,3.81,1.42,5.53,6.78,5.3,9-.38,17.74.77,26.46,2.22,3.57.6,7.9,2.15,9.77-1.65,2-4.16,6.84-8.85.63-12.86-13.8-8.93-13.66-20.74-12.6-32.57C192.7,43.21,200,34.47,210.1,27ZM201.45,275.59c0-9.53-2-18.87-4.27-28.19-1.73-7.24-2.8-14.46-.08-21.74,2.61-7-.5-11.19-9.84-13-6.23-1.24-12.59-2.17-18.94-3-9.56-1.25-13,1.17-11.27,8.32,2.52,10.47,5.57,20.87,8.22,31.32.76,3,2.58,4.29,6.78,5C187.33,256.94,199.64,262.22,201.45,275.59ZM749.6,384.52c.42-2.67-1.88-3.42-5.34-3.17q-13.26.93-26.5,1.89c-3.48.26-5.12,1.48-4.48,4.32a97.07,97.07,0,0,0,4.43,14.53c1.62,4.07,5.64,5,10.42,4.14C741.23,403.86,750,395,749.6,384.52Zm-455.83,4.94c-.82-1.07.35-1.87.83-2.74,1.83-3.31,1.77-6.51-.93-9.53-1.11-1.22-2.4-2.63-4.73-2.37-2.15.25-2.3,1.89-2.82,3.11-1.62,3.81-3.19,7.63-4.66,11.47-6.31,16.48-3.59,13.64,10.56,20.48,3,1.42,4.08,1.34,6.06-1,5.45-6.54,1-13,.19-19.42C297.89,386.42,295.39,390.08,293.77,389.46ZM154.65,90.06c.36-2.91-.19-3.66-4.22-3.69a32.86,32.86,0,0,1-15-3.7,82.42,82.42,0,0,0-8-3.63c-4.94-1.87-10.86.4-13.75,5.18-2.73,4.51,2.94,4.52,5.83,5.5,8.29,2.82,16.92,5.09,25.2,7.93,5.18,1.78,7.45.51,8.48-3.23C153.67,93,154.2,91.51,154.65,90.06ZM627.93,398.74l0,.2c2.85-.29,5.72-.48,8.54-.9,2-.29,2.68-1.35,1.11-2.5-7.14-5.22-14.18-10.53-21.69-15.44-2.48-1.63-5.76-.79-6.65,1.94-4.49,13.65-1.61,16.38,17.32,16.7Zm-267.6,36.38c4.91,3.87,3,6.52.89,9.2a18.29,18.29,0,0,0-3,4.42c-.69,1.93.89,3.54,2.67,4.86,1.4,1,2.83.63,4.1-.29a241.31,241.31,0,0,1,25.67-16.85ZM253.05,380.8a151.43,151.43,0,0,0,16.29,15.76c3.38,2.79,5.6,2.13,6.88-1.28q4-10.56,7.92-21.14c.3-.8.41-1.69-1.14-2C273.88,384,271.53,384.74,253.05,380.8Zm500.1-4c.11-.43.22-.85.32-1.28-6.93-2.9-13.81-5.86-20.81-8.67-2.3-.92-5.65-2.12-7,.25-2.59,4.41-7.83,7.31-11.4,11.82C727.82,378.9,740.47,377.73,753.15,376.78ZM325,423.59c8.43,1.12,15.14,3.51,22.25,5,3.87.79,3.68-1.37,2.92-3.4-2-5.45-4-10.92-6-16.38-.53-1.44-1.08-2.89-1.71-4.31s-.84-3-3.53-4.1C348,412.3,336.41,417.37,325,423.59Zm-21.2-21.86c10.8-7.53,20.66-13.19,33.66-4.62-5.67-5.9-11.34-11.17-20.93-12.7-3.73-.6-7.44-.68-8.19,3A64.38,64.38,0,0,1,303.79,401.73ZM183.28,300.09c4.86-5,9.35-9.69,15.59-13.21,1-.59,2.38-1.32,1.2-2.41a4.08,4.08,0,0,0-2.77-1c-6.3,1.52-14.7.3-18.72,3.75-3,2.53,1.65,7.65,3.3,11.54C182,299.06,182.41,299.28,183.28,300.09Zm-5.51,51.24c5.51-5.86,12.34-9.62,18.91-13.58,1.81-1.09,3.87-2.05,2.1-4a79,79,0,0,0-6-6c-1.54-1.38-3.67-1-5.59-.46s-1.34,1.52-.62,2.42c4.89,6.2,1.61,10.67-5.2,14.61C178.84,345.78,175.88,347.41,177.77,351.33Zm84.58,1.05c-10-5.48-19.54-5.63-29.24-1.07-1.77.84-5.62.82-3.88,3.62,1.46,2.34,4.24,1.95,7,1.34A146.35,146.35,0,0,1,262.35,352.38Zm534.84,26.94c1.17,2.3-.9,6.61,4.94,8,2.4.56,8.86-4.25,8.76-6-.15-2.68-5.6-7.07-8.82-7.19C797.76,374,796.74,375.83,797.19,379.32Z"/></svg>